<?xml version="1.0" standalone="no"?>
<!DOCTYPE svg PUBLIC "-//W3C//DTD SVG 1.1//EN" "http://www.w3.org/Graphics/SVG/1.1/DTD/svg11.dtd" >
<svg xmlns="http://www.w3.org/2000/svg" xmlns:xlink="http://www.w3.org/1999/xlink" version="1.1">
<metadata></metadata>
<defs>
<font id="casino_shadowregular" horiz-adv-x="1099" >
<font-face units-per-em="2048" ascent="1536" descent="-512" />
<missing-glyph horiz-adv-x="550" />
<glyph horiz-adv-x="0" />
<glyph unicode="&#xd;" horiz-adv-x="550" />
<glyph horiz-adv-x="0" />
<glyph horiz-adv-x="0" />
<glyph unicode=" "  horiz-adv-x="550" />
<glyph unicode="&#x09;" horiz-adv-x="550" />
<glyph unicode="&#xa0;" horiz-adv-x="550" />
<glyph unicode="!" horiz-adv-x="489" d="M233 63q53 0 90 37t37 90q0 23 -10 50q29 -16 48.5 -46t19.5 -67q0 -53 -38 -90t-91 -37q-41 0 -72 21.5t-45 56.5q26 -15 61 -15zM360 1198q0 66 13 107h45h35q8 0 9 -5.5t-3 -9.5q-41 -33 -41 -155v-84v-86v-84v-256v-99q0 -121 41 -155q4 -4 3 -9.5t-9 -5.5h-328 q-8 0 -9 5.5t3 9.5q18 16 28 47h250q6 0 8.5 6t-2.5 10q-43 33 -43 154v100v254v86v86v84zM203 348q53 0 90 -37t37 -90t-37 -91t-90 -38t-90 38t-37 91t37 90t90 37zM213 197q23 0 23 22q0 23 -23 23t-23 -23q0 -22 23 -22zM39 1384q-6 4 -4 9.5t8 5.5h209h84h37q8 0 9 -5 t-3 -10q-43 -37 -43 -155v-86v-84v-86v-254v-98q0 -123 43 -156q10 -14 -6 -14h-330q-6 0 -8 4t4 10q41 35 41 156v608q0 118 -41 155zM215 1300q-23 0 -22 -22q0 -23 22 -23q23 0 23 23q0 22 -23 22zM213 1128q-23 0 -23 -24q0 -23 23 -23t23 23q0 24 -23 24zM238 932 q0 25 -23 24q-23 0 -22 -24q0 -23 22 -23q23 0 23 23zM213 780q-23 0 -23 -22q0 -23 23 -23t23 23q0 22 -23 22zM213 608q-23 0 -23 -22q0 -25 23 -25t23 25q0 22 -23 22z" />
<glyph unicode="," horiz-adv-x="419" d="M154 -127q-8 6 -2 12q23 23 30 45q61 43 91 101.5t42 136.5q10 43 -6 78q35 -20 54.5 -58t9.5 -84q-16 -86 -51 -149.5t-117 -106.5q-14 4 -26.5 10.5t-24.5 14.5zM74 -33q-8 2 -2 13q27 29 34 65.5t-34 95.5q-25 27 -31 59.5t3 63.5t32.5 54.5t58.5 31.5t66.5 -1 t54.5 -30.5t33 -53.5t2 -66q-14 -86 -50 -149.5t-116 -108.5q-28 10 -51 26zM164 238q-23 0 -23 -21q0 -25 23 -24q23 0 22 24q1 21 -22 21z" />
<glyph unicode="." horiz-adv-x="409" d="M295 240q29 -16 47 -46t18 -67q0 -53 -36.5 -90t-90.5 -37q-41 0 -71.5 21.5t-46.5 56.5q27 -14 61 -15q53 0 91 37t38 90q0 23 -10 50zM281 221q0 -53 -38 -91t-91 -38t-90 38t-37 91t36.5 90t90.5 37q53 0 91 -37t38 -90zM135 217q0 -25 25 -24q23 0 22 24q0 23 -22 23 q-25 0 -25 -23zM307 1272q29 -16 47.5 -46t18.5 -67q0 -53 -37 -90t-90 -37q-41 0 -72 21.5t-47 56.5q27 -14 61 -14q53 0 91 36.5t38 90.5q0 22 -10 49zM293 1253q0 -53 -38 -91t-91 -38t-90 38t-37 91t37 90t90 37t91 -37t38 -90zM147 1249q0 -25 25 -24q23 0 23 24 q0 23 -23 23q-25 0 -25 -23z" />
<glyph unicode="0" horiz-adv-x="1157" d="M1030 932q0 72 -21.5 138.5t-60.5 119.5q66 -59 104 -142t38 -180v-434q0 -90 -34 -169t-93.5 -138t-139.5 -93t-170 -34h-86q-109 0 -200 48t-150 128q59 -53 133 -83t160 -30h86q90 0 170 34t138.5 93.5t92 138.5t33.5 169v434zM485 94q-90 0 -169.5 34t-139 93.5 t-93.5 138t-34 168.5v437q0 88 34 166.5t93.5 138t139 93.5t169.5 34h86q90 0 169 -34t138.5 -93.5t93.5 -138t34 -166.5v-437q0 -90 -34 -168.5t-93.5 -138t-138 -93.5t-169.5 -34h-86zM403 221q23 0 23 23q0 25 -23 24q-25 0 -24 -24q-1 -23 24 -23zM571 203q23 0 23 24 q0 10 -6 17.5t-17 7.5q-10 0 -17 -7t-7 -18q-1 -24 24 -24zM877 537q25 0 24 22q0 23 -24 23q-23 0 -23 -23q0 -22 23 -22zM848 719q0 -10 7 -17.5t17 -7.5t16.5 7.5t6.5 17.5q0 25 -23 24q-24 1 -24 -24zM897 879q0 10 -7 17t-18 7q-25 0 -24 -24q0 -23 24 -23 q10 0 17.5 6.5t7.5 16.5zM848 1079q-10 0 -16.5 -7t-6.5 -17q0 -25 23 -25q25 0 24 25q0 10 -7 17t-17 7zM836 434q-25 0 -25 -24q0 -23 25 -23q23 0 22 23q1 24 -22 24zM776 1227q-25 0 -24 -23q0 -25 24 -24q10 0 17.5 7t7.5 17t-7.5 16.5t-17.5 6.5zM727 244q25 0 25 24 q0 23 -25 23q-23 0 -22 -23q-1 -24 22 -24zM745 965q0 27 -10 57q-41 20 -82 20h-86q-72 0 -123 -51t-51 -123v-174v-86v-174q0 -29 10 -59q41 -20 82 -21h86q72 0 123 51.5t51 122.5v174v89v174zM621 1286q-10 0 -17.5 -7t-7.5 -17t7 -17.5t18 -7.5q10 0 17 7t7 18 q0 10 -7 17t-17 7zM426 1296q-23 0 -23 -24q0 -23 23 -23q25 0 25 23q0 24 -25 24zM311 528q0 -35 14.5 -67.5t36.5 -54.5q-27 43 -26 92v174v86v174q0 72 51 123t123 51h86q74 0 123 -49q-23 35 -62 57.5t-86 22.5h-86q-37 0 -68.5 -13.5t-55 -37t-37 -55.5t-13.5 -66v-174 v-89v-174zM274 1219q-23 0 -22 -23q0 -25 22 -25q25 0 25 25q0 23 -25 23zM252 365q-25 0 -25 -25q0 -23 25 -23q23 0 22 23q1 25 -22 25zM203 1053q-10 0 -17.5 -7.5t-7.5 -17.5t7.5 -17t17.5 -7t16 7t6 17t-6 17.5t-16 7.5zM190 866q-10 0 -17 -6t-7 -16t7 -17.5t17 -7.5 t17.5 7.5t7.5 17.5t-7.5 16t-17.5 6zM184 700q-23 0 -22 -22q0 -25 22 -25q25 0 25 25q0 22 -25 22zM166 500q0 -10 7 -17.5t17 -7.5t17.5 7t7.5 18q0 10 -7 16t-18 6q-10 0 -17 -6t-7 -16z" />
<glyph unicode="1" horiz-adv-x="661" d="M274 0q-8 0 -9 5t5 11q16 12 29 50h254q8 0 10 5t-4 9q-43 37 -43 158v100v334v276v160v86q0 68 12 111h82q8 0 10.5 -6.5t-4.5 -10.5q-43 -37 -43 -158v-88v-157v-277v-336v-98q0 -125 43 -158q6 -6 4 -11t-10 -5h-336zM186 111q45 39 45 157v774h-18q-2 16 -4 33t-6 33 h28v31h-100q-12 147 -98 245q-10 14 6 15h104h260h125q8 0 9.5 -5t-2.5 -10q-43 -35 -43 -159v-86v-160v-274v-336v-101q0 -123 43 -157q4 -4 3 -9.5t-10 -5.5h-335q-8 0 -10.5 5.5t3.5 9.5zM195 1247q23 0 22 23q0 25 -22 24q-25 0 -25 -24q0 -23 25 -23zM356 1294 q-23 0 -22 -24q0 -23 22 -23q25 0 25 23q0 24 -25 24zM356 1118q-25 0 -24 -24q0 -23 24 -23q23 0 23 23q0 24 -23 24zM381 920q0 23 -25 22q-23 0 -22 -22q0 -25 22 -25q25 0 25 25zM356 764q-25 0 -24 -25q0 -23 24 -22q23 0 23 22q0 25 -23 25zM356 588q-10 0 -17 -7.5 t-7 -17.5t7 -17t17 -7t16.5 7t6.5 17t-6.5 17.5t-16.5 7.5zM356 412q-25 0 -24 -23q0 -10 7 -17t17 -7t16.5 7t6.5 17q0 23 -23 23zM356 231q-25 0 -24 -24q0 -23 24 -23q23 0 23 23q0 24 -23 24z" />
<glyph unicode="2" horiz-adv-x="1142" d="M1090 0h-392h-86h-88h-389v63h332h88h86h391v213q25 8 43 27q4 8 9.5 6t5.5 -10v-39v-260zM442 96h-391v312q0 98 37 183t101.5 148.5t149.5 100.5t183 37h8h86q53 0 92.5 38.5t39.5 92.5q0 10 -5 26q-20 10 -45 10h-86h-88q-27 0 -51 -12q-20 -10 -36.5 -40.5t3.5 -65.5 q6 -14 -8 -15h-37h-260q0 16 1 33t3 33h199h37q16 0 8 12q-10 18 -10 35.5t6 31t16.5 24t20.5 16.5q25 12 51 12h88h86q27 0 49.5 -9t38.5 -26q-16 29 -46 47.5t-67 18.5h-86h-88q-27 0 -53 -13q-16 -10 -34.5 -39.5t1.5 -64.5q10 -14 -6 -14h-39h-260q0 82 31 152.5 t84 123.5t124.5 84t151.5 31h88h86q80 0 152 -31t125 -84t84 -123.5t31 -152.5q0 -80 -31 -152t-84 -125t-125 -84t-152 -31h-86h-8q-43 0 -82 -16t-67.5 -44t-45 -66.5t-16.5 -81.5v-52h27v21q0 43 16.5 81t44 66.5t65.5 45t81 16.5h10h86q82 0 152.5 30.5t124 84t84 124 t30.5 152.5q0 66 -19.5 123t-54.5 104q61 -53 96.5 -129t35.5 -164q0 -80 -31 -151.5t-84 -123.5t-124 -83t-153 -31h-86h-8q-76 0 -132 -47t-73 -119h43h88h86h218q123 0 157 43q6 6 11.5 4t5.5 -10v-37v-260h-392h-86h-88zM866 246q-4 -8 -2 -17.5t10 -13.5q20 -14 33 8 q4 8 2 17.5t-10 13.5q-23 15 -33 -8zM686 252q-14 -23 8 -33q18 -10 33 8q10 23 -10 33q-19 15 -31 -8zM526 246q-4 -8 -2 -17.5t13 -13.5q18 -14 30 8q14 18 -8 31q-19 12 -33 -8zM240 1085q10 0 16 7.5t6 17.5t-6 17.5t-16 7.5t-17.5 -7.5t-7.5 -17.5t7.5 -17.5t17.5 -7.5 zM324 1212q10 0 17 7.5t7 17.5t-7 16.5t-17 6.5t-17.5 -6.5t-7.5 -16.5t7.5 -17.5t17.5 -7.5zM485 1245q23 0 23 23q0 25 -23 24q-25 0 -24 -24q-1 -23 24 -23zM662 1245q25 0 24 23q0 25 -24 24q-23 0 -23 -24q0 -23 23 -23zM848 836q23 0 22 24q0 23 -22 23q-25 0 -25 -23 q0 -24 25 -24zM868 1051q-25 0 -24 -25q0 -23 24 -22q23 0 23 22q0 25 -23 25zM807 1208q-25 0 -25 -24q0 -10 7.5 -17.5t17.5 -7.5t17 7.5t7 17.5t-7 17t-17 7zM686 778q-10 0 -17 -6t-7 -16t7 -17.5t17 -7.5t17.5 7t7.5 18q0 10 -7.5 16t-17.5 6zM520 756q-10 0 -16 -7.5 t-6 -17.5q0 -25 22 -24q23 0 23 24q0 10 -6.5 17.5t-16.5 7.5zM346 719q-23 0 -22 -23q0 -25 22 -24q25 0 25 24q0 23 -25 23zM203 209q10 0 17 6t7 16t-7 17.5t-17 7.5t-17.5 -7t-7.5 -18q0 -10 7.5 -16t17.5 -6zM203 377q10 0 17 6t7 16t-7 17.5t-17 7.5t-17.5 -7 t-7.5 -18q0 -10 7.5 -16t17.5 -6zM227 557q10 0 17.5 7t7.5 18q0 10 -7 16t-18 6q-10 0 -17 -6t-7 -16t7 -17.5t17 -7.5zM395 223q14 18 -8 31q-23 14 -33 -8q-4 -8 -2 -17.5t13 -13.5q18 -15 30 8z" />
<glyph unicode="3" horiz-adv-x="1126" d="M432 94q-80 0 -151.5 31t-125 84t-84 125t-30.5 151v7h262h41q14 0 8 -13q-16 -33 -9 -61.5t30 -44.5l-6 24h18h41q16 0 8 -12q-8 -20 -8 -31h6h86h86h2q53 2 91 40t38 91q0 10 -4 27q-16 8 -43 8h-31q-100 0 -151 -39q-14 -10 -14 6v33v47q39 16 108 17h31q49 0 86 -33 q-16 29 -47 47t-66 18h-31q-98 -2 -151 -41q-4 -4 -9 -2t-5 9v34v261h8h71h86h31h2h2q53 0 91 37.5t38 91.5q0 8 -1 14t-3 14q-10 4 -21.5 6t-21.5 2h-88h-86q-53 0 -78.5 -38.5t-3.5 -85.5q6 -12 -8 -13h-41h-260v6v28.5t4 29.5h199h41q16 0 8 12q-23 47 3 86t79 39h86h86 q53 0 88 -35q-16 29 -47 47.5t-66 18.5h-88h-86q-53 0 -77.5 -38t-2.5 -87q8 -12 -8 -13h-41h-262v7q0 82 30.5 152.5t84 123.5t125 84t151.5 31h86h88q127 0 220.5 -66.5t137.5 -165t31.5 -212t-98.5 -208.5l25 -30q51 55 75.5 119.5t25.5 129t-18.5 126t-56.5 114.5 q55 -49 90 -117.5t41 -144.5t-17.5 -151.5t-82.5 -141.5q53 -59 75.5 -120.5t22.5 -139.5q0 -80 -30.5 -151.5t-83 -124t-124 -83t-151.5 -30.5h-86h-86q-100 0 -183 44t-136 118q53 -47 119.5 -73t142.5 -26h86h86q80 0 150.5 31t123.5 84t84 124t31 153q0 78 -22.5 138 t-73.5 118q39 -51 55 -104.5t16 -121.5q0 -80 -30.5 -151.5t-84 -124.5t-124 -84t-152.5 -31h-86h-86zM201 1092q23 8 18 28q-6 23 -31 19q-20 -6 -16 -29q9 -22 29 -18zM297 1229q23 4 18 26q-6 23 -30 19q-10 -2 -14.5 -10.5t-2.5 -18.5t10.5 -15t18.5 -1zM481 1251 q25 8 19 29q-2 10 -10.5 15t-18.5 3q-23 -8 -16 -28q3 -23 26 -19zM653 1251q23 6 19 29q-2 10 -10.5 15t-18.5 3q-23 -8 -18 -28q5 -23 28 -19zM834 291q23 0 22 22q0 25 -22 25q-25 0 -25 -25q0 -22 25 -22zM862 461q23 0 23 24q0 23 -23 23q-25 0 -24 -23q-1 -24 24 -24z M856 1028q-10 -2 -15 -9t-1 -18q2 -10 10 -15t18 -3t15.5 10t1.5 19q-9 22 -29 16zM809 1184q-10 -2 -15.5 -10.5t-2.5 -18.5q8 -23 30 -16q10 2 15.5 10t1.5 18q-2 10 -10.5 15.5t-18.5 1.5zM809 870q-10 -2 -15.5 -10t-2.5 -18q8 -23 30 -17q10 2 15.5 10.5t1.5 18.5 q-2 10 -10.5 15t-18.5 1zM815 670q-10 0 -17 -7.5t-7 -17.5t7 -17t17 -7t16.5 7t6.5 17q0 25 -23 25zM514 723q25 0 25 22q0 25 -25 25q-23 0 -22 -25q-1 -22 22 -22zM686 727q23 4 16 29q-6 20 -28 16q-10 -2 -15.5 -10t-3.5 -19q8 -22 31 -16zM672 262q-23 0 -23 -24 q0 -23 23 -23q25 0 24 23q1 24 -24 24zM500 238q-23 0 -23 -23q0 -25 23 -25q25 0 24 25q1 23 -24 23zM315 293q-10 0 -17 -6t-7 -17q0 -10 7 -16t17 -6t17.5 6t7.5 16t-7.5 16.5t-17.5 6.5zM219 420q-10 0 -17 -7t-7 -18q0 -10 7 -16t17 -6t17.5 6t7.5 16t-7.5 17.5 t-17.5 7.5z" />
<glyph unicode="4" d="M965 1194q0 68 12 109h82q10 0 11 -5.5t-5 -9.5q-43 -37 -43 -160v-86v-174v-153v-260v-183v-98q0 -123 43 -160q6 -4 5 -9t-11 -5h-334q-8 0 -10 5t4 9q20 16 29 49h253q23 0 7 17q-43 33 -43 158v98v182v260v154v174v88zM680 549h-645l205 510q57 143 18 209 q-6 12 8 12h344l-8 -23l-59 -147l-105 -256l-18 -43h39l4 12l104 256l43 107h70v37q0 123 -43 159q-6 4 -5 9.5t9 5.5h213h123q8 0 10 -5.5t-4 -9.5q-43 -37 -43 -159v-86v-172v-154v-262v-180v-101q0 -125 43 -157q6 -6 4 -11.5t-10 -5.5h-336q-8 0 -9 5t5 12q43 33 43 157 v187h-563l26 63h537v31zM815 1305q-10 0 -17 -6.5t-7 -16.5t7 -17.5t17 -7.5t17.5 7.5t7.5 17.5t-7.5 16.5t-17.5 6.5zM813 1128q-10 0 -17.5 -7t-7.5 -17t7.5 -16.5t17.5 -6.5t17.5 6.5t7.5 16.5t-7.5 17t-17.5 7zM840 930q0 10 -7.5 16t-17.5 6t-17 -6t-7 -16t7 -17.5 t17 -7.5t17.5 7.5t7.5 17.5zM813 774q-10 0 -17.5 -6t-7.5 -16t7.5 -17.5t17.5 -7.5t17.5 7t7.5 18q0 10 -7.5 16t-17.5 6zM813 598q-10 0 -17.5 -7t-7.5 -18q0 -10 7.5 -16t17.5 -6t17.5 6t7.5 16t-7.5 17.5t-17.5 7.5zM813 424q-10 0 -17.5 -7t-7.5 -18q0 -10 7.5 -17 t17.5 -7t17.5 7t7.5 17t-7.5 17.5t-17.5 7.5zM813 242q-10 0 -17.5 -7.5t-7.5 -17.5t7.5 -16t17.5 -6t17.5 6t7.5 16t-7.5 17.5t-17.5 7.5zM250 662q25 0 24 22q0 25 -24 25q-23 0 -23 -25q0 -22 23 -22zM305 821q10 0 17.5 7.5t7.5 17.5t-7.5 17t-17.5 7t-16 -7t-6 -17 t6 -17.5t16 -7.5zM377 975q23 0 22 22q0 10 -6 17.5t-16 7.5t-17.5 -7t-7.5 -18q0 -22 25 -22zM414 1163q0 -23 24 -22q23 0 23 22q0 23 -23 23q-24 0 -24 -23zM455 655q23 0 22 25q0 23 -22 22q-25 0 -25 -22q0 -25 25 -25zM641 655q23 0 23 25q0 23 -23 22q-25 0 -25 -22 q0 -25 25 -25zM680 811v340l-55 -135l-82 -205h137z" />
<glyph unicode="5" horiz-adv-x="1042" d="M518 0q-98 0 -181 45t-136 119q53 -47 118.5 -72.5t141.5 -25.5h18q94 0 177 35.5t144.5 97t97.5 144.5t36 177q0 76 -23.5 144.5t-66.5 126.5q68 -63 107.5 -149.5t39.5 -184.5q0 -94 -35.5 -177t-97 -145.5t-144.5 -98.5t-177 -36h-19zM342 487q16 0 8 -12 q-18 -33 -6 -59.5t31 -40.5q-6 8 -8 16h22h37q10 0 8 -12q-6 -6 -10 -21q2 0 3 -1t5 -1h23q39 0 74.5 15.5t61 42t41 61.5t15.5 76q0 37 -12 72q-41 27 -98 26h-410v64h352q84 0 137 -58q-25 41 -67.5 65.5t-93.5 24.5h-410v621v33h387h4h66h407v-260v-37q0 -8 -6 -10t-10 4 q-37 43 -158 43h-190h-43h-66h-131v-9v-124h25v92v10h131h65h43h191q123 0 158 -43q6 -6 11 -4t5 10v37v197h57v-261v-38q0 -6 -5 -8.5t-11 3.5q-35 43 -158 43h-190h-43h-66h-129v-10v-28h66q94 0 177 -36t144.5 -97.5t97 -144.5t35.5 -177t-35.5 -177t-97 -144.5 t-144.5 -97.5t-177 -36h-19q-82 0 -152.5 31t-124 84t-84 124t-30.5 152h260h37zM754 1309q-10 0 -17.5 -7.5t-7.5 -17.5t7 -16t18 -6q10 0 17 6t7 16t-7 17.5t-17 7.5zM565 1309q-25 0 -24 -25q0 -23 24 -22q23 0 23 22q0 25 -23 25zM373 1309q-25 0 -25 -25q0 -23 25 -22 q23 0 22 22q1 25 -22 25zM180 1309q-23 0 -22 -25q0 -23 22 -22q23 0 23 22q0 25 -23 25zM182 1120q-25 0 -24 -22q0 -25 24 -25q23 0 23 25q0 22 -23 22zM186 881q25 0 25 22q0 23 -25 23q-23 0 -22 -23q-1 -22 22 -22zM362 872q10 0 17.5 7.5t7.5 17.5t-7 17.5t-18 7.5 q-10 0 -17 -7.5t-7 -17.5t7 -17.5t17 -7.5zM547 856q23 0 22 25q0 23 -22 22q-25 0 -25 -22q0 -25 25 -25zM766 440q23 0 22 25q0 23 -22 22q-25 0 -25 -22q0 -25 25 -25zM764 659q-23 0 -23 -24q0 -23 23 -23q25 0 24 23q1 24 -24 24zM692 807q-23 0 -22 -23q0 -25 22 -24 q25 0 25 24q0 23 -25 23zM676 334q-10 0 -17.5 -7.5t-7.5 -17.5t7.5 -16t17.5 -6t17 6t7 16t-7 17.5t-17 7.5zM500 258q-25 0 -25 -25q0 -23 25 -22q23 0 22 22q1 25 -22 25zM201 362q23 0 22 25q0 23 -22 23q-25 0 -25 -23q0 -25 25 -25zM346 260q0 25 -24 25 q-23 0 -23 -25q0 -23 23 -22q24 -1 24 22z" />
<glyph unicode="6" horiz-adv-x="1138" d="M1026 1004q-18 102 -80 186q53 -49 89 -112.5t48 -139.5h-270h-37q-12 0 -8 12t-2 26.5t-18 27.5h8h270zM561 0q-109 0 -200 48t-150 130q59 -53 133 -84t160 -31h88q137 0 237.5 70t151.5 173.5t45 223t-82 222.5q72 -66 105.5 -148t33.5 -166t-30.5 -162.5t-87 -140 t-137 -98.5t-179.5 -37h-88zM479 94q-90 0 -169 34t-138 93.5t-93 138t-34 168.5v437q0 88 34 166.5t93 138t138 93.5t169 34h92q80 0 153 -28t129 -76t95 -114.5t51 -144.5h-270h-18q0 -2 1 -3t1 -3l-13 6h-6q-8 0 -8 4q-8 2 -15 3t-18 1h-92q-47 0 -84 -21.5t-59 -55.5 h147q88 0 155.5 -27t133.5 -84q74 -66 109.5 -147.5t38 -166.5t-28.5 -165t-88.5 -142.5t-138 -100.5t-181.5 -38h-86zM827 1155q-10 0 -16 -7t-6 -18q0 -10 6 -17t16 -7t17.5 7t7.5 17t-7.5 17.5t-17.5 7.5zM668 211q23 0 22 25q0 23 -22 22q-25 0 -25 -22q0 -25 25 -25z M883 545q-10 0 -16.5 -7.5t-6.5 -17.5q0 -25 23 -24q25 0 24 24q0 10 -7 17.5t-17 7.5zM834 709q-23 0 -23 -23q0 -25 23 -24q25 0 24 24q1 23 -24 23zM811 379q-10 0 -17.5 -6t-7.5 -17q0 -10 7.5 -17t17.5 -7q23 0 23 24q0 23 -23 23zM707 834q-10 0 -16.5 -7.5 t-6.5 -17.5q0 -25 23 -25q25 0 24 25q0 10 -7 17.5t-17 7.5zM530 860q-25 0 -24 -22q0 -23 24 -23q10 0 17.5 6t7.5 17q0 10 -7.5 16t-17.5 6zM692 1274q-10 0 -17 -7t-7 -18q0 -10 7 -17t17 -7t16.5 7t6.5 17t-6.5 17.5t-16.5 7.5zM524 1309q-23 0 -22 -25q0 -23 22 -22 q25 0 25 22q0 25 -25 25zM356 1284q-10 0 -17 -6t-7 -16t7 -17.5t17 -7.5t17.5 7t7.5 18q0 10 -7.5 16t-17.5 6zM479 1137q-37 0 -68.5 -13.5t-55 -37t-37 -55.5t-13.5 -66h29q10 59 58 100t112 41h92q47 0 82 -29q4 -4 6 -4q-8 16 -31 35q-35 29 -82 29h-92zM381 838 q0 10 -7 16t-18 6q-10 0 -17 -6t-7 -16t7 -16.5t17 -6.5t17.5 6.5t7.5 16.5zM188 985q-23 0 -22 -24q0 -23 22 -23q23 0 23 23q0 24 -23 24zM182 788q-25 0 -24 -22q0 -25 24 -25q23 0 23 25q0 22 -23 22zM152 588q0 -23 24 -23q23 0 23 23q0 25 -23 24q-24 1 -24 -24z M205 391q23 0 22 23q0 25 -22 24q-25 0 -25 -24q0 -23 25 -23zM240 1106q10 0 17 7t7 17t-7 17.5t-17 7.5t-17.5 -7t-7.5 -18q0 -10 7.5 -17t17.5 -7zM309 256q23 0 23 23q0 25 -23 24q-25 0 -24 -24q-1 -23 24 -23zM305 528q0 -35 14.5 -67.5t36.5 -54.5q-27 43 -26 92v174 h262q72 0 121 -49q-23 35 -62 57t-86 22h-260v-174zM387 434q0 -33 12 -59q37 -20 80 -21h86q72 0 123 51.5t51 122.5q0 29 -10 60q-37 20 -80 20h-262v-174zM453 211q0 -23 22 -23q25 0 25 23q0 25 -25 25q-22 0 -22 -25z" />
<glyph unicode="7" horiz-adv-x="1112" d="M670 14q4 -4 2 -9t-8 -5h-336l24 63h256q6 0 8 4.5t-4 10.5q-45 45 17 205l381 993h80l-404 -1057q-61 -162 -16 -205zM248 92l354 930h-240q-109 0 -151 -59q-12 -16 -16 4l-23 77q45 39 133 39h322l10 31h-356q-104 0 -152 -57q-10 -14 -14 2l-92 311h987l-406 -1057 q-59 -164 -16 -207q6 -4 4 -9t-10 -5h-334zM180 1212q23 0 23 23q0 10 -6.5 17.5t-16.5 7.5t-17 -7.5t-7 -17.5t7 -16.5t17 -6.5zM340 1212q23 0 22 23q0 10 -6 17.5t-16 7.5t-17.5 -7.5t-7.5 -17.5q0 -23 25 -23zM506 1212q23 0 22 23q0 10 -6 17.5t-16 7.5t-17.5 -7.5 t-7.5 -17.5q0 -23 25 -23zM836 1260q-10 0 -16.5 -7.5t-6.5 -17.5q0 -23 23 -23q10 0 17 6.5t7 16.5t-7 17.5t-17 7.5zM756 1083q-23 0 -23 -22q0 -10 6 -17.5t17 -7.5q10 0 17 7.5t7 17.5q1 22 -24 22zM711 889q0 10 -7.5 16t-17.5 6q-23 0 -22 -22q0 -10 6 -17.5t16 -7.5 t17.5 7.5t7.5 17.5zM670 1260q-10 0 -17.5 -7.5t-7.5 -17.5q0 -23 25 -23q23 0 22 23q0 10 -6 17.5t-16 7.5zM614 729q-23 0 -22 -22q0 -23 22 -23q25 0 25 23q0 22 -25 22zM545 569q-10 0 -17.5 -6t-7.5 -16t7.5 -16.5t17.5 -6.5q23 0 22 23q1 22 -22 22zM500 391 q-25 0 -25 -22q0 -10 7 -17.5t18 -7.5q10 0 16 7t6 18q1 22 -22 22zM440 229q-25 0 -24 -22q0 -23 24 -23q23 0 23 23q0 22 -23 22z" />
<glyph unicode="8" horiz-adv-x="1128" d="M541 0q-113 0 -200 47t-142 125q53 -51 125.5 -81t158.5 -30h125q90 0 165 32t129 84t88 122t43 144.5t-10 150.5t-69 143q70 -66 104 -145.5t34 -161.5t-30 -158.5t-85 -137t-135 -97.5t-176 -37h-125zM459 94q-98 0 -177 37t-135.5 98.5t-86 139t-27.5 160.5t36.5 163 t108.5 146q-57 84 -59 178t40 173t119.5 130t180.5 51h127q102 0 180 -51t120 -130t40 -173t-60 -178q8 -6 14.5 -12.5l14.5 -14.5q61 96 55 198.5t-61 184.5q45 -41 74.5 -94t39 -112.5t-3 -122t-51.5 -120.5q-4 4 -8 10.5t-8 10.5q49 -68 67.5 -143.5t10 -150.5 t-42 -143.5t-89 -120.5t-129 -83t-163.5 -31h-127zM528 186q23 0 23 23t-23 22q-25 0 -24 -22q-1 -23 24 -23zM692 209q10 0 17.5 6t7.5 16t-7.5 17.5t-17.5 7.5q-23 0 -22 -25q-1 -22 22 -22zM891 537q-10 0 -17.5 -6.5t-7.5 -16.5t7.5 -17.5t17.5 -7.5q23 0 22 25 q1 23 -22 23zM848 700q-10 0 -17.5 -7t-7.5 -17t7.5 -16.5t17.5 -6.5q23 0 22 23q1 24 -22 24zM819 377q-23 0 -22 -23q0 -23 22 -22q23 0 23 22q0 23 -23 23zM772 1157q-23 0 -22 -22q0 -23 22 -23q10 0 17.5 6t7.5 17q0 10 -7.5 16t-17.5 6zM772 981q-23 0 -22 -23 q0 -25 22 -24q10 0 17.5 7t7.5 17t-7.5 16.5t-17.5 6.5zM756 518q0 27 -11 57q-37 18 -79 19h-125q-72 0 -121 -49t-49 -121q0 -14 2 -28.5t6 -28.5q37 -18 80 -19h127q72 0 121 49t49 121zM707 823q-10 0 -16.5 -7t-6.5 -17q0 -23 23 -23q25 0 24 23q0 10 -7 17t-17 7z M666 1020h-125q-35 0 -58.5 -21.5t-27.5 -54.5h4h127q33 0 56.5 22.5t27.5 53.5h-4zM551 811q0 23 -23 23q-25 0 -24 -23q0 -10 7 -17.5t17 -7.5t16.5 7.5t6.5 17.5zM621 1260q-23 0 -23 -25q0 -23 23 -23q25 0 24 23q1 25 -24 25zM442 1260q-10 0 -17 -7.5t-7 -17.5 t7 -16.5t17 -6.5q23 0 23 23q0 25 -23 25zM459 1114q-35 0 -59.5 -25.5t-24.5 -60.5q0 -41 33 -67q-8 16 -9 38q0 35 25 59.5t59 24.5h125q31 0 54 -18q-23 49 -76 49h-127zM348 840q-23 0 -22 -23q0 -10 6 -17t16 -7t17.5 7t7.5 17t-7.5 16.5t-17.5 6.5zM289 1182 q-23 0 -23 -25q0 -23 23 -22q10 0 17 6t7 16t-7 17.5t-17 7.5zM166 496q23 0 22 22q0 23 -22 23q-23 0 -23 -23q0 -22 23 -22zM195 688q0 -23 24 -22q23 0 23 22q0 23 -23 23q-24 0 -24 -23zM231 336q23 0 23 24q0 23 -23 23q-25 0 -24 -23q-1 -24 24 -24zM270 952 q10 0 17.5 7.5t7.5 17.5t-7 16t-18 6q-23 0 -22 -22q-1 -25 22 -25zM289 518q0 -35 14 -66.5t37 -54.5q-27 43 -27 90q0 72 49.5 121t120.5 49h125q72 0 121 -49q-23 35 -60.5 57.5t-82.5 22.5h-127q-72 0 -121 -49t-49 -121zM365 221q25 0 24 23q0 10 -7 17t-17 7t-16.5 -7 t-6.5 -17q0 -23 23 -23z" />
<glyph unicode="9" d="M911 1165q63 -59 100.5 -140t37.5 -175v-426q0 -88 -34 -165t-91.5 -134t-134 -91t-164.5 -34h-93q-104 0 -194 47t-150 127q59 -53 132 -82t157 -29h90q88 0 166 34t135.5 91.5t91 134t33.5 164.5v426q0 72 -21.5 135.5t-60.5 116.5zM332 449q12 0 8 -11q-4 -16 6 -31.5 t27 -29.5q12 -14 35 -21h6q4 0 8 -4q10 -4 31 -4h90q45 0 83 20.5t60 55.5h-147q-86 0 -151.5 25.5t-129.5 82.5q-20 16 -35.5 34t-29.5 36l8 -8q63 -55 128.5 -81t151.5 -26h230q0 8 1 15.5t1 15.5h-256q-86 0 -151.5 25.5t-129.5 81.5q-74 63 -108.5 144t-36.5 164 t27.5 162t86 140t135 98t177.5 37h86q88 0 165.5 -33.5t135 -91t91.5 -135.5t34 -166v-426q0 -88 -34 -165t-91.5 -135t-135 -92t-165.5 -34h-90q-78 0 -149 26.5t-127 75t-94 113t-50 142.5h264h35zM211 328q23 0 22 24q0 23 -22 23q-23 0 -23 -23q0 -24 23 -24zM838 496 q23 0 22 22q0 23 -22 23q-23 0 -23 -23q0 -22 23 -22zM846 686q23 0 22 23q0 25 -22 24q-23 0 -23 -24q0 -23 23 -23zM874 883q0 23 -24 22q-23 0 -23 -22q0 -23 23 -23q24 0 24 23zM823 1077q-25 0 -24 -24q0 -23 24 -23q23 0 23 23q0 24 -23 24zM788 375q-10 0 -17 -6.5 t-7 -16.5t7 -17t17 -7q23 0 23 24q0 23 -23 23zM721 1208q-25 0 -25 -22q0 -23 25 -23q23 0 22 23q1 22 -22 22zM557 1274q-23 0 -22 -23q0 -23 22 -22q23 0 23 22q0 23 -23 23zM371 1251q-10 0 -17.5 -6t-7.5 -16t7 -16.5t18 -6.5q23 0 22 23q1 22 -22 22zM158 926 q10 0 17 7t7 17t-7 16.5t-17 6.5q-23 0 -23 -23q0 -10 6.5 -17t16.5 -7zM207 764q20 0 20 22q0 25 -20 25q-25 0 -25 -25q0 -22 25 -22zM227 1087q25 0 25 23t-25 23q-20 0 -20 -23t20 -23zM330 643q10 0 17 7t7 18q0 10 -7 16t-17 6q-23 0 -23 -22q0 -25 23 -25zM311 913 q0 72 50.5 121t119.5 49h86q68 0 121 -49q-23 35 -60.5 57.5t-84.5 22.5h-86q-72 0 -121 -49t-49 -121q0 -35 14 -66.5t37 -54.5q-27 43 -27 90zM504 614q10 0 16 7.5t6 17.5q0 23 -22 23q-10 0 -17.5 -6.5t-7.5 -16.5t7.5 -17.5t17.5 -7.5zM674 614q10 0 16 7.5t6 17.5 q0 23 -22 23q-23 0 -23 -23q0 -10 6.5 -17.5t16.5 -7.5zM713 774v170q0 27 -11 57q-35 18 -77 19h-86q-72 0 -121 -49t-49 -121q0 -27 10 -57q33 -18 78 -19h256zM674 246q-10 0 -17.5 -6.5t-7.5 -16.5t7.5 -16t17.5 -6q23 0 22 22q1 23 -22 23zM508 223q-23 0 -23 -22 q0 -10 6.5 -17.5t16.5 -7.5t17 7t7 18q0 10 -7 16t-17 6zM344 258q-23 0 -22 -22q0 -10 6 -17.5t16 -7.5t17.5 7t7.5 18q0 22 -25 22z" />
<glyph unicode=":" horiz-adv-x="395" d="M295 240q29 -16 47 -46t18 -67q0 -53 -36.5 -90t-90.5 -37q-41 0 -71.5 21.5t-46.5 56.5q27 -14 61 -15q53 0 91 37t38 90q0 23 -10 50zM281 221q0 -53 -38 -91t-91 -38t-90 38t-37 91t36.5 90t90.5 37q53 0 91 -37t38 -90zM135 217q0 -25 25 -24q23 0 22 24q0 23 -22 23 q-25 0 -25 -23zM307 1251q29 -16 47.5 -45.5t18.5 -66.5q0 -53 -37 -90t-90 -37q-41 0 -72 21.5t-47 56.5q27 -14 61 -15q53 0 91 37t38 90q0 22 -10 49zM293 1233q0 -53 -38 -91t-91 -38t-90 38t-37 91t37 90t90 37t91 -37t38 -90zM147 1229q0 -25 25 -25q23 0 23 25 q0 23 -23 22q-25 1 -25 -22z" />
<glyph unicode=";" horiz-adv-x="393" d="M154 -127q-8 6 -2 12q23 23 30 45q61 43 91 101.5t42 136.5q10 43 -6 78q35 -20 54.5 -58t9.5 -84q-16 -86 -51 -149.5t-117 -106.5q-14 4 -26.5 10.5t-24.5 14.5zM74 -33q-8 2 -2 13q27 29 34 65.5t-34 95.5q-25 27 -31 59.5t3 63.5t32.5 54.5t58.5 31.5t66.5 -1 t54.5 -30.5t33 -53.5t2 -66q-14 -86 -50 -149.5t-116 -108.5q-28 10 -51 26zM164 238q-23 0 -23 -21q0 -25 23 -24q23 0 22 24q1 21 -22 21zM293 1251q29 -16 47 -45.5t18 -66.5q0 -53 -36.5 -90t-90.5 -37q-41 0 -71.5 21.5t-46.5 56.5q27 -14 61 -15q53 0 91 37t38 90 q0 22 -10 49zM279 1233q0 -53 -38 -91t-91 -38t-90 38t-37 91t36.5 90t90.5 37q53 0 91 -37t38 -90zM133 1229q0 -25 25 -25q23 0 22 25q0 23 -22 22q-25 1 -25 -22z" />
<glyph unicode="?" horiz-adv-x="1150" d="M506 63q53 0 90 37t37 90q0 31 -8 50q29 -16 47 -46t18 -65q0 -53 -37 -91t-90 -38q-41 0 -71.5 22.5t-47.5 57.5q29 -17 62 -17zM985 1204q59 -53 93 -126.5t34 -159.5q0 -74 -25.5 -139.5t-70.5 -116t-107.5 -84t-134.5 -41.5q-53 -6 -69 -58q-4 -8 -5 -12 q-10 -66 27 -94q10 -14 -6 -15h-324q-20 0 -8 13q27 27 37 49h240q6 0 8 5t-4 9q-33 33 -27 96q2 2 2 5.5t2 7.5q10 29 26.5 41t45.5 16q72 8 134 41t107.5 84t71 115.5t25.5 138.5q0 63 -18.5 120.5t-53.5 104.5zM33 1012q0 80 29.5 149.5t82 121.5t122 82t149.5 30h33h86 h30h84q80 0 149.5 -30t122 -82t82 -121.5t29.5 -149.5q0 -74 -25.5 -139.5t-71.5 -116.5t-107.5 -85t-135.5 -42q-51 -2 -69 -56q-2 -4 -2 -7t-3 -7q-6 -61 27 -94q6 -4 4 -9t-8 -5h-326q-16 0 -6 14q25 25 37 51.5t14 61.5q6 55 29 110t59.5 98t87 70t113.5 27 q53 0 91 37.5t38 91.5q0 8 -4 24q-16 8 -43 8h-86h-31h-65h-53q-25 0 -52 -10q-18 -10 -35.5 -39.5t3.5 -64.5q8 -12 -6 -12h-37h-256q0 31 6 61h192h37q14 0 8 14q-10 18 -9 34.5t7 30t15.5 24t19.5 14.5q25 12 51 12h52h67h31h84q51 0 86 -35q-16 29 -46 47.5t-65 18.5 h-84h-30h-68h-51q-23 0 -54 -11q-16 -12 -33.5 -40.5t3.5 -63.5q6 -12 -8 -12h-37h-254zM498 545q25 0 24 24q0 20 -24 21q-23 0 -23 -21q0 -24 23 -24zM569 705q23 0 23 22q0 23 -23 23t-22 -23q-1 -22 22 -22zM739 752q23 0 23 22q0 10 -6 17.5t-17 7.5q-10 0 -17 -7.5 t-7 -17.5t7 -16t17 -6zM922 1049q-23 0 -23 -23q0 -25 23 -25t22 25q1 23 -22 23zM874 891q-23 0 -22 -23q0 -23 22 -22q10 0 17.5 6t7.5 16t-7.5 16.5t-17.5 6.5zM827 1198q-10 0 -17 -6t-7 -16t7 -17.5t17 -7.5t16.5 7t6.5 18q0 22 -23 22zM668 1282q-23 0 -23 -22 q0 -23 23 -23t22 23q1 22 -22 22zM475 1282q-23 0 -22 -22q0 -23 22 -23q23 0 23 23q0 22 -23 22zM313 1270q-25 0 -24 -25q0 -23 24 -22q23 0 23 22q0 25 -23 25zM203 1153q-23 0 -23 -23t23 -22q10 0 17 6t7 16t-7 16.5t-17 6.5zM481 350q53 0 91 -38t38 -91t-37.5 -90 t-91.5 -37q-53 0 -90 37t-37 90t37 91t90 38zM481 193q23 0 23 22q0 10 -6 17.5t-17 7.5q-10 0 -17 -7.5t-7 -17.5t7 -16t17 -6z" />
<glyph unicode="A" horiz-adv-x="1103" d="M805 1192q-6 35 -9 62.5t1 50.5h71q8 0 10.5 -6.5t-4.5 -10.5q-37 -37 -12 -160l101 -231q63 -147 63 -309v-154v-260q0 -123 41 -158q16 -16 -4 -16h-336q-8 0 -10 5t4 11q10 8 17 19.5t14 27.5h254q8 0 9 6.5t-5 10.5q-43 37 -43 158v262v153q0 82 -14.5 157t-47.5 151 zM639 111q43 37 43 157v80h-266v-174q0 -121 43 -158q8 -6 6 -11t-10 -5h-336q-18 0 -6 16q18 14 30 47h254q8 0 9.5 6.5t-5.5 10.5q-43 39 -43 158v174h324v30h-348v-174q0 -121 43 -157q6 -4 4 -9.5t-8 -5.5h-336q-8 0 -10 5t4 10q43 37 43 157v262v154q0 160 63 307 l99 232q25 125 -13 161q-4 4 -2 9.5t8 5.5h557q8 0 9.5 -5t-2.5 -10q-37 -37 -13 -161l99 -232q63 -147 63 -307v-154v-262q0 -121 43 -157q6 -4 5 -9.5t-11 -5.5h-334q-8 0 -10 5.5t4 9.5zM766 590q0 -10 7 -17.5t18 -7.5q10 0 16 7.5t6 17.5t-6 17t-16 7t-17.5 -7 t-7.5 -17zM801 205q25 0 24 22q0 25 -24 25q-23 0 -23 -25q0 -22 23 -22zM825 416q0 10 -7 17t-17 7t-16.5 -7t-6.5 -17t6.5 -17.5t16.5 -7.5t17 7.5t7 17.5zM791 797q-25 0 -25 -25q0 -23 25 -22q23 0 22 22q1 25 -22 25zM752 975q-10 0 -17.5 -7t-7.5 -18q0 -10 7 -17 t18 -7q10 0 16 7t6 17t-6 17.5t-16 7.5zM629 1315q-23 0 -23 -25q0 -23 23 -22q25 0 24 22q1 25 -24 25zM387 1298q-25 0 -25 -24q0 -23 25 -23q10 0 17.5 6.5t7.5 16.5t-7.5 17t-17.5 7zM205 199q10 0 17 7t7 17t-7 16.5t-17 6.5q-25 0 -25 -23q0 -24 25 -24zM209 381 q27 0 27 22q0 25 -27 25q-10 0 -17.5 -7t-7.5 -18q0 -10 7.5 -16t17.5 -6zM209 559q10 0 18.5 7t8.5 18q0 10 -8.5 17t-18.5 7t-17.5 -7t-7.5 -17t7.5 -17.5t17.5 -7.5zM221 737q25 0 25 25q0 23 -25 22q-10 0 -17 -6t-7 -16t7 -17.5t17 -7.5zM244 909q10 0 17 7.5t7 17.5 t-7 17t-17 7t-16.5 -7t-6.5 -17t6.5 -17.5t16.5 -7.5zM324 1085q10 0 17 7.5t7 17.5t-7 16.5t-17 6.5q-25 0 -25 -23q0 -25 25 -25zM362 702q6 82 39 156l127 293l-20 45l-131 -307q-39 -88 -41 -187h26zM403 559q10 0 17.5 7t7.5 18q0 10 -7 17t-18 7q-10 0 -17 -7t-7 -17 t7 -17.5t17 -7.5zM600 559q10 0 17.5 7t7.5 18q0 10 -7.5 16t-17.5 6q-25 0 -25 -22q0 -25 25 -25zM682 702q-2 51 -12.5 95.5t-30.5 91.5l-70 164l-110 -260q-20 -47 -29 -91h252zM662 1126q0 -10 7 -17t17 -7t16.5 7t6.5 17t-6.5 17.5t-16.5 7.5t-17 -7.5t-7 -17.5z" />
<glyph unicode="B" horiz-adv-x="1073" d="M891 754q72 -68 105.5 -150t33.5 -166t-30.5 -162.5t-87 -140t-137.5 -98.5t-179 -37h-434h-39q-8 0 -9 5t5 11q16 12 28 50h392q137 0 237.5 68.5t151.5 172t45 224.5t-82 223zM35 111q45 39 45 157v957q0 121 -45 159q-6 4 -4 9.5t10 5.5h39h260h172q104 0 185 -52.5 t123 -132t40 -176t-59 -182.5l26 -27q63 98 58.5 203t-62.5 189q45 -41 76 -95.5t40 -116t-3 -125t-51 -122.5q-8 8 -17 20q74 -102 79 -222t-45 -223.5t-151.5 -172t-238.5 -68.5h-432h-39q-8 0 -10 5.5t4 9.5zM369 188q23 0 22 23q0 25 -22 25q-25 0 -25 -25q0 -23 25 -23 zM541 188q23 0 22 23q0 25 -22 25q-25 0 -25 -25q0 -23 25 -23zM512 356q72 0 123 51.5t51 122.5q0 16 -2 29.5t-6 28.5q-41 20 -82 20h-174v-252h90zM690 242q10 0 17.5 7t7.5 17t-7.5 16.5t-17.5 6.5t-17 -6.5t-7 -16.5t7 -17t17 -7zM717 696q23 0 22 25q0 23 -22 22 q-25 0 -25 -22q0 -25 25 -25zM817 590q-10 0 -17 -6t-7 -17q0 -10 7 -17t17 -7q25 0 25 24q0 23 -25 23zM805 416q-23 0 -23 -25q0 -23 23 -22q25 0 24 22q1 25 -24 25zM756 1075q-23 0 -23 -22q0 -25 23 -25q25 0 24 25q1 22 -24 22zM692 874q25 0 25 25q0 23 -25 23 q-23 0 -22 -23q-1 -25 22 -25zM686 1227q-10 0 -16 -7.5t-6 -17.5t6 -17t16 -7t17.5 7t7.5 17t-7.5 17.5t-17.5 7.5zM659 623q-23 37 -61.5 59.5t-85.5 22.5h-172v-349h25v316h174q71 0 120 -49zM530 809q0 -23 25 -23q23 0 23 23q0 25 -23 25q-25 0 -25 -25zM596 1042h-174 v-77h90q35 0 59.5 22.5t28.5 54.5h-4zM543 1298q-25 0 -25 -24q0 -10 7 -17.5t18 -7.5q10 0 16 7.5t6 17.5q1 24 -22 24zM375 1298q-25 0 -25 -24q0 -23 25 -23q23 0 22 23q1 24 -22 24zM340 965h25v143h174q16 0 29.5 -5t23.5 -13q-10 23 -31.5 36t-48.5 13h-172v-174z M362 840q-23 0 -22 -25q0 -23 22 -22q10 0 17.5 6t7.5 16t-7.5 17.5t-17.5 7.5zM213 1298q-25 0 -25 -24q0 -23 25 -23q23 0 23 23q0 24 -23 24zM211 1122q-25 0 -25 -24q0 -23 25 -23q10 0 17.5 6t7.5 17q0 10 -7.5 17t-17.5 7zM236 922q0 25 -23 24q-25 0 -25 -24 q0 -23 25 -23q23 0 23 23zM211 768q-25 0 -25 -25q0 -23 25 -22q10 0 17.5 6t7.5 16t-7.5 17.5t-17.5 7.5zM211 592q-10 0 -17.5 -7t-7.5 -18q0 -10 7.5 -17t17.5 -7t17.5 7t7.5 17t-7.5 17.5t-17.5 7.5zM211 416q-25 0 -25 -23q0 -25 25 -24q10 0 17.5 7t7.5 17t-7.5 16.5 t-17.5 6.5zM211 236q-25 0 -25 -25q0 -23 25 -23q10 0 17.5 6.5t7.5 16.5t-7.5 17.5t-17.5 7.5z" />
<glyph unicode="C" horiz-adv-x="1091" d="M913 1165q66 -59 103 -139t37 -174h-256h-45q-18 0 -9 14q16 18 17 47h235q0 72 -21.5 135.5t-60.5 116.5zM569 63q80 0 152 28t128 77t93 114.5t49 143.5h62q0 -88 -34 -166t-91.5 -135t-135 -91t-165.5 -34h-84q-106 0 -196.5 48t-147.5 126q57 -53 129.5 -82 t156.5 -29h84zM461 94q-88 0 -166 34t-135.5 91t-91 135t-33.5 166v426q0 88 33.5 165t91 134.5t135.5 91t166 33.5h84q88 0 165.5 -33.5t135 -91t91.5 -134.5t34 -165h-256h-45q-16 0 -6 12q18 23 14 56q-23 8 -51 8h-84q-37 0 -68 -13.5t-54.5 -37t-36.5 -54t-13 -65.5 v-170v-86v-170q0 -27 10 -57q37 -18 80 -19h84q43 0 82 21q10 4 18 12t14 18q35 61 5 105q-4 4 -3 9t9 5h45h256q0 -88 -34 -166t-91.5 -135t-135 -91t-165.5 -34h-84zM795 369q-23 0 -23 -23q0 -25 23 -24q25 0 24 24q1 23 -24 23zM645 264q-10 0 -17 -7t-7 -17t7 -16.5 t17 -6.5q23 0 23 23q0 24 -23 24zM803 1079q-10 0 -17.5 -6t-7.5 -16t7.5 -17.5t17.5 -7.5q23 0 22 25q1 22 -22 22zM686 1223q-23 0 -22 -25q0 -23 22 -22q25 0 25 22q0 25 -25 25zM522 1270q-10 0 -17 -7.5t-7 -17.5q0 -23 24 -22q23 0 23 22q0 10 -6.5 17.5t-16.5 7.5z M352 1239q-23 0 -22 -22q0 -23 22 -23q25 0 25 23q0 22 -25 22zM176 963q-10 0 -17 -7.5t-7 -17.5q0 -23 24 -23q23 0 23 23q0 10 -6.5 17.5t-16.5 7.5zM176 793q-10 0 -17 -7.5t-7 -17.5q0 -23 24 -23q23 0 23 23q0 10 -6.5 17.5t-16.5 7.5zM152 596q0 -23 24 -23 q23 0 23 23q0 10 -6.5 17.5t-16.5 7.5t-17 -7.5t-7 -17.5zM193 391q10 0 16 7.5t6 17.5q0 23 -22 22q-23 0 -23 -22q0 -10 6.5 -17.5t16.5 -7.5zM211 1079q23 0 22 23q0 23 -22 22q-23 0 -23 -22q0 -23 23 -23zM283 248q23 0 22 24q0 23 -22 23q-10 0 -17.5 -6t-7.5 -17 q0 -10 7.5 -17t17.5 -7zM340 399q-25 39 -25 90v170v84v170q0 72 49.5 121t120.5 49h84q23 0 42.5 -4t39.5 -16q4 0 6 -2t7 -4q-2 2 -2 3t-3 3q-6 10 -14 17t-18 16q-20 10 -40 15t-42 5h-84q-72 0 -121 -50t-49 -120v-172v-84v-170q0 -76 49 -121zM428 217q0 -23 23 -22 q23 0 22 22q0 25 -22 25q-23 0 -23 -25z" />
<glyph unicode="D" horiz-adv-x="1093" d="M983 934q0 72 -21.5 137.5t-62.5 118.5q66 -59 103.5 -142t37.5 -180v-434q0 -90 -33.5 -169t-93 -138t-138.5 -93t-169 -34h-86h-260h-125q-8 0 -10 5t4 9q10 10 17.5 21.5t13.5 27.5h43h260h86q90 0 169 35t138 93.5t93 137.5t34 169v436zM524 1399q90 0 169 -34 t138.5 -93.5t93 -138t33.5 -168.5v-435q0 -90 -33.5 -168.5t-93 -138t-138.5 -94.5t-169 -35h-88h-260h-125q-6 0 -8 6t4 11q43 37 43 157v957q0 123 -43 157q-6 6 -4 11.5t8 5.5h39h434zM397 1296q-10 0 -16 -7t-6 -17t6 -17.5t16 -7.5t17.5 7.5t7.5 17.5t-7.5 17t-17.5 7z M221 190q23 0 23 23q0 25 -23 25q-25 0 -24 -25q-1 -23 24 -23zM221 373q23 0 23 22q0 25 -23 25q-25 0 -24 -25q-1 -22 24 -22zM221 547q23 0 23 22q0 25 -23 25q-25 0 -24 -25q-1 -22 24 -22zM221 723q23 0 23 22q0 25 -23 25q-25 0 -24 -25q-1 -22 24 -22zM221 901 q25 0 25 25q0 23 -25 22q-23 0 -22 -22q-1 -25 22 -25zM197 1100q0 -23 24 -23q23 0 23 23q0 25 -23 24q-24 1 -24 -24zM221 1253q25 0 25 25q0 10 -7.5 17.5t-17.5 7.5t-16 -7.5t-6 -17.5q-1 -25 22 -25zM375 184q23 0 22 23q0 25 -22 24q-23 0 -23 -24q0 -23 23 -23z M541 197q10 0 17 6t7 16t-7 17.5t-17 7.5t-17.5 -7.5t-7.5 -17.5t7.5 -16t17.5 -6zM846 528q25 0 24 23q0 25 -24 24q-23 0 -23 -24q0 -23 23 -23zM817 711q0 -10 6 -17.5t17 -7.5q10 0 17 7t7 18q0 25 -24 24q-23 1 -23 -24zM864 872q0 23 -22 23q-25 0 -25 -23 q0 -25 25 -24q22 -1 22 24zM817 1071q-23 0 -22 -24q0 -23 22 -23q25 0 25 23q0 24 -25 24zM803 426q-23 0 -23 -25q0 -23 23 -22q25 0 24 22q1 25 -24 25zM745 1221q-10 0 -17 -7.5t-7 -17.5t7 -17.5t17 -7.5t16.5 7.5t6.5 17.5t-6.5 17.5t-16.5 7.5zM721 260q0 10 -7 17.5 t-18 7.5q-10 0 -17 -7.5t-7 -17.5t7 -16t17 -6t17.5 6t7.5 16zM698 965q0 27 -10 57q-41 20 -82 20h-174v-348v-260v-78h92q72 0 123 51.5t51 122.5v435zM672 1057q-23 37 -62 59.5t-86 22.5h-174v-348v-261v-174h25v142v262v348h174q35 0 67.5 -14t55.5 -37zM590 1278 q-25 0 -25 -25q0 -23 25 -22q23 0 22 22q1 25 -22 25z" />
<glyph unicode="E" horiz-adv-x="1134" d="M1085 1276q8 0 9.5 -5t-2.5 -9q-43 -37 -43 -156v-86v-37q0 -6 -5.5 -8t-9.5 4q-35 41 -155 41h-424v-84v-78h174q119 0 155 43q4 4 9.5 3t5.5 -9v-37v-86v-170v-35q0 -8 -5.5 -10t-9.5 4q-35 41 -155 41h-256v-84v-170h24v139v86h254q119 0 156 -43q4 -6 10 -4t6 11v36 v170v37q27 12 41 27q4 6 9.5 4t5.5 -10v-35v-86v-170v-37q0 -8 -5.5 -9t-9.5 3q-37 43 -155 43h-254v-86v-76h344q119 0 155 41q4 6 9.5 5t5.5 -9v-37v-86q0 -121 41 -156q6 -4 5 -9t-9 -5h-926q-6 0 -8 5t4 9q41 37 41 156v86v850q0 170 -84 170h973q8 0 9 -5t-5 -9 q-41 -35 -41 -156v-84v-37q0 -8 -5.5 -10t-9.5 4q-37 43 -155 43h-426v-86v-170h24v139v86h426q119 0 154 -43q4 -4 10 -3t6 10v36v86q0 66 13 107h79zM868 1270q-10 0 -17 -7.5t-7 -17.5t7 -16t17 -6q23 0 23 22q0 10 -6.5 17.5t-16.5 7.5zM715 1270q-10 0 -16.5 -7.5 t-6.5 -17.5q0 -23 23 -22q10 0 17 6t7 16t-7 17.5t-17 7.5zM559 1270q-10 0 -17 -7.5t-7 -17.5q0 -23 24 -22q23 0 23 22q0 10 -6.5 17.5t-16.5 7.5zM399 1270q-10 0 -17 -7.5t-7 -17.5q0 -23 24 -22q23 0 23 22q0 10 -6.5 17.5t-16.5 7.5zM868 227q-23 0 -22 -24 q0 -23 22 -23q10 0 17.5 6.5t7.5 16.5t-7.5 17t-17.5 7zM705 227q-23 0 -23 -24q0 -23 23 -23t22 23q1 24 -22 24zM547 227q-23 0 -23 -24q0 -23 23 -23q25 0 24 23q1 24 -24 24zM707 750q-10 0 -17.5 -7.5t-7.5 -17.5q0 -23 25 -23q23 0 22 23q0 10 -6 17.5t-16 7.5z M549 750q-10 0 -16.5 -7.5t-6.5 -17.5q0 -23 23 -23t22 23q0 10 -6 17.5t-16 7.5zM238 180q23 0 22 23q0 25 -22 24q-25 0 -25 -24q0 -23 25 -23zM238 358q23 0 22 23q0 23 -22 22q-25 0 -25 -22q0 -23 25 -23zM238 528q23 0 22 25q0 23 -22 22q-25 0 -25 -22q0 -25 25 -25z M238 702q23 0 22 23q0 10 -6 17.5t-16 7.5t-17.5 -7.5t-7.5 -17.5q0 -23 25 -23zM238 877q10 0 17 7t7 17t-7 16.5t-17 6.5q-23 0 -23 -23q0 -24 23 -24zM213 1073q0 -25 25 -24q23 0 22 24q0 23 -22 23q-25 0 -25 -23zM238 1223q10 0 17 6t7 16t-7 17.5t-17 7.5t-16.5 -7.5 t-6.5 -17.5q0 -22 23 -22zM393 227q-23 0 -22 -24q0 -23 22 -23q10 0 17.5 6.5t7.5 16.5t-7.5 17t-17.5 7zM395 702q23 0 23 23q0 10 -6 17.5t-17 7.5q-10 0 -17 -7.5t-7 -17.5q-1 -23 24 -23zM1049 170q0 -123 43 -156q4 -4 3 -9t-10 -5h-923q-8 0 -9 5t3 9q18 16 28 47 h846q6 0 8 5.5t-2 9.5q-43 37 -43 155v39q14 4 23.5 11.5t17.5 15.5q4 6 9.5 4t5.5 -10v-37v-84z" />
<glyph unicode="F" horiz-adv-x="1079" d="M821 809q16 12 17 -6v-37v-84v-170v-37q0 -8 -5.5 -10t-11.5 4q-35 43 -153 43h-256v-86v-170v-86q0 -121 43 -154q6 -6 4 -11t-10 -5h-328q-8 0 -10 5t4 11q20 16 28 47h250q6 0 8 5.5t-4 9.5q-41 37 -41 155v86v170v84h254q119 0 156 -41q4 -6 9 -4t5 9v36v170v39 q31 11 41 27zM1044 1276q8 0 9.5 -5t-4.5 -9q-41 -35 -41 -156v-84v-37q0 -8 -5.5 -9t-9.5 3q-37 43 -155 43h-426v-162h176q119 0 153 41q4 6 10.5 4t6.5 -8v-37v-86v-170v-37q0 -8 -6.5 -9t-10.5 3q-35 43 -153 43h-256v-86v-170v-84q0 -121 41 -155q6 -4 4 -10.5t-8 -6.5 h-330q-6 0 -8 6t4 11q41 35 41 155v84v852q0 119 -41 156q-6 4 -4 9t8 5h924q8 0 10 -5t-4 -9q-41 -35 -41 -156v-86v-37q0 -6 -6.5 -8t-10.5 4q-35 41 -153 41h-426v-170v-84h24v55v170h424q121 0 156 -43q4 -6 10 -4t6 11v36v84q0 35 2 60.5t11 46.5h79zM819 1272 q-23 0 -22 -25q0 -23 22 -22q23 0 23 22q0 25 -23 25zM664 752q-25 0 -25 -23q0 -25 25 -24q23 0 22 24q1 23 -22 23zM506 752q-25 0 -25 -23q0 -25 25 -24q23 0 22 24q1 23 -22 23zM662 1272q-25 0 -25 -25q0 -23 25 -22q23 0 22 22q1 25 -22 25zM504 1272q-23 0 -23 -25 q0 -23 23 -22q10 0 17 6t7 16t-7 17.5t-17 7.5zM199 184q23 0 22 23q0 23 -22 22q-23 0 -23 -22q0 -23 23 -23zM199 362q23 0 22 23q0 23 -22 23q-23 0 -23 -23t23 -23zM199 532q23 0 22 23q0 23 -22 23q-23 0 -23 -23t23 -23zM199 705q23 0 22 24q0 23 -22 23 q-23 0 -23 -23q0 -24 23 -24zM201 881q23 0 22 22q0 23 -22 23q-23 0 -23 -23q0 -22 23 -22zM176 1075q0 -23 23 -22q23 0 22 22q0 23 -22 23q-23 0 -23 -23zM201 1225q23 0 22 22q0 25 -22 25q-23 0 -23 -25q0 -22 23 -22zM350 1272q-10 0 -17 -7.5t-7 -17.5t7 -16t17 -6 q23 0 23 22q0 25 -23 25zM352 711q23 0 23 22q0 25 -23 25q-25 0 -24 -25q-1 -22 24 -22z" />
<glyph unicode="G" horiz-adv-x="1083" d="M745 850q-6 0 -8 5t2 9q18 20 15 49h237q0 72 -21.5 135.5t-60.5 116.5q63 -59 100.5 -140t37.5 -175h-254h-48zM537 0q-104 0 -193.5 47t-148.5 127q57 -53 129.5 -83t156.5 -30h84q88 0 166 34t135.5 92.5t91 135t33.5 164.5v193h8h48v-254q0 -88 -33 -166t-90.5 -135 t-135 -91t-165.5 -34h-86zM457 92q-88 0 -166 34t-135.5 92t-91 135t-33.5 165v426q0 88 33.5 166t91 135.5t135.5 91t166 33.5h86q88 0 164.5 -33.5t134 -91t91.5 -135.5t34 -166h-254h-47q-16 0 -7 14q18 23 15 56q-12 4 -24.5 6t-26.5 2h-86q-35 0 -66 -13.5t-54.5 -37 t-36.5 -54t-13 -67.5v-78q2 0 4 2h37h510h49v-256q0 -88 -34 -165t-91.5 -135t-134 -92t-164.5 -34h-86zM803 1092q-10 0 -17.5 -7.5t-7.5 -17.5t7.5 -16.5t17.5 -6.5q23 0 22 23q1 25 -22 25zM616 188q23 0 23 25q0 23 -23 23t-22 -23q-1 -25 22 -25zM846 668 q-23 0 -23 -25q0 -23 23 -22q10 0 17 6t7 16t-7 17.5t-17 7.5zM821 489q-23 0 -22 -22q0 -23 22 -23q10 0 17.5 6.5t7.5 16.5t-7.5 16t-17.5 6zM768 330q-10 0 -16.5 -7.5t-6.5 -17.5q0 -23 23 -22q23 0 23 22q0 10 -6.5 17.5t-16.5 7.5zM688 668q-25 0 -24 -25 q0 -23 24 -22q23 0 23 22q0 25 -23 25zM522 668q-25 0 -24 -25q0 -23 24 -22q23 0 23 22q0 25 -23 25zM688 1217q-25 0 -24 -23q0 -23 24 -23q23 0 23 23t-23 23zM522 1264q-23 0 -22 -25q0 -23 22 -22q23 0 23 22q0 25 -23 25zM352 1235q-23 0 -22 -25q0 -23 22 -22 q25 0 25 22q0 25 -25 25zM176 393q23 0 23 23t-23 22q-25 0 -24 -22q-1 -23 24 -23zM176 567q23 0 23 23q0 10 -6.5 17t-16.5 7t-17 -7t-7 -17q-1 -23 24 -23zM176 739q23 0 23 23q0 10 -6.5 17t-16.5 7t-17 -7t-7 -17q-1 -23 24 -23zM176 909q23 0 23 25q0 23 -23 22 q-25 0 -24 -22q-1 -25 24 -25zM213 1079q23 0 23 23t-23 22q-25 0 -25 -22q0 -23 25 -23zM283 242q10 0 16 7t6 17q0 23 -22 23q-10 0 -17.5 -6.5t-7.5 -16.5t7.5 -17t17.5 -7zM336 397q-25 39 -25 90v170v86v170q0 72 49.5 121t120.5 49h84q43 0 82 -20q8 -4 10 -6 q0 4 -2 4q-12 20 -32 33q-39 20 -80 20h-86q-72 0 -121 -49t-49 -121v-170v-86v-170q0 -72 49 -121zM367 426q0 -27 10 -57q41 -20 80 -21h86q41 0 80 21q18 10 34.5 24.5t26.5 32.5h-27h-170v61h115h68h39q4 20 4 31h-68h-67h-170v86q0 117 -41 154v-78v-84v-170zM428 213 q0 -25 23 -25q25 0 24 25q0 23 -24 23q-23 0 -23 -23z" />
<glyph unicode="H" horiz-adv-x="1107" d="M961 1169q0 66 12 109h80q8 0 10 -5t-4 -11q-43 -35 -43 -156v-936q0 -121 43 -154q6 -6 4 -11t-10 -5h-328q-8 0 -10 5t4 11q18 16 29 47h247q10 0 11.5 5.5t-5.5 9.5q-41 35 -40 155v936zM463 16q6 -6 4 -11t-10 -5h-328q-8 0 -10 5t4 11q18 16 29 47h249q8 0 9.5 5.5 t-4.5 9.5q-41 37 -41 155v256v84h315v31h-340v-84v-256q0 -119 41 -155q6 -4 5 -9.5t-9 -5.5h-328q-8 0 -10 5t4 10q41 37 41 155v86v850q0 119 -41 156q-6 4 -4 9t10 5h328q8 0 9 -5t-5 -9q-41 -37 -41 -156v-170v-170h25v139v170q0 66 12 109h80q8 0 10 -5t-4 -11 q-43 -35 -43 -156v-170v-76h260v170v170q0 119 -41 156q-6 4 -5 9t9 5h330q8 0 9 -5t-5 -9q-41 -37 -41 -156v-936q0 -119 41 -155q6 -4 5 -9.5t-9 -5.5h-330q-8 0 -9 5t5 10q41 37 41 155v248h-260v-86v-256q0 -121 43 -154zM813 760q-23 0 -22 -23q0 -25 22 -24 q10 0 17.5 7t7.5 17t-7.5 16.5t-17.5 6.5zM784 922q0 -10 7.5 -16.5t17.5 -6.5q23 0 22 23q0 25 -22 24q-10 0 -17.5 -7t-7.5 -17zM809 1292q-10 0 -17.5 -7t-7.5 -17t7.5 -16.5t17.5 -6.5q23 0 22 23q0 10 -6 17t-16 7zM807 1118q-23 0 -23 -24q0 -23 23 -23q10 0 17 6 t7 17q0 10 -7 17t-17 7zM807 598q-23 0 -23 -23q0 -25 23 -24q10 0 17 7t7 17t-7 16.5t-17 6.5zM807 428q-10 0 -16.5 -7t-6.5 -18q0 -23 23 -22q10 0 17 6t7 16t-7 17.5t-17 7.5zM807 250q-10 0 -16.5 -7t-6.5 -18q0 -23 23 -22q10 0 17 6t7 16t-7 17.5t-17 7.5zM209 180 q23 0 22 23q0 23 -22 22q-25 0 -25 -22q0 -23 25 -23zM209 356q10 0 16 7.5t6 17.5q0 23 -22 22q-25 0 -25 -22q0 -10 7.5 -17.5t17.5 -7.5zM209 528q23 0 22 23q0 25 -22 24q-25 0 -25 -24q0 -23 25 -23zM209 700q10 0 16 7.5t6 17.5q0 23 -22 23q-25 0 -25 -23 q0 -10 7.5 -17.5t17.5 -7.5zM209 877q10 0 17 6t7 16t-7 16.5t-17 6.5q-23 0 -23 -23q0 -22 23 -22zM184 1071q0 -23 25 -22q23 0 22 22q0 23 -22 23q-25 0 -25 -23zM209 1221q10 0 17 7t7 17t-7 16.5t-17 6.5q-23 0 -23 -23q0 -24 23 -24zM406 707q23 0 22 22q0 10 -6 17.5 t-16 7.5t-17.5 -7.5t-7.5 -17.5t7.5 -16t17.5 -6zM598 707q23 0 23 22q0 10 -6.5 17.5t-16.5 7.5t-17.5 -7.5t-7.5 -17.5t7.5 -16t17.5 -6z" />
<glyph unicode="I" horiz-adv-x="518" d="M410 66q8 0 9 5t-3 9q-43 37 -43 160v86v346v276v158v88q0 68 12 109h45h37q8 0 10 -5.5t-4 -9.5q-43 -37 -43 -158v-88v-157v-277v-348v-86q0 -121 43 -158q6 -4 4 -10t-10 -6h-336q-8 0 -9 6t3 10q10 8 17.5 20.5t13.5 29.5h254zM43 111q43 37 43 159v955 q0 123 -43 159q-6 4 -4 9.5t10 5.5h211h88h37q8 0 9 -5t-3 -10q-43 -35 -43 -159v-86v-160v-277v-346v-86q0 -125 43 -159q4 -4 3 -9.5t-9 -5.5h-336q-8 0 -10 5.5t4 9.5zM219 1311q-10 0 -17 -7.5t-7 -17.5t7 -17t17 -7t16.5 7t6.5 17t-6.5 17.5t-16.5 7.5zM217 1133 q-25 0 -24 -25q0 -23 24 -23q23 0 23 23q0 25 -23 25zM242 934q0 23 -23 22q-25 0 -24 -22q0 -25 24 -25q23 0 23 25zM217 778q-25 0 -24 -22q0 -25 24 -25q23 0 23 25q0 22 -23 22zM217 602q-25 0 -24 -24q0 -23 24 -23q23 0 23 23q0 24 -23 24zM217 428q-25 0 -24 -25 q0 -23 24 -22q23 0 23 22q0 25 -23 25zM217 246q-25 0 -24 -25q0 -23 24 -22q23 0 23 22q0 25 -23 25z" />
<glyph unicode="J" horiz-adv-x="1067" d="M1040 1274q6 0 8.5 -4t-4.5 -10q-41 -35 -40 -156v-680q0 -88 -34 -165t-92.5 -134t-135 -91t-164.5 -34q-106 0 -195.5 47t-149.5 125q57 -51 130 -81t157 -30q88 0 166 34t135.5 91.5t91 135t33.5 165.5v680q0 72 15 107h79zM369 674q-41 -35 -41 -156q0 -76 49 -121 q-27 39 -27 90q0 70 15 107h43h36q8 0 9.5 -5t-4.5 -9q-41 -35 -41 -156q0 -27 10 -57q18 -10 37.5 -15.5t42.5 -5.5q70 0 120 50t50 122v170v254v78h-346q-119 0 -154 -41q-6 -6 -11 -5t-5 9v37v47q45 16 114 16h402v31h-426q-117 0 -156 -43q-4 -6 -9 -4t-5 10v37v84 q0 119 -43 156q-6 4 -4 9t10 5h37h886q8 0 10.5 -5t-3.5 -9q-43 -37 -43 -156v-680q0 -88 -34 -166t-91.5 -135t-134 -91t-164.5 -34t-166 34t-135.5 91t-91 135t-33.5 166q0 119 -43 156q-6 4 -4 9t10 5h37h256h34q8 0 10.5 -5t-3.5 -9zM190 1227q4 8 2 17t-10 13 q-23 14 -32 -8q-4 -8 -2 -17t10 -13q22 -12 32 8zM342 1227q4 8 2 17t-10 13q-18 12 -33 -8q-4 -8 -2 -17t10 -13q23 -12 33 8zM498 1233q8 20 -11 31q-8 4 -17 3t-13 -12q-4 -8 -2 -17t10 -13q19 -12 33 8zM657 1227q4 8 2 17t-10 13q-23 14 -33 -8q-4 -8 -2 -17t11 -13 q8 -4 18 -3t14 11zM795 1042q23 0 22 23q0 23 -22 22q-25 0 -25 -22q0 -23 25 -23zM772 1249q-8 -20 10 -30q8 -4 17.5 -3t13.5 11q4 8 2 17t-10 13q-19 12 -33 -8zM793 915q-10 0 -16.5 -7t-6.5 -17q0 -23 23 -23t22 23q0 10 -6 17t-16 7zM817 719q0 25 -22 24 q-25 0 -25 -24q0 -23 25 -23q22 0 22 23zM793 569q-10 0 -16.5 -7t-6.5 -17q0 -23 23 -23t22 23q0 10 -6 17t-16 7zM770 395q-23 0 -22 -24q0 -23 22 -23q23 0 23 23q0 24 -23 24zM653 270q-23 0 -22 -22q0 -23 22 -23q23 0 23 23q0 22 -23 22zM500 236q-25 0 -25 -23 t25 -23q23 0 22 23q1 23 -22 23zM180 578q0 -10 7.5 -16.5t17.5 -6.5q23 0 22 23q0 25 -22 24q-10 0 -17.5 -7t-7.5 -17zM217 393q23 0 23 25q0 23 -23 22q-25 0 -24 -22q-1 -25 24 -25zM336 297q-10 0 -17.5 -7t-7.5 -18q0 -10 7.5 -16t17.5 -6q23 0 22 22q1 25 -22 25z " />
<glyph unicode="K" horiz-adv-x="1024" d="M1004 1276q8 0 9 -5t-5 -9q-41 -35 -41 -156v-43q0 -109 -45 -208t-127 -173q-2 4 -11 12q49 -66 75 -142.5t26 -160.5v-41v-86q0 -119 43 -155q6 -4 4 -9.5t-10 -5.5h-328q-8 0 -10 5t4 10q43 37 43 155v86v41q0 61 -29 115q-63 47 -145 47h-43v-127v-170v-86 q0 -121 41 -156q6 -4 4 -9t-10 -5h-35h-86h-207q-8 0 -9 5t3 9q10 8 17 20.5t13 28.5h125h86h37q8 0 9 5.5t-3 9.5q-43 37 -43 155v84v170v129h43q55 0 103.5 -21.5t83.5 -59.5q-35 51 -90.5 81.5t-120.5 30.5h-43v-127v-170v-86q0 -119 43 -155q4 -4 3 -9.5t-9 -5.5h-37 h-86h-205q-8 0 -10 5t4 10q41 35 41 155v936q0 121 -41 154q-6 6 -4 11t10 5h328q18 0 6 -16q-43 -35 -43 -154v-98v-201h24v170v98q0 66 13 107h80q8 0 10 -5t-4 -9q-41 -35 -41 -156v-96v-105q92 14 154.5 84t62.5 168v43q0 119 -43 154q-6 6 -4 11t10 5h328q8 0 10 -5 t-4 -11q-43 -35 -43 -154v-43q0 -111 -45 -211t-127 -172q8 -6 14 -13t14 -13q80 72 124 171t44 207v43q0 66 13 107h82zM766 1278q-23 0 -23 -23t23 -22q23 0 22 22q1 23 -22 23zM745 1108q-23 0 -22 -23q0 -23 22 -22q25 0 25 22q0 23 -25 23zM205 184q23 0 22 23 q0 10 -6 17t-16 7t-17.5 -7t-7.5 -17q0 -23 25 -23zM205 362q23 0 22 23q0 23 -22 23q-25 0 -25 -23t25 -23zM205 532q23 0 22 25q0 23 -22 23q-25 0 -25 -23q0 -25 25 -25zM205 707q23 0 22 22q0 10 -6 17.5t-16 7.5t-17.5 -7.5t-7.5 -17.5q0 -22 25 -22zM207 881 q23 0 22 22q0 25 -22 25q-25 0 -25 -25q0 -22 25 -22zM180 1075q0 -23 25 -22q23 0 22 22q0 10 -6 17.5t-16 7.5t-17.5 -7.5t-7.5 -17.5zM207 1227q23 0 22 22q0 23 -22 23q-25 0 -25 -23q0 -22 25 -22zM358 754q20 0 21 22q0 23 -21 23q-25 0 -24 -23q-1 -22 24 -22z M541 760q23 0 22 22q0 10 -6 17.5t-16 7.5t-17.5 -7t-7.5 -18q0 -22 25 -22zM647 641q23 0 23 23q0 25 -23 24q-23 0 -22 -24q-1 -23 22 -23zM670 893q23 0 22 22q0 10 -6 17.5t-16 7.5t-16.5 -7t-6.5 -18q0 -22 23 -22zM707 520q0 -25 22 -24q23 0 23 24q0 23 -23 23 q-22 0 -22 -23zM754 160q10 0 16 7t6 17q0 23 -22 23q-10 0 -17.5 -6t-7.5 -17q0 -10 7.5 -17t17.5 -7zM795 350q0 23 -25 23q-23 0 -22 -23q0 -25 22 -24q25 -1 25 24zM967 170q0 -121 41 -156q6 -4 5 -9t-9 -5h-330q-8 0 -9 5t3 9q10 8 17 20.5t13 28.5h248q8 0 9 5.5 t-3 9.5q-43 37 -43 155v84v43q0 174 -104 310q78 -72 120 -169.5t42 -203.5v-41v-86z" />
<glyph unicode="L" horiz-adv-x="911" d="M854 174q0 -123 43 -160q4 -4 3 -9t-9 -5h-37h-733h-2q-6 0 -7 5t3 9q10 10 17 21.5t13 27.5h652h37q8 0 9 6.5t-3 10.5q-43 35 -43 158v38q14 4 23 11.5t18 15.5q4 6 10 4t6 -8v-39v-86zM770 356v-88q0 -121 43 -157q6 -4 5 -10.5t-11 -6.5h-37h-731h-2q-6 2 -8 7t4 10 q43 37 43 157v88v869q0 123 -43 157q-6 4 -4 10.5t10 6.5h336q6 0 8 -6.5t-4 -10.5q-43 -35 -43 -157v-174v-174v-261v-86v-174h24v142v88v260v174v174q0 72 15 109h82q8 0 9 -5.5t-5 -9.5q-43 -39 -43 -158v-174v-174v-262v-86v-78h178q123 0 160 43q4 4 9 3t5 -9v-37z M209 184q25 0 24 23q0 25 -24 24q-23 0 -23 -24q0 -23 23 -23zM209 365q10 0 17 7t7 17t-7 17.5t-17 7.5t-16.5 -7.5t-6.5 -17.5t6.5 -17t16.5 -7zM209 539q10 0 17 7t7 17t-7 17.5t-17 7.5t-16.5 -7.5t-6.5 -17.5t6.5 -17t16.5 -7zM209 717q25 0 24 22q0 25 -24 25 q-23 0 -23 -25q0 -22 23 -22zM211 895q23 0 22 25q0 23 -22 22q-25 0 -25 -22q0 -25 25 -25zM186 1094q0 -23 23 -23q25 0 24 23q0 25 -24 24q-23 1 -23 -24zM211 1247q23 0 22 23q0 25 -22 24q-25 0 -25 -24q0 -23 25 -23zM422 184q25 0 24 23q0 25 -24 24q-23 0 -23 -24 q0 -23 23 -23zM631 184q25 0 24 23q0 25 -24 24q-23 0 -23 -24q0 -23 23 -23z" />
<glyph unicode="M" horiz-adv-x="1361" d="M1333 14q6 -4 4 -9t-10 -5h-336q-8 0 -9 5t3 9q23 23 31 49h254q8 0 10 5.5t-6 11.5q-43 37 -43 158v86v348v276v72v86v88q0 35 4 61.5t10 47.5h82q8 0 10 -5.5t-4 -9.5q-43 -37 -43 -160v-86v-88v-69v-277v-348v-86q0 -123 43 -160zM903 1384q-6 4 -4 9.5t10 5.5h211 h125q6 0 8 -5t-4 -10q-41 -35 -41 -159v-86v-88v-72v-277v-346v-86q0 -125 41 -159q6 -4 4 -9.5t-8 -5.5h-336q-8 0 -10 5t4 10q43 37 43 159v41l-67 -166q-37 -88 -15 -133q2 -12 -8 -12h-260q-14 0 -8 12q10 25 8 51h203q12 0 6 13q-20 43 16 133l125 305v92l-149 -366 q-35 -86 -17 -131q6 -12 -8 -13h-258q-14 0 -8 13q23 43 -14 131l-72 172v-187v-2v-49q0 -121 43 -160q6 -4 5 -9t-9 -5h-336q-8 0 -9 5t3 9q10 10 17 21.5t13 27.5h254q20 0 5 17q-43 33 -44 158v49v2v262l-24 59v-288v-5v-47q0 -123 43 -159q6 -4 4 -9.5t-10 -5.5h-334 q-8 0 -10 5t4 10q43 37 43 159v955q0 123 -43 159q-6 4 -4 9.5t10 5.5h211h123q8 0 10 -5t-4 -10q-23 -18 -35 -67q-6 -25 4 -53l293 -707l6 14l-272 662q-12 27 -6 51q2 6 3 10t3 9h82q8 0 9 -5.5t-5 -9.5q-25 -25 -33 -67q-8 -27 4 -52l230 -559l270 654q10 29 4 53 q-8 44 -35 67zM201 199q10 0 17 7t7 17t-7 16.5t-17 6.5t-17.5 -6.5t-7.5 -16.5t7.5 -17t17.5 -7zM201 381q10 0 17 6t7 16t-7 17.5t-17 7.5t-17.5 -7t-7.5 -18q0 -10 7.5 -16t17.5 -6zM201 555q10 0 17 7t7 18q0 10 -7 16t-17 6t-17.5 -6t-7.5 -16t7.5 -17.5t17.5 -7.5z M201 731q10 0 17 7t7 18q0 10 -7 16t-17 6t-17.5 -6t-7.5 -16t7.5 -17.5t17.5 -7.5zM203 911q23 0 22 23q0 23 -22 22q-25 0 -25 -22q0 -23 25 -23zM176 1110q0 -10 7 -17.5t18 -7.5q10 0 17 7.5t7 17.5t-7 16.5t-17 6.5t-17.5 -6.5t-7.5 -16.5zM203 1262q10 0 16 7t6 17 t-6 17.5t-16 7.5t-17.5 -7.5t-7.5 -17.5t7.5 -17t17.5 -7zM303 1034q25 0 25 25q0 10 -7.5 17t-17.5 7t-16 -7t-6 -17q-1 -25 22 -25zM358 870q10 0 17.5 6.5t7.5 16.5t-7 17.5t-18 7.5q-25 0 -24 -25q-1 -23 24 -23zM418 709q25 0 24 24q0 23 -24 23q-23 0 -23 -23 q0 -24 23 -24zM492 547q23 0 22 22q0 25 -22 25q-25 0 -25 -25q0 -22 25 -22zM563 387q23 0 23 23q0 25 -23 24q-25 0 -24 -24q-1 -23 24 -23zM635 223q25 0 24 23q0 10 -7 17t-17 7t-16.5 -7t-6.5 -17q0 -23 23 -23zM715 389q23 0 22 23q0 25 -22 24q-23 0 -23 -24 q0 -23 23 -23zM784 547q10 0 16.5 7t6.5 17t-6 17.5t-17 7.5q-10 0 -16 -7t-6 -18q0 -10 6 -17t16 -7zM854 711q10 0 17.5 6t7.5 16t-7.5 17.5t-17.5 7.5q-23 0 -23 -25q0 -22 23 -22zM1087 1309q-10 0 -17 -6.5t-7 -16.5t7 -17t17 -7t17.5 7t7.5 17t-7.5 16.5t-17.5 6.5z M1085 1133q-23 0 -22 -25q0 -10 6 -17.5t16 -7.5t17.5 7.5t7.5 17.5t-7.5 17.5t-17.5 7.5zM1112 932q0 10 -7 17t-18 7q-10 0 -17 -7t-7 -17t7 -16.5t17 -6.5t17.5 6.5t7.5 16.5zM1085 778q-23 0 -22 -22q0 -25 22 -25q10 0 17.5 7t7.5 18q0 10 -7.5 16t-17.5 6zM1085 602 q-10 0 -16 -7t-6 -17t6 -17.5t16 -7.5t17.5 7t7.5 18q0 10 -7.5 17t-17.5 7zM1085 428q-10 0 -16 -7t-6 -18q0 -10 6 -17t16 -7t17.5 7t7.5 17t-7.5 17.5t-17.5 7.5zM1085 246q-23 0 -22 -25q0 -23 22 -22q10 0 17.5 6t7.5 16t-7.5 17.5t-17.5 7.5zM995 1085q-25 0 -24 -22 q0 -25 24 -25q23 0 23 25q0 22 -23 22zM948 907q0 23 -22 23q-10 0 -17.5 -6t-7.5 -17q0 -10 7 -17t18 -7q22 -1 22 24z" />
<glyph unicode="N" horiz-adv-x="1101" d="M1059 1262q-41 -33 -41 -156v-936q0 -121 41 -156q6 -4 4 -9t-10 -5h-328q-8 0 -9 5t3 9q20 20 29 49h249q6 0 8.5 5.5t-4.5 9.5q-41 37 -40 155v936q0 66 12 107h80q8 0 10 -5t-4 -9zM84 348v852q0 121 -41 156q-6 4 -4 9t8 5h330q8 0 9 -5t-3 -9q-27 -27 -35 -74 q-10 -39 -3 -68.5t30 -62.5l305 -428v4l-281 393q-23 33 -28.5 63.5t0.5 69.5q4 16 6 23h80q8 0 10 -5t-4 -9q-25 -23 -35 -72q-14 -72 29 -133l223 -314v115v170v172q0 119 -43 156q-4 4 -2 9t8 5h330q8 0 9 -5t-3 -9q-43 -37 -43 -156v-936q0 -123 43 -155q4 -4 3 -10.5 t-9 -6.5h-330q-6 0 -8 6t2 11q35 29 41 110q6 63 -31 113l-225 315v-137v-84v-256q0 -121 41 -156q6 -4 4 -9t-10 -5h-328q-8 0 -9 5t3 9q18 16 31 49h247q8 0 9.5 5.5t-4.5 9.5q-41 37 -41 155v256v84v154l-25 33v-156v-86v-254q0 -123 43 -155q4 -4 3 -10.5t-9 -6.5h-330 q-6 0 -8 6t4 11q41 33 41 155v84zM813 1286q-23 0 -22 -24q0 -23 22 -23q23 0 23 23q0 24 -23 24zM811 1112q-23 0 -23 -25q0 -23 23 -22q25 0 25 22q0 25 -25 25zM836 918q0 23 -23 22q-23 0 -22 -22q0 -23 22 -23q23 0 23 23zM811 766q-23 0 -23 -25q0 -23 23 -22 q25 0 25 22q0 25 -25 25zM811 592q-23 0 -23 -23t23 -22q25 0 25 22q0 23 -25 23zM811 422q-23 0 -23 -25q0 -23 23 -22q25 0 25 22q0 25 -25 25zM811 244q-23 0 -23 -23q0 -25 23 -24q25 0 25 24q0 23 -25 23zM713 451q-18 -18 0 -35q2 -6 12 -6l-2 47q-8 -4 -10 -6z M616 616q-25 0 -24 -24q0 -23 24 -23q23 0 23 23q0 24 -23 24zM516 766q-23 0 -22 -25q0 -23 22 -22q25 0 25 22q0 25 -25 25zM412 899q-10 0 -17.5 -6t-7.5 -16t7 -16.5t18 -6.5q23 0 22 23q1 22 -22 22zM328 1034q-6 6 -15 6l4 -47q8 4 11 6q6 8 6 18.5t-6 16.5zM215 1272 q-23 0 -22 -23q0 -23 22 -22q23 0 23 22q0 23 -23 23zM213 1100q-10 0 -16.5 -7.5t-6.5 -17.5q0 -23 23 -22q25 0 25 22q0 10 -7.5 17.5t-17.5 7.5zM238 903q0 25 -23 25t-22 -25q0 -23 22 -22q23 -1 23 22zM213 754q-10 0 -16.5 -7.5t-6.5 -17.5q0 -23 23 -22q25 0 25 22 q0 10 -7.5 17.5t-17.5 7.5zM213 580q-23 0 -23 -25q0 -23 23 -23q25 0 25 23q0 25 -25 25zM213 410q-10 0 -16.5 -7.5t-6.5 -17.5q0 -23 23 -23q25 0 25 23q0 10 -7.5 17.5t-17.5 7.5zM213 231q-23 0 -23 -24q0 -23 23 -23q25 0 25 23q0 24 -25 24z" />
<glyph unicode="O" horiz-adv-x="1157" d="M1030 932q0 72 -21.5 138.5t-60.5 119.5q66 -59 104 -142t38 -180v-434q0 -90 -34 -169t-93.5 -138t-139.5 -93t-170 -34h-86q-109 0 -200 48t-150 128q59 -53 133 -83t160 -30h86q90 0 170 34t138.5 93.5t92 138.5t33.5 169v434zM485 94q-90 0 -169.5 34t-139 93.5 t-93.5 138t-34 168.5v437q0 88 34 166.5t93.5 138t139 93.5t169.5 34h86q90 0 169 -34t138.5 -93.5t93.5 -138t34 -166.5v-437q0 -90 -34 -168.5t-93.5 -138t-138 -93.5t-169.5 -34h-86zM403 221q23 0 23 23q0 25 -23 24q-25 0 -24 -24q-1 -23 24 -23zM571 203q23 0 23 24 q0 10 -6 17.5t-17 7.5q-10 0 -17 -7t-7 -18q-1 -24 24 -24zM877 537q25 0 24 22q0 23 -24 23q-23 0 -23 -23q0 -22 23 -22zM848 719q0 -10 7 -17.5t17 -7.5t16.5 7.5t6.5 17.5q0 25 -23 24q-24 1 -24 -24zM897 879q0 10 -7 17t-18 7q-25 0 -24 -24q0 -23 24 -23 q10 0 17.5 6.5t7.5 16.5zM848 1079q-10 0 -16.5 -7t-6.5 -17q0 -25 23 -25q25 0 24 25q0 10 -7 17t-17 7zM836 434q-25 0 -25 -24q0 -23 25 -23q23 0 22 23q1 24 -22 24zM776 1227q-25 0 -24 -23q0 -25 24 -24q10 0 17.5 7t7.5 17t-7.5 16.5t-17.5 6.5zM727 244q25 0 25 24 q0 23 -25 23q-23 0 -22 -23q-1 -24 22 -24zM745 965q0 27 -10 57q-41 20 -82 20h-86q-72 0 -123 -51t-51 -123v-174v-86v-174q0 -29 10 -59q41 -20 82 -21h86q72 0 123 51.5t51 122.5v174v89v174zM621 1286q-10 0 -17.5 -7t-7.5 -17t7 -17.5t18 -7.5q10 0 17 7t7 18 q0 10 -7 17t-17 7zM426 1296q-23 0 -23 -24q0 -23 23 -23q25 0 25 23q0 24 -25 24zM311 528q0 -35 14.5 -67.5t36.5 -54.5q-27 43 -26 92v174v86v174q0 72 51 123t123 51h86q74 0 123 -49q-23 35 -62 57.5t-86 22.5h-86q-37 0 -68.5 -13.5t-55 -37t-37 -55.5t-13.5 -66v-174 v-89v-174zM274 1219q-23 0 -22 -23q0 -25 22 -25q25 0 25 25q0 23 -25 23zM252 365q-25 0 -25 -25q0 -23 25 -23q23 0 22 23q1 25 -22 25zM203 1053q-10 0 -17.5 -7.5t-7.5 -17.5t7.5 -17t17.5 -7t16 7t6 17t-6 17.5t-16 7.5zM190 866q-10 0 -17 -6t-7 -16t7 -17.5t17 -7.5 t17.5 7.5t7.5 17.5t-7.5 16t-17.5 6zM184 700q-23 0 -22 -22q0 -25 22 -25q25 0 25 25q0 22 -25 22zM166 500q0 -10 7 -17.5t17 -7.5t17.5 7t7.5 18q0 10 -7 16t-18 6q-10 0 -17 -6t-7 -16z" />
<glyph unicode="P" horiz-adv-x="1058" d="M432 434v-260q0 -123 43 -160q4 -4 3 -9t-9 -5h-125h-211q-8 0 -10 5t6 9q20 20 29 49h129h125q18 0 6 17q-45 37 -45 158v260h174q88 0 155.5 25.5t133.5 82.5q70 61 104.5 137t40.5 155t-16.5 154.5t-67.5 139.5q66 -59 103.5 -142t39.5 -172.5t-32.5 -177.5 t-114.5 -157q-66 -57 -133.5 -83t-155.5 -26h-172zM45 111q43 33 43 157v957q0 123 -43 157q-4 4 -3 10.5t9 6.5h211h260q100 0 181 -38t138.5 -100.5t87 -143.5t28.5 -166t-36.5 -167t-111.5 -147q-66 -57 -133.5 -82t-153.5 -25h-174v-262q0 -121 43 -157q6 -4 5 -10.5 t-11 -6.5h-123h-211q-8 0 -9 6.5t3 10.5zM399 645q10 0 17.5 6t7.5 17q0 10 -7 16t-18 6q-25 0 -24 -22q-1 -23 24 -23zM602 645q23 0 23 23t-23 22q-25 0 -24 -22q-1 -23 24 -23zM768 782q10 0 16.5 7.5t6.5 17.5q0 23 -23 22q-25 0 -25 -22q0 -10 7.5 -17.5t17.5 -7.5z M805 1022q-25 0 -25 -23q0 -25 25 -24q23 0 22 24q1 23 -22 23zM743 1198q-23 0 -22 -24q0 -10 6 -17.5t16 -7.5t17.5 7t7.5 18q0 24 -25 24zM696 965q0 27 -10 57q-41 20 -82 20h-172v-251h90q72 0 123 51t51 123zM584 1288q-23 0 -23 -24q0 -23 23 -23q25 0 24 23 q1 24 -24 24zM399 1305q-25 0 -24 -23q0 -25 24 -25q10 0 17.5 7.5t7.5 17.5t-7.5 16.5t-17.5 6.5zM348 791h25v315h174q76 0 123 -51q-23 39 -62 60.5t-86 21.5h-174v-346zM223 1305q-10 0 -17 -6.5t-7 -16.5t7 -17.5t17 -7.5t17.5 7.5t7.5 17.5t-7.5 16.5t-17.5 6.5z M221 1128q-10 0 -17 -7t-7 -17t7 -16.5t17 -6.5t17.5 6.5t7.5 16.5t-7.5 17t-17.5 7zM248 928q0 10 -7.5 17t-17.5 7t-17 -7t-7 -17t7 -16.5t17 -6.5t17.5 6.5t7.5 16.5zM221 774q-10 0 -17 -7t-7 -17t7 -16.5t17 -6.5t17.5 6t7.5 17q0 10 -7.5 17t-17.5 7zM221 598 q-10 0 -17 -7t-7 -18q0 -10 7 -16t17 -6t17.5 6t7.5 16t-7.5 17.5t-17.5 7.5zM221 422q-10 0 -17 -6t-7 -17q0 -10 7 -17t17 -7t17.5 7t7.5 17t-7.5 16.5t-17.5 6.5zM221 242q-10 0 -17 -7.5t-7 -17.5t7 -16t17 -6t17.5 6t7.5 16t-7.5 17.5t-17.5 7.5z" />
<glyph unicode="Q" horiz-adv-x="1087" d="M915 1165q63 -59 100.5 -139t37.5 -174v-426q0 -88 -34 -168t-97 -139q4 -4 12 -8q6 -4 5 -10.5t-9 -6.5h-297l-6 8l-11 13l-163 235l-80 111v-35v-10q2 -12 4 -24.5t6 -22.5q6 -4 18 -9l189 -264q-10 -2 -21.5 -2h-21.5h-86q-88 0 -165 34t-134.5 91t-91 135t-33.5 166 v424q0 88 33.5 166t91 135.5t134.5 91t165 33.5h86q88 0 166 -33.5t135 -91t91 -135.5t34 -166v-424q0 -90 -36 -172t-101 -141q10 -10 17 -20.5t15 -18.5l-8 8q66 61 101.5 142t35.5 171v426q0 72 -21.5 134.5t-60.5 115.5zM866 858q0 23 -22 23q-25 0 -25 -23 q0 -25 25 -24q22 -1 22 24zM866 700q0 23 -24 23q-23 0 -23 -23q0 -10 6 -17t17 -7q10 0 17 7t7 17zM819 1053q-23 0 -22 -23q0 -25 22 -24q25 0 25 24q0 23 -25 23zM596 1255q-23 0 -23 -24q0 -23 23 -23q10 0 17.5 6.5t7.5 16.5t-7.5 17t-17.5 7zM408 1266 q-10 0 -17.5 -6.5t-7.5 -16.5t7 -17t18 -7q23 0 22 24q1 23 -22 23zM176 461q23 0 23 22q0 25 -23 25q-10 0 -17 -7t-7 -18q0 -10 7 -16t17 -6zM147 659q0 -23 23 -22q23 0 23 22q0 10 -6.5 17.5t-16.5 7.5t-16.5 -7.5t-6.5 -17.5zM176 799q23 0 23 22q0 23 -23 23 q-10 0 -17 -6.5t-7 -16.5t7 -16t17 -6zM188 979q10 0 16.5 7t6.5 18q0 23 -23 22q-23 0 -22 -22q0 -10 6 -17.5t16 -7.5zM236 305q10 0 16 7t6 18q0 23 -22 22q-10 0 -17.5 -6t-7.5 -16t7.5 -17.5t17.5 -7.5zM258 1145q23 0 23 22q0 23 -23 23t-22 -23q-1 -22 22 -22z M383 258q-23 0 -23 -22q0 -23 23 -23q10 0 17.5 6t7.5 17q0 10 -7.5 16t-17.5 6zM317 915q0 70 49.5 120t120.5 50h84q35 0 66 -14t53 -37q-23 37 -59.5 58.5t-83.5 21.5h-86q-70 0 -120 -49t-50 -121v-170v-84v-170q0 -6 2 -10q2 -66 49 -111q-20 33 -25 80v10v170v86v170z M539 399q10 0 17 6.5t7 16.5t-7 16t-17 6q-23 0 -23 -22q0 -23 23 -23zM621 287q25 0 24 22q0 25 -24 25q-23 0 -23 -25q0 -22 23 -22zM666 498q-10 -35 6 -60l12 -18q33 45 33 100v170v84v170q0 27 -10 57q-33 20 -80 21h-84q-72 0 -121 -49t-49 -121v-170v-86v-86h219h65 q9 0 9 -12zM702 166q23 0 23 22q0 25 -23 25t-22 -25q-1 -22 22 -22zM750 1151q23 0 22 25q0 23 -22 22q-10 0 -17.5 -6t-7.5 -16t7.5 -17.5t17.5 -7.5zM807 375q23 0 22 22q0 23 -22 23q-10 0 -17.5 -6t-7.5 -17q0 -10 7.5 -16t17.5 -6zM825 543q0 -23 23 -23q10 0 17 6 t7 17q0 10 -7 17t-17 7q-23 1 -23 -24zM1014 16q8 -4 7 -10t-9 -6h-299l-4 8l-11 15l-30 40h286h4q14 -16 28 -26.5t28 -20.5zM467 274q8 -6 16 -8l187 -264q-10 0 -20.5 -1t-22.5 -1h-84q-106 0 -195.5 48t-146.5 126q55 -51 128.5 -81t157.5 -30h84h21.5t21.5 3z" />
<glyph unicode="R" horiz-adv-x="1036" d="M963 170q0 -119 41 -156q6 -4 5 -9t-10 -5h-329q-6 0 -8.5 5t4.5 9q14 12 28 47h248q8 0 9 5.5t-3 9.5q-43 37 -43 155v86v43q0 98 -27.5 176t-91.5 152q49 -66 72 -137.5t23 -161.5v-41v-86q0 -119 43 -156q6 -4 4 -9t-10 -5h-328q-8 0 -10 5t4 9q43 37 43 156v86v41 q0 63 -29 117q-31 23 -67.5 35t-77.5 12h-43v-129v-170v-84q0 -119 41 -156q6 -4 4 -9t-9 -5h-36h-86h-207q-8 0 -9.5 5t5.5 9q14 12 28 47h127h84h37q8 0 9 5.5t-3 9.5q-43 37 -43 155v86v170v127h43q55 0 103.5 -21.5t83.5 -57.5q-35 51 -90.5 80.5t-120.5 29.5h-43v-127 v-170v-86q0 -119 43 -156q4 -4 3 -9t-9 -5h-37h-84h-207q-8 0 -10 5t4 9q43 37 43 156v936q0 119 -43 156q-6 4 -4 9t10 5h207h274q76 0 141.5 -28.5t114.5 -78t78 -116t29 -141.5q0 -78 -33 -151t-94 -126q6 -8 12 -14t12 -15q61 53 94 125t33 152q0 59 -17.5 111.5 t-49.5 97.5q59 -51 92 -121t33 -152q0 -80 -34 -151.5t-93 -124.5q66 -78 96.5 -157t30.5 -181v-43v-84zM199 172q10 0 17 6t7 17q0 10 -7 16t-17 6q-23 0 -23 -22q0 -23 23 -23zM199 348q10 0 17 7t7 18q0 10 -7 16t-17 6q-23 0 -23 -22q0 -10 6.5 -17.5t16.5 -7.5z M199 520q10 0 17 6t7 17q0 10 -7 17t-17 7q-23 0 -23 -24q0 -23 23 -23zM199 692q10 0 17 7.5t7 17.5t-7 16t-17 6q-23 0 -23 -22q0 -10 6.5 -17.5t16.5 -7.5zM201 868q23 0 22 23q0 10 -6 17t-16 7t-17.5 -7t-7.5 -17q0 -23 25 -23zM176 1063q0 -23 23 -23q10 0 17 6.5 t7 16.5t-7 16t-17 6q-23 1 -23 -22zM201 1212q10 0 16 7.5t6 17.5q0 23 -22 23q-25 0 -25 -23q0 -10 7.5 -17.5t17.5 -7.5zM754 1010q-10 0 -17.5 -7.5t-7.5 -17.5t7 -16t18 -6q23 0 22 22q1 25 -22 25zM711 1165q-10 0 -17.5 -7t-7.5 -17t7 -16.5t18 -6.5q23 0 22 23 q1 24 -22 24zM551 1260q-20 0 -21 -25q0 -23 21 -23q25 0 24 23q1 25 -24 25zM367 1260q-23 0 -23 -25q0 -23 23 -23q25 0 24 23q1 25 -24 25zM328 895h24v174v10v4h191q39 0 69 -26q-14 25 -38.5 41t-55.5 16h-190v-2v-14v-199v-4zM350 758q25 0 25 22q0 23 -25 23 q-23 0 -22 -23q-1 -22 22 -22zM524 752q10 0 16.5 7t6.5 17q0 23 -23 23t-22 -23q0 -10 6 -17t16 -7zM518 895q45 0 77 31.5t32 77.5v14q-8 2 -15.5 2h-13.5h-188v-2v-12v-111h108zM641 633q23 0 23 22q0 25 -23 25q-25 0 -25 -25q0 -22 25 -22zM668 809q0 -23 22 -23 q10 0 17.5 6.5t7.5 16.5t-7.5 16t-17.5 6q-22 1 -22 -22zM707 522q0 -23 24 -22q23 0 23 22q0 23 -23 23q-24 0 -24 -23zM756 385q-10 0 -16.5 -7t-6.5 -18q0 -23 23 -22q10 0 17 6t7 16t-7 17.5t-17 7.5zM762 172q23 0 22 23q0 23 -22 22q-23 0 -23 -22q0 -23 23 -23z" />
<glyph unicode="S" horiz-adv-x="1136" d="M1028 975q0 66 -19.5 123t-54.5 104q59 -53 95 -129t36 -162h-260h-37q-16 0 -8 15q14 25 8 49h240zM1085 389q0 -80 -30.5 -151.5t-83.5 -124t-124 -83t-153 -30.5h-86h-88q-98 0 -181 44t-136 118q53 -47 118.5 -73t141.5 -26h86h88q82 0 152.5 31t124 84t84 124 t30.5 153q0 63 -19.5 121.5t-54.5 105.5q59 -53 95 -129t36 -164zM346 485q12 0 8 -12q-18 -33 -7 -59.5t28 -40.5q-4 12 -4 16h20h37q14 0 8 -12q-4 -6 -6 -11.5t-2 -11.5h10h88h86q53 0 91 39t38 92q0 18 -2 27q-18 8 -45 8h-86h-88q-98 0 -181 44t-136 120 q53 -47 118.5 -73.5t141.5 -26.5h86h88q49 0 88 -33q-16 29 -46 47t-67 18h-86h-88q-82 0 -152.5 31t-123.5 83t-84 124t-31 152q0 82 31 152.5t84 123.5t123.5 84t152.5 31h88h86q80 0 152 -31t125 -84t84 -124t31 -152h-263h-36q-14 0 -7 14q2 4 4.5 10t4.5 12h-13h-86 h-88q-53 0 -91 -38.5t-38 -92.5v-13t2 -13q18 -8 45 -8h88h86q80 0 152 -31t125 -84t84 -125t31 -152t-31 -151.5t-84 -124.5t-125 -84t-152 -31h-86h-88q-82 0 -152.5 31t-123.5 84t-84 125t-31 151h260h39zM233 344q23 0 23 23t-23 22q-25 0 -24 -22q-1 -23 24 -23z M858 1120q-23 0 -22 -22q0 -25 22 -25q23 0 23 25q0 22 -23 22zM733 1266q-10 0 -17 -7.5t-7 -17.5t7 -16t17 -6t17.5 6t7.5 16t-7.5 17.5t-17.5 7.5zM557 1300q-23 0 -22 -24q0 -23 22 -23q25 0 25 23q0 24 -25 24zM375 1300q-23 0 -23 -24q0 -23 23 -23q25 0 24 23 q1 24 -24 24zM231 1194q-10 0 -16 -7t-6 -18q0 -23 22 -22q10 0 17.5 6t7.5 16t-7.5 17.5t-17.5 7.5zM197 981q23 0 22 25q0 23 -22 22q-25 0 -25 -22q0 -25 25 -25zM256 819q23 0 23 23q0 25 -23 24q-25 0 -25 -24q0 -23 25 -23zM350 909q-16 33 -16 66q0 53 38 92t91 39 h86h88q23 0 53 -10q6 -6 10 -9q-16 25 -36 39q-27 10 -52 11h-86h-88q-53 0 -92 -38t-39 -93q0 -58 43 -97zM399 723q10 0 17.5 7t7.5 18q0 10 -7 16t-18 6q-10 0 -17 -6t-7 -16t7 -17.5t17 -7.5zM582 723q23 0 22 25q0 23 -22 22q-25 0 -25 -22q0 -25 25 -25zM858 616 q-10 0 -16 -7t-6 -17t6 -17.5t16 -7.5t16.5 7.5t6.5 17.5t-6.5 17t-16.5 7zM858 436q-23 0 -22 -22q0 -25 22 -25q23 0 23 25q0 22 -23 22zM733 719q0 -23 25 -23q23 0 22 23q0 23 -22 22q-25 1 -25 -22zM745 293q-10 0 -17 -7t-7 -18q0 -10 7 -16t17 -6t17.5 6t7.5 16 t-7.5 17.5t-17.5 7.5zM553 268q-25 0 -25 -22q0 -25 25 -25q23 0 22 25q1 22 -22 22zM371 281q-23 0 -23 -25q0 -23 23 -23t22 23q1 25 -22 25z" />
<glyph unicode="T" horiz-adv-x="1085" d="M963 1194q0 68 14 109h43h39q6 0 8 -5.5t-4 -9.5q-43 -37 -43 -160v-86v-36q0 -10 -5 -11.5t-11 4.5q-35 43 -158 43h-131v-159v-277v-334v-98q0 -123 43 -160q6 -4 4 -9t-10 -5h-336q-8 0 -9 5t5 9q18 16 28 49h254q8 0 10.5 5.5t-4.5 11.5q-45 35 -45 158v98v336v276 v158h133q123 0 158 -43q6 -6 11.5 -4t5.5 10v37v88zM66 1225q0 121 -43 157q-6 4 -4.5 9.5t10.5 5.5h37h260h219h174h219h37q8 0 10 -5.5t-4 -9.5q-43 -37 -43 -157v-88v-37q0 -8 -5 -10.5t-9 4.5q-37 43 -160 43h-131v-158v-277v-333v-101q0 -121 41 -157q16 -16 -4 -17 h-336q-8 0 -10 5t4 12q43 37 43 157v774h-49q-121 0 -158 -43q-6 -6 -11.5 -5t-5.5 12v36v48q39 16 117 16h107v31h-131q-123 0 -160 -43q-4 -6 -9 -4t-5 10v37v88zM838 1307q-10 0 -17.5 -7.5t-7.5 -17.5t7 -16t18 -6q10 0 17 6t7 16t-7 17.5t-17 7.5zM672 1307 q-25 0 -25 -25q0 -23 25 -22q23 0 22 22q1 25 -22 25zM504 1307q-23 0 -23 -25q0 -23 23 -22q25 0 24 22q1 25 -24 25zM502 1130q-23 0 -23 -24q0 -10 6.5 -17.5t16.5 -7.5t17 7.5t7 17.5q1 24 -24 24zM528 930q0 25 -24 24q-23 0 -23 -24q0 -23 23 -23q24 0 24 23zM502 776 q-23 0 -23 -24q0 -23 23 -23q25 0 24 23q1 24 -24 24zM502 600q-10 0 -16.5 -7t-6.5 -18q0 -10 6.5 -17t16.5 -7t17 7t7 17t-7 17.5t-17 7.5zM502 424q-23 0 -23 -23q0 -10 6.5 -17t16.5 -7t17 7t7 17q1 23 -24 23zM502 244q-23 0 -23 -25q0 -23 23 -22q25 0 24 22 q1 25 -24 25zM336 1307q-23 0 -23 -25q0 -23 23 -22q25 0 24 22q1 25 -24 25zM170 1307q-25 0 -25 -25q0 -23 25 -22q23 0 23 22q0 25 -23 25z" />
<glyph unicode="U" d="M1022 434q0 -90 -34 -169t-93 -138t-138 -93t-169 -34q-109 0 -200 48t-150 130q59 -53 132.5 -84t159.5 -31q90 0 169 34t138.5 93.5t93.5 138.5t34 169v696q0 72 14 109h82q6 0 8 -5.5t-4 -9.5q-43 -37 -43 -160v-694zM678 965v260q0 123 -41 157q-14 14 4 15h336 q20 0 6 -15q-43 -37 -43 -157v-695q0 -90 -34 -169.5t-93 -139t-139 -93.5t-170 -34t-168 34t-137.5 93.5t-93 139t-33.5 169.5v695q0 121 -43 157q-14 14 4 15h336q20 0 6 -15q-43 -37 -43 -157v-260v-263v-172q0 -78 51 -124q-27 43 -27 92v174v262v260q0 68 13 109h82 q10 0 11 -5.5t-5 -9.5q-43 -37 -43 -160v-260v-260v-174q0 -27 10 -57q35 -20 80 -21q72 0 123 51.5t51 122.5v172v263zM217 1294q-25 0 -24 -22q0 -25 24 -25q23 0 23 25q0 22 -23 22zM215 1118q-23 0 -22 -24q0 -10 6 -17.5t16 -7.5t17.5 7t7.5 18q0 24 -25 24zM240 918 q0 25 -23 24q-25 0 -24 -24q0 -23 24 -23q23 0 23 23zM215 764q-23 0 -22 -23q0 -25 22 -24q25 0 25 24q0 23 -25 23zM193 563q0 -25 22 -24q25 0 25 24q0 10 -7.5 17.5t-17.5 7.5t-16 -7.5t-6 -17.5zM227 365q10 0 17.5 7t7.5 17t-7 17.5t-18 7.5q-10 0 -17 -7.5t-7 -17.5 t7 -17t17 -7zM348 254q25 0 25 22q0 25 -25 25q-23 0 -22 -25q-1 -22 22 -22zM516 207q10 0 17.5 7t7.5 17t-7.5 17.5t-17.5 7.5t-16 -7t-6 -18q0 -10 6 -17t16 -7zM811 594q23 0 23 24q0 23 -23 23q-25 0 -25 -23q0 -24 25 -24zM811 750q10 0 16.5 7t6.5 17t-6.5 17.5 t-16.5 7.5t-17.5 -7.5t-7.5 -17.5t7.5 -17t17.5 -7zM811 920q23 0 23 24q0 23 -23 23q-25 0 -25 -23q0 -24 25 -24zM811 1090q10 0 16.5 7t6.5 17t-6.5 17.5t-16.5 7.5t-17.5 -7.5t-7.5 -17.5t7.5 -17t17.5 -7zM805 1319q-25 0 -25 -25q0 -23 25 -22q23 0 22 22q1 25 -22 25 zM786 453q-10 0 -17 -6.5t-7 -16.5t7 -17t17 -7t17.5 7t7.5 17t-7.5 16.5t-17.5 6.5zM690 301q-23 0 -22 -25q0 -23 22 -22q25 0 25 22q0 25 -25 25z" />
<glyph unicode="V" horiz-adv-x="1095" d="M1065 1305q8 0 9 -6.5t-3 -10.5q-45 -39 -45 -158v-415q0 -82 -14.5 -157t-46.5 -150l-101 -232q-23 -127 13 -160q6 -6 4 -11t-11 -5h-557q-6 0 -8 5t4 11q14 14 21 50h483q8 0 10 5t-4 9q-37 37 -12 160l100 231q61 150 62 309v414q0 35 4 61.5t10 49.5h82zM76 1225 q0 123 -43 157q-6 6 -4 11.5t10 5.5h334q23 0 6 -17q-43 -35 -43 -157v-260v-154q0 -106 43 -205l131 -307l6 12l-113 264q-41 94 -41 205v154v260q0 68 13 111h82q8 0 9 -6.5t-3 -10.5q-43 -35 -43 -158v-262v-153q0 -109 41 -205l69 -164l111 260q43 98 43 205v154v260 q0 123 -43 157q-6 6 -4 11.5t10 5.5h336q6 0 8 -5t-4 -12q-43 -35 -43 -157v-414q0 -82 -14.5 -157.5t-46.5 -151.5l-101 -232q-25 -123 13 -159q4 -4 3 -9.5t-10 -5.5h-555q-10 0 -11 5t3 10q37 37 13 159l-99 232q-63 147 -63 309v414zM805 1292q-10 0 -17.5 -6t-7.5 -16 t7.5 -16.5t17.5 -6.5q25 0 24 23q1 22 -24 22zM799 1112q-10 0 -17.5 -7t-7.5 -18q0 -10 7 -16t18 -6q25 0 24 22q1 25 -24 25zM799 932q-10 0 -17.5 -7t-7.5 -18q0 -10 7 -16t18 -6q25 0 24 22q1 25 -24 25zM788 754q-25 0 -24 -23q0 -23 24 -22q23 0 23 22q0 23 -23 23z M766 582q-25 0 -25 -23q0 -25 25 -24q10 0 17.5 7t7.5 17t-7.5 16.5t-17.5 6.5zM686 406q-10 0 -17 -6.5t-7 -16.5t7 -16.5t17 -6.5q25 0 25 23t-25 23zM623 242q-10 0 -17.5 -7.5t-7.5 -17.5t7 -17t18 -7q10 0 17 7t7 17t-7 17.5t-17 7.5zM184 721q0 -25 25 -25q23 0 22 25 q0 23 -22 22q-25 1 -25 -22zM387 242q-25 0 -25 -25q0 -23 25 -22q23 0 23 22q0 25 -23 25zM317 401q-23 0 -22 -24q0 -23 22 -23q25 0 25 23q0 24 -25 24zM272 541q0 10 -7 17t-17 7t-17.5 -7t-7.5 -17t7.5 -16.5t17.5 -6.5t17 6.5t7 16.5zM231 901q0 25 -22 25 q-25 0 -25 -25q0 -23 25 -22q22 -1 22 22zM197 1288q-25 0 -25 -24q0 -23 25 -23q23 0 22 23q1 24 -22 24zM197 1100q-25 0 -25 -23q0 -25 25 -24q23 0 22 24q1 23 -22 23z" />
<glyph unicode="W" horiz-adv-x="1673" d="M1632 1278q10 0 11.5 -5t-5.5 -9q-41 -35 -41 -156v-256v-150q0 -156 -63 -301l-96 -229q-25 -121 12 -156q12 -16 -6 -16h-514q-12 0 -8 12q8 23 8 51h459q6 0 8 5.5t-2 9.5q-35 35 -15 158l99 227q31 74 46 147.5t15 155.5v149v256q0 63 12 107h80zM1370 109 q4 -4 2 -9.5t-10 -5.5h-514q-12 0 -8 12q14 39 8 78l-6 -12q-37 -96 -17 -160q4 -12 -8 -12h-514q-18 0 -6 16q18 18 20 47h445q10 0 8 13q-25 61 16 160l25 61l-18 43l-31 -74q-41 -96 -19 -160q6 -12 -6 -12h-514q-8 0 -10 5t4 10q35 35 12 157q-35 82 -60.5 138.5 t-44 102.5t-28.5 86t-16 88t-8 111.5t-2 153.5v254q0 119 -43 156q-10 14 6 14h327q20 0 7 -14q-43 -39 -43 -156v-254v-151q0 -102 43 -201l129 -301l4 14l-109 256q-41 94 -41 203v149v256q0 63 12 107h80q8 0 9.5 -5t-2.5 -9q-43 -37 -43 -156v-256v-150q0 -106 40 -202 l68 -158l111 252q41 100 41 201v151v254q0 119 -43 156q-14 14 6 14h327q20 0 7 -14q-43 -39 -43 -156v-254v-151q0 -100 41 -201l129 -301l6 14l-111 256q-41 100 -41 203v149v256q0 33 4 58.5t10 48.5h80q8 0 9.5 -5t-5.5 -9q-41 -37 -41 -156v-256v-150q0 -106 41 -202 l68 -158l111 252q41 100 41 201v151v254q0 119 -43 156q-14 14 6 14h327q20 0 7 -14q-43 -37 -43 -156v-254v-151q0 -80 -15.5 -154t-46.5 -147l-96 -228q-25 -120 12 -157zM1399 1268q-23 0 -23 -23q0 -25 23 -24q23 0 22 24q1 23 -22 23zM1397 1096q-10 0 -16.5 -7.5 t-6.5 -17.5q0 -23 23 -22q25 0 24 22q0 10 -7 17.5t-17 7.5zM1421 899q0 10 -6 17.5t-16 7.5t-16.5 -7.5t-6.5 -17.5q0 -23 23 -22q22 -1 22 22zM1397 750q-10 0 -16.5 -7.5t-6.5 -17.5q0 -23 23 -23q25 0 24 23q0 10 -7 17.5t-17 7.5zM217 1276q-25 0 -24 -23q0 -23 24 -22 q23 0 23 22q0 23 -23 23zM215 1104q-10 0 -17.5 -7t-7.5 -18q0 -10 7.5 -16t17.5 -6q23 0 23 22q0 25 -23 25zM240 907q0 25 -23 25q-25 0 -24 -25q0 -23 24 -22q23 -1 23 22zM190 733q0 -10 7.5 -16t17.5 -6q23 0 23 22q0 25 -23 25q-10 0 -17.5 -7.5t-7.5 -17.5zM240 532 q23 0 22 23q0 23 -22 23q-23 0 -23 -23t23 -23zM319 371q25 0 25 22q0 25 -25 25q-23 0 -22 -25q-1 -22 22 -22zM391 207q10 0 17.5 6t7.5 16t-7.5 16.5t-17.5 6.5q-23 0 -22 -23q-1 -22 22 -22zM584 195q10 0 16 7t6 17q0 23 -22 23q-25 0 -25 -23q0 -10 7.5 -17t17.5 -7z M672 354q23 0 22 23q0 25 -22 24q-25 0 -25 -24q0 -23 25 -23zM807 1280q-10 0 -17.5 -7t-7.5 -18q0 -10 7.5 -16t17.5 -6q23 0 22 22q1 25 -22 25zM801 508q23 0 22 24q0 23 -22 23q-23 0 -23 -23q0 -24 23 -24zM805 696q25 0 24 23q0 10 -7 17t-17 7t-16.5 -7t-6.5 -17 q0 -23 23 -23zM807 866q23 0 22 23q0 23 -22 22q-10 0 -17.5 -6t-7.5 -16t7.5 -16.5t17.5 -6.5zM817 1049q23 0 23 22q0 10 -6.5 17.5t-16.5 7.5t-16 -7.5t-6 -17.5q-1 -22 22 -22zM922 342q23 0 22 23q0 25 -22 24q-10 0 -17.5 -7t-7.5 -17t7.5 -16.5t17.5 -6.5zM997 178 q23 0 23 23q0 10 -6 17t-17 7q-10 0 -16 -7t-6 -17q-1 -23 22 -23zM1210 184q23 0 23 23q0 10 -6 17t-17 7q-10 0 -17 -7t-7 -17t7 -16.5t17 -6.5zM1280 354q23 0 23 23q0 10 -6.5 17t-16.5 7t-16.5 -7t-6.5 -17q0 -23 23 -23zM1327 532q10 0 17.5 6.5t7.5 16.5t-7.5 16.5 t-17.5 6.5q-23 0 -22 -23q-1 -23 22 -23z" />
<glyph unicode="X" horiz-adv-x="1077" d="M1038 1305q8 0 10.5 -6.5t-4.5 -10.5q-43 -37 -43 -158v-45q0 -111 -45 -212t-129 -177q-4 4 -5 7.5t-5 7.5q49 -68 76 -147t27 -165v-43v-86q0 -123 43 -159q4 -4 3 -9.5t-10 -5.5h-333q-10 0 -11.5 5t4.5 10q43 39 43 159v86v43q0 61 -28 119q-10 8 -22.5 14.5 t-24.5 12.5q-72 -31 -116 -96.5t-44 -143.5v-45v-86q0 -121 43 -158q6 -6 4 -11t-10 -5h-336q-8 0 -9 5t5 11q14 12 29 47h253q8 0 9.5 6.5t-2.5 10.5q-43 37 -43 158v88v43q0 78 43 143.5t114 95.5q51 -20 88 -61q-39 59 -112 92q-72 -29 -116 -95.5t-44 -144.5v-43v-86 q0 -123 43 -159q6 -4 5 -9.5t-9 -5.5h-336q-8 0 -10 5t4 10q43 37 43 159v86v43q0 113 46 215.5t132 176.5q-86 74 -132 176t-46 215v43q0 123 -43 159q-6 4 -4 9.5t10 5.5h336q8 0 9 -5t-5 -10q-43 -37 -43 -159v-43q0 -51 18.5 -97.5t53.5 -80.5q-45 63 -45 147v43 q0 68 12 111h82q8 0 10 -6.5t-4 -10.5q-43 -37 -43 -158v-45q0 -59 27 -116q12 -8 24 -15.5t25 -11.5q72 31 115.5 96.5t43.5 143.5v43q0 121 -43 159q-6 4 -5 9.5t12 5.5h333q8 0 9.5 -5t-2.5 -10q-43 -37 -43 -159v-43q0 -113 -46.5 -215.5t-130.5 -175.5q8 -6 14.5 -12.5 l14.5 -14.5q82 74 127 175t45 212v43q0 70 14 111h80zM195 1276q0 -23 24 -23q25 0 25 23t-25 22q-24 1 -24 -22zM244 1071q25 0 24 25q0 23 -24 22q-25 0 -25 -22q0 -25 25 -25zM201 184q10 0 17 7.5t7 17.5t-7 17t-17 7t-16.5 -7t-6.5 -17t6.5 -17.5t16.5 -7.5zM219 354 q25 0 25 25q0 23 -25 22q-25 0 -24 -22q-1 -25 24 -25zM268 522q10 0 17.5 7.5t7.5 17.5t-7 16t-18 6q-25 0 -24 -22q-1 -25 24 -25zM311 926q0 -25 23 -25q25 0 24 25q0 23 -24 22q-23 1 -23 -22zM356 668q25 0 25 24q0 23 -25 23q-10 0 -17 -6.5t-7 -16.5t7 -17t17 -7z M494 778q25 0 24 23q0 10 -7 17t-17 7t-17.5 -7t-7.5 -17t7.5 -16.5t17.5 -6.5zM797 1311q-10 0 -17.5 -7.5t-7.5 -17.5t7 -16t18 -6q25 0 24 22q1 25 -24 25zM766 1118q-25 0 -25 -22q0 -25 25 -25q10 0 17.5 7t7.5 18q0 10 -7.5 16t-17.5 6zM641 690q25 0 25 23t-25 22 q-25 0 -25 -22q0 -23 25 -23zM676 895q10 0 17 7t7 18q0 10 -7 17t-17 7t-17.5 -7t-7.5 -17t7.5 -17.5t17.5 -7.5zM739 541q25 0 25 24q0 23 -25 23t-24 -23q-1 -24 24 -24zM831 215q0 23 -24 23q-10 0 -17.5 -6.5t-7.5 -16.5t7.5 -17.5t17.5 -7.5q24 0 24 25zM821 391 q0 25 -24 25q-10 0 -17.5 -7.5t-7.5 -17.5t7 -16t18 -6q24 -1 24 22zM981 63q8 0 10 6.5t-4 10.5q-43 37 -43 158v88v43q0 86 -26.5 166.5t-79.5 148.5q78 -74 120.5 -172t42.5 -207v-45v-86q0 -121 43 -158q6 -6 4.5 -11t-10.5 -5h-333q-8 0 -10.5 5t3.5 11q18 16 29 47 h254z" />
<glyph unicode="Y" horiz-adv-x="1077" d="M1057 1303q8 0 9 -5.5t-5 -9.5q-43 -39 -43 -160v-86v-88q0 -72 -21.5 -136t-61.5 -119.5t-96.5 -96.5t-123.5 -61v-269v-98q0 -123 43 -160q6 -4 4 -9t-10 -5h-334q-10 0 -11 5t5 9q18 16 28 49h254q8 0 10.5 5.5t-4.5 11.5q-43 33 -43 158v98v268q68 20 123.5 61.5 t95 96.5t62.5 120.5t23 137.5v86v88q0 35 4 60.5t10 48.5h82zM676 111q6 -6 4 -11.5t-10 -5.5h-336q-18 0 -6 17q43 35 43 157v310q-41 23 -75 53.5t-63 66.5q63 -57 138 -84v23q-68 20 -124.5 61t-96 95.5t-61 120t-21.5 137.5v86v88q0 121 -43 157q-14 14 6 15h334 q20 0 6 -15q-43 -37 -43 -157v-88v-86q0 -74 53 -123q-29 41 -29 92v86v88q0 35 4 60.5t11 48.5h82q8 0 9 -5.5t-3 -9.5q-43 -35 -43 -160v-86v-88q0 -33 8 -57q41 -20 82 -20q72 0 123 51t51 123v86v88q0 121 -43 157q-14 14 6 15h336q6 0 8 -4t-4 -11q-43 -37 -43 -157 v-88v-86q0 -72 -22.5 -137.5t-62.5 -120t-95.5 -95.5t-122.5 -61v-268v-101q0 -120 43 -157zM813 1075q23 0 23 25q0 23 -23 22q-23 0 -22 -22q-1 -25 22 -25zM807 1288q-23 0 -23 -24q0 -23 23 -23q25 0 24 23q1 24 -24 24zM774 954q-23 0 -22 -24q0 -23 22 -23q23 0 23 23 q0 24 -23 24zM668 827q-10 0 -16.5 -7t-6.5 -17t6 -17.5t17 -7.5q10 0 16 7.5t6 17.5t-6 17t-16 7zM203 1294q-25 0 -25 -22q0 -25 25 -25q10 0 17 7.5t7 17.5t-7 16t-17 6zM197 1081q10 0 17 7.5t7 17.5t-7 17t-17 7t-17.5 -7t-7.5 -17t7.5 -17.5t17.5 -7.5zM238 913 q10 0 17 6.5t7 16.5t-7 17.5t-17 7.5t-17.5 -7.5t-7.5 -17.5t7.5 -16.5t17.5 -6.5zM346 786q25 0 25 23q0 25 -25 25q-23 0 -22 -25q-1 -23 22 -23zM508 221q10 0 17 7.5t7 17.5t-7 17t-17 7t-16.5 -7t-6.5 -17t6.5 -17.5t16.5 -7.5zM508 379q25 0 24 22q0 25 -24 25 q-23 0 -23 -25q0 -22 23 -22zM508 547q10 0 17 7t7 17t-7 17.5t-17 7.5t-16.5 -7t-6.5 -18q0 -10 6.5 -17t16.5 -7zM508 719q25 0 24 22q0 25 -24 25q-23 0 -23 -25q0 -22 23 -22z" />
<glyph unicode="Z" horiz-adv-x="1148" d="M1044 1276h93l-529 -928h193q119 0 155 43q4 4 9.5 3t5.5 -9v-37v-86q0 -121 43 -153q6 -4 4 -10.5t-10 -6.5h-37h-936l530 930h-194q-119 0 -156 -43q-4 -6 -9 -4t-5 10v37v45q39 16 112 16h287l18 31h-327q-123 0 -156 -43q-4 -4 -10 -3t-6 9v37v86q0 121 -41 154 q-6 4 -4 10t10 6h35h938l-584 -1022h43zM240 1239q10 18 -9 33q-20 6 -32 -10q-8 -20 10 -31q8 -4 17.5 -2t13.5 10zM403 1239q10 18 -10 33q-20 8 -31 -10q-4 -8 -2 -17.5t11 -13.5q20 -10 32 8zM559 1245q8 20 -10 31q-8 4 -17.5 2t-13.5 -10t-2 -17.5t10 -13.5 q19 -15 33 8zM850 1262q-8 -20 10 -31q8 -4 17.5 -2t13.5 10q14 18 -8 33q-21 8 -33 -10zM743 1130q-10 -23 11 -32q8 -4 17 -2t13 10q10 20 -8 33q-19 9 -33 -9zM678 1262q-4 -8 -2 -17.5t10 -13.5t18.5 -2t14.5 10q10 18 -8 33q-10 4 -19.5 2t-13.5 -12zM657 981 q-6 -10 -4 -19.5t11 -13.5q20 -10 32 8q10 20 -8 33q-8 4 -17.5 2t-13.5 -10zM571 831q-10 -20 9 -32q18 -10 32 8q10 23 -10 33q-8 4 -17.5 1.5t-13.5 -10.5zM483 680q-10 -18 9 -33q18 -10 32 10q8 20 -10 31q-8 4 -17.5 3t-13.5 -11zM262 205q10 18 -8 33q-20 10 -33 -11 q-4 -8 -2 -17t12 -13q8 -4 17.5 -2t13.5 10zM350 358q14 20 -8 33q-8 4 -17.5 2t-13.5 -10q-10 -20 8 -33q21 -10 31 8zM422 201q10 20 -8 32q-20 10 -33 -8q-4 -8 -2 -17t10 -13q10 -6 19.5 -4t13.5 10zM436 508q4 8 2 17.5t-10 13.5q-18 10 -33 -9q-10 -20 11 -32 q8 -4 17 -2t13 12zM848 225q-4 -8 -2 -17t10 -13q10 -6 19.5 -4t13.5 10q10 20 -8 32q-8 4 -18.5 3t-14.5 -11zM688 231q-10 -20 8 -32q18 -10 33 8q10 23 -10 33q-8 4 -17.5 1.5t-13.5 -10.5zM573 201q10 20 -8 32q-20 10 -33 -8q-4 -8 -2 -17t13 -13q8 -6 17 -4t13 10z M1051 170q0 -119 43 -156q6 -4 4 -9t-11 -5h-36h-934l35 63h843h37q8 0 9 5.5t-3 9.5q-43 37 -43 155v37q14 4 23.5 11.5t17.5 15.5q4 6 9.5 4t5.5 -8v-37v-86z" />
<glyph unicode="a" horiz-adv-x="1103" d="M805 1192q-6 35 -9 62.5t1 50.5h71q8 0 10.5 -6.5t-4.5 -10.5q-37 -37 -12 -160l101 -231q63 -147 63 -309v-154v-260q0 -123 41 -158q16 -16 -4 -16h-336q-8 0 -10 5t4 11q10 8 17 19.5t14 27.5h254q8 0 9 6.5t-5 10.5q-43 37 -43 158v262v153q0 82 -14.5 157t-47.5 151 zM639 111q43 37 43 157v80h-266v-174q0 -121 43 -158q8 -6 6 -11t-10 -5h-336q-18 0 -6 16q18 14 30 47h254q8 0 9.5 6.5t-5.5 10.5q-43 39 -43 158v174h324v30h-348v-174q0 -121 43 -157q6 -4 4 -9.5t-8 -5.5h-336q-8 0 -10 5t4 10q43 37 43 157v262v154q0 160 63 307 l99 232q25 125 -13 161q-4 4 -2 9.5t8 5.5h557q8 0 9.5 -5t-2.5 -10q-37 -37 -13 -161l99 -232q63 -147 63 -307v-154v-262q0 -121 43 -157q6 -4 5 -9.5t-11 -5.5h-334q-8 0 -10 5.5t4 9.5zM766 590q0 -10 7 -17.5t18 -7.5q10 0 16 7.5t6 17.5t-6 17t-16 7t-17.5 -7 t-7.5 -17zM801 205q25 0 24 22q0 25 -24 25q-23 0 -23 -25q0 -22 23 -22zM825 416q0 10 -7 17t-17 7t-16.5 -7t-6.5 -17t6.5 -17.5t16.5 -7.5t17 7.5t7 17.5zM791 797q-25 0 -25 -25q0 -23 25 -22q23 0 22 22q1 25 -22 25zM752 975q-10 0 -17.5 -7t-7.5 -18q0 -10 7 -17 t18 -7q10 0 16 7t6 17t-6 17.5t-16 7.5zM629 1315q-23 0 -23 -25q0 -23 23 -22q25 0 24 22q1 25 -24 25zM387 1298q-25 0 -25 -24q0 -23 25 -23q10 0 17.5 6.5t7.5 16.5t-7.5 17t-17.5 7zM205 199q10 0 17 7t7 17t-7 16.5t-17 6.5q-25 0 -25 -23q0 -24 25 -24zM209 381 q27 0 27 22q0 25 -27 25q-10 0 -17.5 -7t-7.5 -18q0 -10 7.5 -16t17.5 -6zM209 559q10 0 18.5 7t8.5 18q0 10 -8.5 17t-18.5 7t-17.5 -7t-7.5 -17t7.5 -17.5t17.5 -7.5zM221 737q25 0 25 25q0 23 -25 22q-10 0 -17 -6t-7 -16t7 -17.5t17 -7.5zM244 909q10 0 17 7.5t7 17.5 t-7 17t-17 7t-16.5 -7t-6.5 -17t6.5 -17.5t16.5 -7.5zM324 1085q10 0 17 7.5t7 17.5t-7 16.5t-17 6.5q-25 0 -25 -23q0 -25 25 -25zM362 702q6 82 39 156l127 293l-20 45l-131 -307q-39 -88 -41 -187h26zM403 559q10 0 17.5 7t7.5 18q0 10 -7 17t-18 7q-10 0 -17 -7t-7 -17 t7 -17.5t17 -7.5zM600 559q10 0 17.5 7t7.5 18q0 10 -7.5 16t-17.5 6q-25 0 -25 -22q0 -25 25 -25zM682 702q-2 51 -12.5 95.5t-30.5 91.5l-70 164l-110 -260q-20 -47 -29 -91h252zM662 1126q0 -10 7 -17t17 -7t16.5 7t6.5 17t-6.5 17.5t-16.5 7.5t-17 -7.5t-7 -17.5z" />
<glyph unicode="b" horiz-adv-x="1073" d="M891 754q72 -68 105.5 -150t33.5 -166t-30.5 -162.5t-87 -140t-137.5 -98.5t-179 -37h-434h-39q-8 0 -9 5t5 11q16 12 28 50h392q137 0 237.5 68.5t151.5 172t45 224.5t-82 223zM35 111q45 39 45 157v957q0 121 -45 159q-6 4 -4 9.5t10 5.5h39h260h172q104 0 185 -52.5 t123 -132t40 -176t-59 -182.5l26 -27q63 98 58.5 203t-62.5 189q45 -41 76 -95.5t40 -116t-3 -125t-51 -122.5q-8 8 -17 20q74 -102 79 -222t-45 -223.5t-151.5 -172t-238.5 -68.5h-432h-39q-8 0 -10 5.5t4 9.5zM369 188q23 0 22 23q0 25 -22 25q-25 0 -25 -25q0 -23 25 -23 zM541 188q23 0 22 23q0 25 -22 25q-25 0 -25 -25q0 -23 25 -23zM512 356q72 0 123 51.5t51 122.5q0 16 -2 29.5t-6 28.5q-41 20 -82 20h-174v-252h90zM690 242q10 0 17.5 7t7.5 17t-7.5 16.5t-17.5 6.5t-17 -6.5t-7 -16.5t7 -17t17 -7zM717 696q23 0 22 25q0 23 -22 22 q-25 0 -25 -22q0 -25 25 -25zM817 590q-10 0 -17 -6t-7 -17q0 -10 7 -17t17 -7q25 0 25 24q0 23 -25 23zM805 416q-23 0 -23 -25q0 -23 23 -22q25 0 24 22q1 25 -24 25zM756 1075q-23 0 -23 -22q0 -25 23 -25q25 0 24 25q1 22 -24 22zM692 874q25 0 25 25q0 23 -25 23 q-23 0 -22 -23q-1 -25 22 -25zM686 1227q-10 0 -16 -7.5t-6 -17.5t6 -17t16 -7t17.5 7t7.5 17t-7.5 17.5t-17.5 7.5zM659 623q-23 37 -61.5 59.5t-85.5 22.5h-172v-349h25v316h174q71 0 120 -49zM530 809q0 -23 25 -23q23 0 23 23q0 25 -23 25q-25 0 -25 -25zM596 1042h-174 v-77h90q35 0 59.5 22.5t28.5 54.5h-4zM543 1298q-25 0 -25 -24q0 -10 7 -17.5t18 -7.5q10 0 16 7.5t6 17.5q1 24 -22 24zM375 1298q-25 0 -25 -24q0 -23 25 -23q23 0 22 23q1 24 -22 24zM340 965h25v143h174q16 0 29.5 -5t23.5 -13q-10 23 -31.5 36t-48.5 13h-172v-174z M362 840q-23 0 -22 -25q0 -23 22 -22q10 0 17.5 6t7.5 16t-7.5 17.5t-17.5 7.5zM213 1298q-25 0 -25 -24q0 -23 25 -23q23 0 23 23q0 24 -23 24zM211 1122q-25 0 -25 -24q0 -23 25 -23q10 0 17.5 6t7.5 17q0 10 -7.5 17t-17.5 7zM236 922q0 25 -23 24q-25 0 -25 -24 q0 -23 25 -23q23 0 23 23zM211 768q-25 0 -25 -25q0 -23 25 -22q10 0 17.5 6t7.5 16t-7.5 17.5t-17.5 7.5zM211 592q-10 0 -17.5 -7t-7.5 -18q0 -10 7.5 -17t17.5 -7t17.5 7t7.5 17t-7.5 17.5t-17.5 7.5zM211 416q-25 0 -25 -23q0 -25 25 -24q10 0 17.5 7t7.5 17t-7.5 16.5 t-17.5 6.5zM211 236q-25 0 -25 -25q0 -23 25 -23q10 0 17.5 6.5t7.5 16.5t-7.5 17.5t-17.5 7.5z" />
<glyph unicode="c" horiz-adv-x="1091" d="M913 1165q66 -59 103 -139t37 -174h-256h-45q-18 0 -9 14q16 18 17 47h235q0 72 -21.5 135.5t-60.5 116.5zM569 63q80 0 152 28t128 77t93 114.5t49 143.5h62q0 -88 -34 -166t-91.5 -135t-135 -91t-165.5 -34h-84q-106 0 -196.5 48t-147.5 126q57 -53 129.5 -82 t156.5 -29h84zM461 94q-88 0 -166 34t-135.5 91t-91 135t-33.5 166v426q0 88 33.5 165t91 134.5t135.5 91t166 33.5h84q88 0 165.5 -33.5t135 -91t91.5 -134.5t34 -165h-256h-45q-16 0 -6 12q18 23 14 56q-23 8 -51 8h-84q-37 0 -68 -13.5t-54.5 -37t-36.5 -54t-13 -65.5 v-170v-86v-170q0 -27 10 -57q37 -18 80 -19h84q43 0 82 21q10 4 18 12t14 18q35 61 5 105q-4 4 -3 9t9 5h45h256q0 -88 -34 -166t-91.5 -135t-135 -91t-165.5 -34h-84zM795 369q-23 0 -23 -23q0 -25 23 -24q25 0 24 24q1 23 -24 23zM645 264q-10 0 -17 -7t-7 -17t7 -16.5 t17 -6.5q23 0 23 23q0 24 -23 24zM803 1079q-10 0 -17.5 -6t-7.5 -16t7.5 -17.5t17.5 -7.5q23 0 22 25q1 22 -22 22zM686 1223q-23 0 -22 -25q0 -23 22 -22q25 0 25 22q0 25 -25 25zM522 1270q-10 0 -17 -7.5t-7 -17.5q0 -23 24 -22q23 0 23 22q0 10 -6.5 17.5t-16.5 7.5z M352 1239q-23 0 -22 -22q0 -23 22 -23q25 0 25 23q0 22 -25 22zM176 963q-10 0 -17 -7.5t-7 -17.5q0 -23 24 -23q23 0 23 23q0 10 -6.5 17.5t-16.5 7.5zM176 793q-10 0 -17 -7.5t-7 -17.5q0 -23 24 -23q23 0 23 23q0 10 -6.5 17.5t-16.5 7.5zM152 596q0 -23 24 -23 q23 0 23 23q0 10 -6.5 17.5t-16.5 7.5t-17 -7.5t-7 -17.5zM193 391q10 0 16 7.5t6 17.5q0 23 -22 22q-23 0 -23 -22q0 -10 6.5 -17.5t16.5 -7.5zM211 1079q23 0 22 23q0 23 -22 22q-23 0 -23 -22q0 -23 23 -23zM283 248q23 0 22 24q0 23 -22 23q-10 0 -17.5 -6t-7.5 -17 q0 -10 7.5 -17t17.5 -7zM340 399q-25 39 -25 90v170v84v170q0 72 49.5 121t120.5 49h84q23 0 42.5 -4t39.5 -16q4 0 6 -2t7 -4q-2 2 -2 3t-3 3q-6 10 -14 17t-18 16q-20 10 -40 15t-42 5h-84q-72 0 -121 -50t-49 -120v-172v-84v-170q0 -76 49 -121zM428 217q0 -23 23 -22 q23 0 22 22q0 25 -22 25q-23 0 -23 -25z" />
<glyph unicode="d" horiz-adv-x="1093" d="M983 934q0 72 -21.5 137.5t-62.5 118.5q66 -59 103.5 -142t37.5 -180v-434q0 -90 -33.5 -169t-93 -138t-138.5 -93t-169 -34h-86h-260h-125q-8 0 -10 5t4 9q10 10 17.5 21.5t13.5 27.5h43h260h86q90 0 169 35t138 93.5t93 137.5t34 169v436zM524 1399q90 0 169 -34 t138.5 -93.5t93 -138t33.5 -168.5v-435q0 -90 -33.5 -168.5t-93 -138t-138.5 -94.5t-169 -35h-88h-260h-125q-6 0 -8 6t4 11q43 37 43 157v957q0 123 -43 157q-6 6 -4 11.5t8 5.5h39h434zM397 1296q-10 0 -16 -7t-6 -17t6 -17.5t16 -7.5t17.5 7.5t7.5 17.5t-7.5 17t-17.5 7z M221 190q23 0 23 23q0 25 -23 25q-25 0 -24 -25q-1 -23 24 -23zM221 373q23 0 23 22q0 25 -23 25q-25 0 -24 -25q-1 -22 24 -22zM221 547q23 0 23 22q0 25 -23 25q-25 0 -24 -25q-1 -22 24 -22zM221 723q23 0 23 22q0 25 -23 25q-25 0 -24 -25q-1 -22 24 -22zM221 901 q25 0 25 25q0 23 -25 22q-23 0 -22 -22q-1 -25 22 -25zM197 1100q0 -23 24 -23q23 0 23 23q0 25 -23 24q-24 1 -24 -24zM221 1253q25 0 25 25q0 10 -7.5 17.5t-17.5 7.5t-16 -7.5t-6 -17.5q-1 -25 22 -25zM375 184q23 0 22 23q0 25 -22 24q-23 0 -23 -24q0 -23 23 -23z M541 197q10 0 17 6t7 16t-7 17.5t-17 7.5t-17.5 -7.5t-7.5 -17.5t7.5 -16t17.5 -6zM846 528q25 0 24 23q0 25 -24 24q-23 0 -23 -24q0 -23 23 -23zM817 711q0 -10 6 -17.5t17 -7.5q10 0 17 7t7 18q0 25 -24 24q-23 1 -23 -24zM864 872q0 23 -22 23q-25 0 -25 -23 q0 -25 25 -24q22 -1 22 24zM817 1071q-23 0 -22 -24q0 -23 22 -23q25 0 25 23q0 24 -25 24zM803 426q-23 0 -23 -25q0 -23 23 -22q25 0 24 22q1 25 -24 25zM745 1221q-10 0 -17 -7.5t-7 -17.5t7 -17.5t17 -7.5t16.5 7.5t6.5 17.5t-6.5 17.5t-16.5 7.5zM721 260q0 10 -7 17.5 t-18 7.5q-10 0 -17 -7.5t-7 -17.5t7 -16t17 -6t17.5 6t7.5 16zM698 965q0 27 -10 57q-41 20 -82 20h-174v-348v-260v-78h92q72 0 123 51.5t51 122.5v435zM672 1057q-23 37 -62 59.5t-86 22.5h-174v-348v-261v-174h25v142v262v348h174q35 0 67.5 -14t55.5 -37zM590 1278 q-25 0 -25 -25q0 -23 25 -22q23 0 22 22q1 25 -22 25z" />
<glyph unicode="e" horiz-adv-x="1134" d="M1085 1276q8 0 9.5 -5t-2.5 -9q-43 -37 -43 -156v-86v-37q0 -6 -5.5 -8t-9.5 4q-35 41 -155 41h-424v-84v-78h174q119 0 155 43q4 4 9.5 3t5.5 -9v-37v-86v-170v-35q0 -8 -5.5 -10t-9.5 4q-35 41 -155 41h-256v-84v-170h24v139v86h254q119 0 156 -43q4 -6 10 -4t6 11v36 v170v37q27 12 41 27q4 6 9.5 4t5.5 -10v-35v-86v-170v-37q0 -8 -5.5 -9t-9.5 3q-37 43 -155 43h-254v-86v-76h344q119 0 155 41q4 6 9.5 5t5.5 -9v-37v-86q0 -121 41 -156q6 -4 5 -9t-9 -5h-926q-6 0 -8 5t4 9q41 37 41 156v86v850q0 170 -84 170h973q8 0 9 -5t-5 -9 q-41 -35 -41 -156v-84v-37q0 -8 -5.5 -10t-9.5 4q-37 43 -155 43h-426v-86v-170h24v139v86h426q119 0 154 -43q4 -4 10 -3t6 10v36v86q0 66 13 107h79zM868 1270q-10 0 -17 -7.5t-7 -17.5t7 -16t17 -6q23 0 23 22q0 10 -6.5 17.5t-16.5 7.5zM715 1270q-10 0 -16.5 -7.5 t-6.5 -17.5q0 -23 23 -22q10 0 17 6t7 16t-7 17.5t-17 7.5zM559 1270q-10 0 -17 -7.5t-7 -17.5q0 -23 24 -22q23 0 23 22q0 10 -6.5 17.5t-16.5 7.5zM399 1270q-10 0 -17 -7.5t-7 -17.5q0 -23 24 -22q23 0 23 22q0 10 -6.5 17.5t-16.5 7.5zM868 227q-23 0 -22 -24 q0 -23 22 -23q10 0 17.5 6.5t7.5 16.5t-7.5 17t-17.5 7zM705 227q-23 0 -23 -24q0 -23 23 -23t22 23q1 24 -22 24zM547 227q-23 0 -23 -24q0 -23 23 -23q25 0 24 23q1 24 -24 24zM707 750q-10 0 -17.5 -7.5t-7.5 -17.5q0 -23 25 -23q23 0 22 23q0 10 -6 17.5t-16 7.5z M549 750q-10 0 -16.5 -7.5t-6.5 -17.5q0 -23 23 -23t22 23q0 10 -6 17.5t-16 7.5zM238 180q23 0 22 23q0 25 -22 24q-25 0 -25 -24q0 -23 25 -23zM238 358q23 0 22 23q0 23 -22 22q-25 0 -25 -22q0 -23 25 -23zM238 528q23 0 22 25q0 23 -22 22q-25 0 -25 -22q0 -25 25 -25z M238 702q23 0 22 23q0 10 -6 17.5t-16 7.5t-17.5 -7.5t-7.5 -17.5q0 -23 25 -23zM238 877q10 0 17 7t7 17t-7 16.5t-17 6.5q-23 0 -23 -23q0 -24 23 -24zM213 1073q0 -25 25 -24q23 0 22 24q0 23 -22 23q-25 0 -25 -23zM238 1223q10 0 17 6t7 16t-7 17.5t-17 7.5t-16.5 -7.5 t-6.5 -17.5q0 -22 23 -22zM393 227q-23 0 -22 -24q0 -23 22 -23q10 0 17.5 6.5t7.5 16.5t-7.5 17t-17.5 7zM395 702q23 0 23 23q0 10 -6 17.5t-17 7.5q-10 0 -17 -7.5t-7 -17.5q-1 -23 24 -23zM1049 170q0 -123 43 -156q4 -4 3 -9t-10 -5h-923q-8 0 -9 5t3 9q18 16 28 47 h846q6 0 8 5.5t-2 9.5q-43 37 -43 155v39q14 4 23.5 11.5t17.5 15.5q4 6 9.5 4t5.5 -10v-37v-84z" />
<glyph unicode="f" horiz-adv-x="1079" d="M821 809q16 12 17 -6v-37v-84v-170v-37q0 -8 -5.5 -10t-11.5 4q-35 43 -153 43h-256v-86v-170v-86q0 -121 43 -154q6 -6 4 -11t-10 -5h-328q-8 0 -10 5t4 11q20 16 28 47h250q6 0 8 5.5t-4 9.5q-41 37 -41 155v86v170v84h254q119 0 156 -41q4 -6 9 -4t5 9v36v170v39 q31 11 41 27zM1044 1276q8 0 9.5 -5t-4.5 -9q-41 -35 -41 -156v-84v-37q0 -8 -5.5 -9t-9.5 3q-37 43 -155 43h-426v-162h176q119 0 153 41q4 6 10.5 4t6.5 -8v-37v-86v-170v-37q0 -8 -6.5 -9t-10.5 3q-35 43 -153 43h-256v-86v-170v-84q0 -121 41 -155q6 -4 4 -10.5t-8 -6.5 h-330q-6 0 -8 6t4 11q41 35 41 155v84v852q0 119 -41 156q-6 4 -4 9t8 5h924q8 0 10 -5t-4 -9q-41 -35 -41 -156v-86v-37q0 -6 -6.5 -8t-10.5 4q-35 41 -153 41h-426v-170v-84h24v55v170h424q121 0 156 -43q4 -6 10 -4t6 11v36v84q0 35 2 60.5t11 46.5h79zM819 1272 q-23 0 -22 -25q0 -23 22 -22q23 0 23 22q0 25 -23 25zM664 752q-25 0 -25 -23q0 -25 25 -24q23 0 22 24q1 23 -22 23zM506 752q-25 0 -25 -23q0 -25 25 -24q23 0 22 24q1 23 -22 23zM662 1272q-25 0 -25 -25q0 -23 25 -22q23 0 22 22q1 25 -22 25zM504 1272q-23 0 -23 -25 q0 -23 23 -22q10 0 17 6t7 16t-7 17.5t-17 7.5zM199 184q23 0 22 23q0 23 -22 22q-23 0 -23 -22q0 -23 23 -23zM199 362q23 0 22 23q0 23 -22 23q-23 0 -23 -23t23 -23zM199 532q23 0 22 23q0 23 -22 23q-23 0 -23 -23t23 -23zM199 705q23 0 22 24q0 23 -22 23 q-23 0 -23 -23q0 -24 23 -24zM201 881q23 0 22 22q0 23 -22 23q-23 0 -23 -23q0 -22 23 -22zM176 1075q0 -23 23 -22q23 0 22 22q0 23 -22 23q-23 0 -23 -23zM201 1225q23 0 22 22q0 25 -22 25q-23 0 -23 -25q0 -22 23 -22zM350 1272q-10 0 -17 -7.5t-7 -17.5t7 -16t17 -6 q23 0 23 22q0 25 -23 25zM352 711q23 0 23 22q0 25 -23 25q-25 0 -24 -25q-1 -22 24 -22z" />
<glyph unicode="g" horiz-adv-x="1083" d="M745 850q-6 0 -8 5t2 9q18 20 15 49h237q0 72 -21.5 135.5t-60.5 116.5q63 -59 100.5 -140t37.5 -175h-254h-48zM537 0q-104 0 -193.5 47t-148.5 127q57 -53 129.5 -83t156.5 -30h84q88 0 166 34t135.5 92.5t91 135t33.5 164.5v193h8h48v-254q0 -88 -33 -166t-90.5 -135 t-135 -91t-165.5 -34h-86zM457 92q-88 0 -166 34t-135.5 92t-91 135t-33.5 165v426q0 88 33.5 166t91 135.5t135.5 91t166 33.5h86q88 0 164.5 -33.5t134 -91t91.5 -135.5t34 -166h-254h-47q-16 0 -7 14q18 23 15 56q-12 4 -24.5 6t-26.5 2h-86q-35 0 -66 -13.5t-54.5 -37 t-36.5 -54t-13 -67.5v-78q2 0 4 2h37h510h49v-256q0 -88 -34 -165t-91.5 -135t-134 -92t-164.5 -34h-86zM803 1092q-10 0 -17.5 -7.5t-7.5 -17.5t7.5 -16.5t17.5 -6.5q23 0 22 23q1 25 -22 25zM616 188q23 0 23 25q0 23 -23 23t-22 -23q-1 -25 22 -25zM846 668 q-23 0 -23 -25q0 -23 23 -22q10 0 17 6t7 16t-7 17.5t-17 7.5zM821 489q-23 0 -22 -22q0 -23 22 -23q10 0 17.5 6.5t7.5 16.5t-7.5 16t-17.5 6zM768 330q-10 0 -16.5 -7.5t-6.5 -17.5q0 -23 23 -22q23 0 23 22q0 10 -6.5 17.5t-16.5 7.5zM688 668q-25 0 -24 -25 q0 -23 24 -22q23 0 23 22q0 25 -23 25zM522 668q-25 0 -24 -25q0 -23 24 -22q23 0 23 22q0 25 -23 25zM688 1217q-25 0 -24 -23q0 -23 24 -23q23 0 23 23t-23 23zM522 1264q-23 0 -22 -25q0 -23 22 -22q23 0 23 22q0 25 -23 25zM352 1235q-23 0 -22 -25q0 -23 22 -22 q25 0 25 22q0 25 -25 25zM176 393q23 0 23 23t-23 22q-25 0 -24 -22q-1 -23 24 -23zM176 567q23 0 23 23q0 10 -6.5 17t-16.5 7t-17 -7t-7 -17q-1 -23 24 -23zM176 739q23 0 23 23q0 10 -6.5 17t-16.5 7t-17 -7t-7 -17q-1 -23 24 -23zM176 909q23 0 23 25q0 23 -23 22 q-25 0 -24 -22q-1 -25 24 -25zM213 1079q23 0 23 23t-23 22q-25 0 -25 -22q0 -23 25 -23zM283 242q10 0 16 7t6 17q0 23 -22 23q-10 0 -17.5 -6.5t-7.5 -16.5t7.5 -17t17.5 -7zM336 397q-25 39 -25 90v170v86v170q0 72 49.5 121t120.5 49h84q43 0 82 -20q8 -4 10 -6 q0 4 -2 4q-12 20 -32 33q-39 20 -80 20h-86q-72 0 -121 -49t-49 -121v-170v-86v-170q0 -72 49 -121zM367 426q0 -27 10 -57q41 -20 80 -21h86q41 0 80 21q18 10 34.5 24.5t26.5 32.5h-27h-170v61h115h68h39q4 20 4 31h-68h-67h-170v86q0 117 -41 154v-78v-84v-170zM428 213 q0 -25 23 -25q25 0 24 25q0 23 -24 23q-23 0 -23 -23z" />
<glyph unicode="h" horiz-adv-x="1107" d="M961 1169q0 66 12 109h80q8 0 10 -5t-4 -11q-43 -35 -43 -156v-936q0 -121 43 -154q6 -6 4 -11t-10 -5h-328q-8 0 -10 5t4 11q18 16 29 47h247q10 0 11.5 5.5t-5.5 9.5q-41 35 -40 155v936zM463 16q6 -6 4 -11t-10 -5h-328q-8 0 -10 5t4 11q18 16 29 47h249q8 0 9.5 5.5 t-4.5 9.5q-41 37 -41 155v256v84h315v31h-340v-84v-256q0 -119 41 -155q6 -4 5 -9.5t-9 -5.5h-328q-8 0 -10 5t4 10q41 37 41 155v86v850q0 119 -41 156q-6 4 -4 9t10 5h328q8 0 9 -5t-5 -9q-41 -37 -41 -156v-170v-170h25v139v170q0 66 12 109h80q8 0 10 -5t-4 -11 q-43 -35 -43 -156v-170v-76h260v170v170q0 119 -41 156q-6 4 -5 9t9 5h330q8 0 9 -5t-5 -9q-41 -37 -41 -156v-936q0 -119 41 -155q6 -4 5 -9.5t-9 -5.5h-330q-8 0 -9 5t5 10q41 37 41 155v248h-260v-86v-256q0 -121 43 -154zM813 760q-23 0 -22 -23q0 -25 22 -24 q10 0 17.5 7t7.5 17t-7.5 16.5t-17.5 6.5zM784 922q0 -10 7.5 -16.5t17.5 -6.5q23 0 22 23q0 25 -22 24q-10 0 -17.5 -7t-7.5 -17zM809 1292q-10 0 -17.5 -7t-7.5 -17t7.5 -16.5t17.5 -6.5q23 0 22 23q0 10 -6 17t-16 7zM807 1118q-23 0 -23 -24q0 -23 23 -23q10 0 17 6 t7 17q0 10 -7 17t-17 7zM807 598q-23 0 -23 -23q0 -25 23 -24q10 0 17 7t7 17t-7 16.5t-17 6.5zM807 428q-10 0 -16.5 -7t-6.5 -18q0 -23 23 -22q10 0 17 6t7 16t-7 17.5t-17 7.5zM807 250q-10 0 -16.5 -7t-6.5 -18q0 -23 23 -22q10 0 17 6t7 16t-7 17.5t-17 7.5zM209 180 q23 0 22 23q0 23 -22 22q-25 0 -25 -22q0 -23 25 -23zM209 356q10 0 16 7.5t6 17.5q0 23 -22 22q-25 0 -25 -22q0 -10 7.5 -17.5t17.5 -7.5zM209 528q23 0 22 23q0 25 -22 24q-25 0 -25 -24q0 -23 25 -23zM209 700q10 0 16 7.5t6 17.5q0 23 -22 23q-25 0 -25 -23 q0 -10 7.5 -17.5t17.5 -7.5zM209 877q10 0 17 6t7 16t-7 16.5t-17 6.5q-23 0 -23 -23q0 -22 23 -22zM184 1071q0 -23 25 -22q23 0 22 22q0 23 -22 23q-25 0 -25 -23zM209 1221q10 0 17 7t7 17t-7 16.5t-17 6.5q-23 0 -23 -23q0 -24 23 -24zM406 707q23 0 22 22q0 10 -6 17.5 t-16 7.5t-17.5 -7.5t-7.5 -17.5t7.5 -16t17.5 -6zM598 707q23 0 23 22q0 10 -6.5 17.5t-16.5 7.5t-17.5 -7.5t-7.5 -17.5t7.5 -16t17.5 -6z" />
<glyph unicode="i" horiz-adv-x="518" d="M410 66q8 0 9 5t-3 9q-43 37 -43 160v86v346v276v158v88q0 68 12 109h45h37q8 0 10 -5.5t-4 -9.5q-43 -37 -43 -158v-88v-157v-277v-348v-86q0 -121 43 -158q6 -4 4 -10t-10 -6h-336q-8 0 -9 6t3 10q10 8 17.5 20.5t13.5 29.5h254zM43 111q43 37 43 159v955 q0 123 -43 159q-6 4 -4 9.5t10 5.5h211h88h37q8 0 9 -5t-3 -10q-43 -35 -43 -159v-86v-160v-277v-346v-86q0 -125 43 -159q4 -4 3 -9.5t-9 -5.5h-336q-8 0 -10 5.5t4 9.5zM219 1311q-10 0 -17 -7.5t-7 -17.5t7 -17t17 -7t16.5 7t6.5 17t-6.5 17.5t-16.5 7.5zM217 1133 q-25 0 -24 -25q0 -23 24 -23q23 0 23 23q0 25 -23 25zM242 934q0 23 -23 22q-25 0 -24 -22q0 -25 24 -25q23 0 23 25zM217 778q-25 0 -24 -22q0 -25 24 -25q23 0 23 25q0 22 -23 22zM217 602q-25 0 -24 -24q0 -23 24 -23q23 0 23 23q0 24 -23 24zM217 428q-25 0 -24 -25 q0 -23 24 -22q23 0 23 22q0 25 -23 25zM217 246q-25 0 -24 -25q0 -23 24 -22q23 0 23 22q0 25 -23 25z" />
<glyph unicode="j" horiz-adv-x="1067" d="M1040 1274q6 0 8.5 -4t-4.5 -10q-41 -35 -40 -156v-680q0 -88 -34 -165t-92.5 -134t-135 -91t-164.5 -34q-106 0 -195.5 47t-149.5 125q57 -51 130 -81t157 -30q88 0 166 34t135.5 91.5t91 135t33.5 165.5v680q0 72 15 107h79zM369 674q-41 -35 -41 -156q0 -76 49 -121 q-27 39 -27 90q0 70 15 107h43h36q8 0 9.5 -5t-4.5 -9q-41 -35 -41 -156q0 -27 10 -57q18 -10 37.5 -15.5t42.5 -5.5q70 0 120 50t50 122v170v254v78h-346q-119 0 -154 -41q-6 -6 -11 -5t-5 9v37v47q45 16 114 16h402v31h-426q-117 0 -156 -43q-4 -6 -9 -4t-5 10v37v84 q0 119 -43 156q-6 4 -4 9t10 5h37h886q8 0 10.5 -5t-3.5 -9q-43 -37 -43 -156v-680q0 -88 -34 -166t-91.5 -135t-134 -91t-164.5 -34t-166 34t-135.5 91t-91 135t-33.5 166q0 119 -43 156q-6 4 -4 9t10 5h37h256h34q8 0 10.5 -5t-3.5 -9zM190 1227q4 8 2 17t-10 13 q-23 14 -32 -8q-4 -8 -2 -17t10 -13q22 -12 32 8zM342 1227q4 8 2 17t-10 13q-18 12 -33 -8q-4 -8 -2 -17t10 -13q23 -12 33 8zM498 1233q8 20 -11 31q-8 4 -17 3t-13 -12q-4 -8 -2 -17t10 -13q19 -12 33 8zM657 1227q4 8 2 17t-10 13q-23 14 -33 -8q-4 -8 -2 -17t11 -13 q8 -4 18 -3t14 11zM795 1042q23 0 22 23q0 23 -22 22q-25 0 -25 -22q0 -23 25 -23zM772 1249q-8 -20 10 -30q8 -4 17.5 -3t13.5 11q4 8 2 17t-10 13q-19 12 -33 -8zM793 915q-10 0 -16.5 -7t-6.5 -17q0 -23 23 -23t22 23q0 10 -6 17t-16 7zM817 719q0 25 -22 24 q-25 0 -25 -24q0 -23 25 -23q22 0 22 23zM793 569q-10 0 -16.5 -7t-6.5 -17q0 -23 23 -23t22 23q0 10 -6 17t-16 7zM770 395q-23 0 -22 -24q0 -23 22 -23q23 0 23 23q0 24 -23 24zM653 270q-23 0 -22 -22q0 -23 22 -23q23 0 23 23q0 22 -23 22zM500 236q-25 0 -25 -23 t25 -23q23 0 22 23q1 23 -22 23zM180 578q0 -10 7.5 -16.5t17.5 -6.5q23 0 22 23q0 25 -22 24q-10 0 -17.5 -7t-7.5 -17zM217 393q23 0 23 25q0 23 -23 22q-25 0 -24 -22q-1 -25 24 -25zM336 297q-10 0 -17.5 -7t-7.5 -18q0 -10 7.5 -16t17.5 -6q23 0 22 22q1 25 -22 25z " />
<glyph unicode="k" horiz-adv-x="1024" d="M1004 1276q8 0 9 -5t-5 -9q-41 -35 -41 -156v-43q0 -109 -45 -208t-127 -173q-2 4 -11 12q49 -66 75 -142.5t26 -160.5v-41v-86q0 -119 43 -155q6 -4 4 -9.5t-10 -5.5h-328q-8 0 -10 5t4 10q43 37 43 155v86v41q0 61 -29 115q-63 47 -145 47h-43v-127v-170v-86 q0 -121 41 -156q6 -4 4 -9t-10 -5h-35h-86h-207q-8 0 -9 5t3 9q10 8 17 20.5t13 28.5h125h86h37q8 0 9 5.5t-3 9.5q-43 37 -43 155v84v170v129h43q55 0 103.5 -21.5t83.5 -59.5q-35 51 -90.5 81.5t-120.5 30.5h-43v-127v-170v-86q0 -119 43 -155q4 -4 3 -9.5t-9 -5.5h-37 h-86h-205q-8 0 -10 5t4 10q41 35 41 155v936q0 121 -41 154q-6 6 -4 11t10 5h328q18 0 6 -16q-43 -35 -43 -154v-98v-201h24v170v98q0 66 13 107h80q8 0 10 -5t-4 -9q-41 -35 -41 -156v-96v-105q92 14 154.5 84t62.5 168v43q0 119 -43 154q-6 6 -4 11t10 5h328q8 0 10 -5 t-4 -11q-43 -35 -43 -154v-43q0 -111 -45 -211t-127 -172q8 -6 14 -13t14 -13q80 72 124 171t44 207v43q0 66 13 107h82zM766 1278q-23 0 -23 -23t23 -22q23 0 22 22q1 23 -22 23zM745 1108q-23 0 -22 -23q0 -23 22 -22q25 0 25 22q0 23 -25 23zM205 184q23 0 22 23 q0 10 -6 17t-16 7t-17.5 -7t-7.5 -17q0 -23 25 -23zM205 362q23 0 22 23q0 23 -22 23q-25 0 -25 -23t25 -23zM205 532q23 0 22 25q0 23 -22 23q-25 0 -25 -23q0 -25 25 -25zM205 707q23 0 22 22q0 10 -6 17.5t-16 7.5t-17.5 -7.5t-7.5 -17.5q0 -22 25 -22zM207 881 q23 0 22 22q0 25 -22 25q-25 0 -25 -25q0 -22 25 -22zM180 1075q0 -23 25 -22q23 0 22 22q0 10 -6 17.5t-16 7.5t-17.5 -7.5t-7.5 -17.5zM207 1227q23 0 22 22q0 23 -22 23q-25 0 -25 -23q0 -22 25 -22zM358 754q20 0 21 22q0 23 -21 23q-25 0 -24 -23q-1 -22 24 -22z M541 760q23 0 22 22q0 10 -6 17.5t-16 7.5t-17.5 -7t-7.5 -18q0 -22 25 -22zM647 641q23 0 23 23q0 25 -23 24q-23 0 -22 -24q-1 -23 22 -23zM670 893q23 0 22 22q0 10 -6 17.5t-16 7.5t-16.5 -7t-6.5 -18q0 -22 23 -22zM707 520q0 -25 22 -24q23 0 23 24q0 23 -23 23 q-22 0 -22 -23zM754 160q10 0 16 7t6 17q0 23 -22 23q-10 0 -17.5 -6t-7.5 -17q0 -10 7.5 -17t17.5 -7zM795 350q0 23 -25 23q-23 0 -22 -23q0 -25 22 -24q25 -1 25 24zM967 170q0 -121 41 -156q6 -4 5 -9t-9 -5h-330q-8 0 -9 5t3 9q10 8 17 20.5t13 28.5h248q8 0 9 5.5 t-3 9.5q-43 37 -43 155v84v43q0 174 -104 310q78 -72 120 -169.5t42 -203.5v-41v-86z" />
<glyph unicode="l" horiz-adv-x="911" d="M854 174q0 -123 43 -160q4 -4 3 -9t-9 -5h-37h-733h-2q-6 0 -7 5t3 9q10 10 17 21.5t13 27.5h652h37q8 0 9 6.5t-3 10.5q-43 35 -43 158v38q14 4 23 11.5t18 15.5q4 6 10 4t6 -8v-39v-86zM770 356v-88q0 -121 43 -157q6 -4 5 -10.5t-11 -6.5h-37h-731h-2q-6 2 -8 7t4 10 q43 37 43 157v88v869q0 123 -43 157q-6 4 -4 10.5t10 6.5h336q6 0 8 -6.5t-4 -10.5q-43 -35 -43 -157v-174v-174v-261v-86v-174h24v142v88v260v174v174q0 72 15 109h82q8 0 9 -5.5t-5 -9.5q-43 -39 -43 -158v-174v-174v-262v-86v-78h178q123 0 160 43q4 4 9 3t5 -9v-37z M209 184q25 0 24 23q0 25 -24 24q-23 0 -23 -24q0 -23 23 -23zM209 365q10 0 17 7t7 17t-7 17.5t-17 7.5t-16.5 -7.5t-6.5 -17.5t6.5 -17t16.5 -7zM209 539q10 0 17 7t7 17t-7 17.5t-17 7.5t-16.5 -7.5t-6.5 -17.5t6.5 -17t16.5 -7zM209 717q25 0 24 22q0 25 -24 25 q-23 0 -23 -25q0 -22 23 -22zM211 895q23 0 22 25q0 23 -22 22q-25 0 -25 -22q0 -25 25 -25zM186 1094q0 -23 23 -23q25 0 24 23q0 25 -24 24q-23 1 -23 -24zM211 1247q23 0 22 23q0 25 -22 24q-25 0 -25 -24q0 -23 25 -23zM422 184q25 0 24 23q0 25 -24 24q-23 0 -23 -24 q0 -23 23 -23zM631 184q25 0 24 23q0 25 -24 24q-23 0 -23 -24q0 -23 23 -23z" />
<glyph unicode="m" horiz-adv-x="1361" d="M1333 14q6 -4 4 -9t-10 -5h-336q-8 0 -9 5t3 9q23 23 31 49h254q8 0 10 5.5t-6 11.5q-43 37 -43 158v86v348v276v72v86v88q0 35 4 61.5t10 47.5h82q8 0 10 -5.5t-4 -9.5q-43 -37 -43 -160v-86v-88v-69v-277v-348v-86q0 -123 43 -160zM903 1384q-6 4 -4 9.5t10 5.5h211 h125q6 0 8 -5t-4 -10q-41 -35 -41 -159v-86v-88v-72v-277v-346v-86q0 -125 41 -159q6 -4 4 -9.5t-8 -5.5h-336q-8 0 -10 5t4 10q43 37 43 159v41l-67 -166q-37 -88 -15 -133q2 -12 -8 -12h-260q-14 0 -8 12q10 25 8 51h203q12 0 6 13q-20 43 16 133l125 305v92l-149 -366 q-35 -86 -17 -131q6 -12 -8 -13h-258q-14 0 -8 13q23 43 -14 131l-72 172v-187v-2v-49q0 -121 43 -160q6 -4 5 -9t-9 -5h-336q-8 0 -9 5t3 9q10 10 17 21.5t13 27.5h254q20 0 5 17q-43 33 -44 158v49v2v262l-24 59v-288v-5v-47q0 -123 43 -159q6 -4 4 -9.5t-10 -5.5h-334 q-8 0 -10 5t4 10q43 37 43 159v955q0 123 -43 159q-6 4 -4 9.5t10 5.5h211h123q8 0 10 -5t-4 -10q-23 -18 -35 -67q-6 -25 4 -53l293 -707l6 14l-272 662q-12 27 -6 51q2 6 3 10t3 9h82q8 0 9 -5.5t-5 -9.5q-25 -25 -33 -67q-8 -27 4 -52l230 -559l270 654q10 29 4 53 q-8 44 -35 67zM201 199q10 0 17 7t7 17t-7 16.5t-17 6.5t-17.5 -6.5t-7.5 -16.5t7.5 -17t17.5 -7zM201 381q10 0 17 6t7 16t-7 17.5t-17 7.5t-17.5 -7t-7.5 -18q0 -10 7.5 -16t17.5 -6zM201 555q10 0 17 7t7 18q0 10 -7 16t-17 6t-17.5 -6t-7.5 -16t7.5 -17.5t17.5 -7.5z M201 731q10 0 17 7t7 18q0 10 -7 16t-17 6t-17.5 -6t-7.5 -16t7.5 -17.5t17.5 -7.5zM203 911q23 0 22 23q0 23 -22 22q-25 0 -25 -22q0 -23 25 -23zM176 1110q0 -10 7 -17.5t18 -7.5q10 0 17 7.5t7 17.5t-7 16.5t-17 6.5t-17.5 -6.5t-7.5 -16.5zM203 1262q10 0 16 7t6 17 t-6 17.5t-16 7.5t-17.5 -7.5t-7.5 -17.5t7.5 -17t17.5 -7zM303 1034q25 0 25 25q0 10 -7.5 17t-17.5 7t-16 -7t-6 -17q-1 -25 22 -25zM358 870q10 0 17.5 6.5t7.5 16.5t-7 17.5t-18 7.5q-25 0 -24 -25q-1 -23 24 -23zM418 709q25 0 24 24q0 23 -24 23q-23 0 -23 -23 q0 -24 23 -24zM492 547q23 0 22 22q0 25 -22 25q-25 0 -25 -25q0 -22 25 -22zM563 387q23 0 23 23q0 25 -23 24q-25 0 -24 -24q-1 -23 24 -23zM635 223q25 0 24 23q0 10 -7 17t-17 7t-16.5 -7t-6.5 -17q0 -23 23 -23zM715 389q23 0 22 23q0 25 -22 24q-23 0 -23 -24 q0 -23 23 -23zM784 547q10 0 16.5 7t6.5 17t-6 17.5t-17 7.5q-10 0 -16 -7t-6 -18q0 -10 6 -17t16 -7zM854 711q10 0 17.5 6t7.5 16t-7.5 17.5t-17.5 7.5q-23 0 -23 -25q0 -22 23 -22zM1087 1309q-10 0 -17 -6.5t-7 -16.5t7 -17t17 -7t17.5 7t7.5 17t-7.5 16.5t-17.5 6.5z M1085 1133q-23 0 -22 -25q0 -10 6 -17.5t16 -7.5t17.5 7.5t7.5 17.5t-7.5 17.5t-17.5 7.5zM1112 932q0 10 -7 17t-18 7q-10 0 -17 -7t-7 -17t7 -16.5t17 -6.5t17.5 6.5t7.5 16.5zM1085 778q-23 0 -22 -22q0 -25 22 -25q10 0 17.5 7t7.5 18q0 10 -7.5 16t-17.5 6zM1085 602 q-10 0 -16 -7t-6 -17t6 -17.5t16 -7.5t17.5 7t7.5 18q0 10 -7.5 17t-17.5 7zM1085 428q-10 0 -16 -7t-6 -18q0 -10 6 -17t16 -7t17.5 7t7.5 17t-7.5 17.5t-17.5 7.5zM1085 246q-23 0 -22 -25q0 -23 22 -22q10 0 17.5 6t7.5 16t-7.5 17.5t-17.5 7.5zM995 1085q-25 0 -24 -22 q0 -25 24 -25q23 0 23 25q0 22 -23 22zM948 907q0 23 -22 23q-10 0 -17.5 -6t-7.5 -17q0 -10 7 -17t18 -7q22 -1 22 24z" />
<glyph unicode="n" horiz-adv-x="1101" d="M1059 1262q-41 -33 -41 -156v-936q0 -121 41 -156q6 -4 4 -9t-10 -5h-328q-8 0 -9 5t3 9q20 20 29 49h249q6 0 8.5 5.5t-4.5 9.5q-41 37 -40 155v936q0 66 12 107h80q8 0 10 -5t-4 -9zM84 348v852q0 121 -41 156q-6 4 -4 9t8 5h330q8 0 9 -5t-3 -9q-27 -27 -35 -74 q-10 -39 -3 -68.5t30 -62.5l305 -428v4l-281 393q-23 33 -28.5 63.5t0.5 69.5q4 16 6 23h80q8 0 10 -5t-4 -9q-25 -23 -35 -72q-14 -72 29 -133l223 -314v115v170v172q0 119 -43 156q-4 4 -2 9t8 5h330q8 0 9 -5t-3 -9q-43 -37 -43 -156v-936q0 -123 43 -155q4 -4 3 -10.5 t-9 -6.5h-330q-6 0 -8 6t2 11q35 29 41 110q6 63 -31 113l-225 315v-137v-84v-256q0 -121 41 -156q6 -4 4 -9t-10 -5h-328q-8 0 -9 5t3 9q18 16 31 49h247q8 0 9.5 5.5t-4.5 9.5q-41 37 -41 155v256v84v154l-25 33v-156v-86v-254q0 -123 43 -155q4 -4 3 -10.5t-9 -6.5h-330 q-6 0 -8 6t4 11q41 33 41 155v84zM813 1286q-23 0 -22 -24q0 -23 22 -23q23 0 23 23q0 24 -23 24zM811 1112q-23 0 -23 -25q0 -23 23 -22q25 0 25 22q0 25 -25 25zM836 918q0 23 -23 22q-23 0 -22 -22q0 -23 22 -23q23 0 23 23zM811 766q-23 0 -23 -25q0 -23 23 -22 q25 0 25 22q0 25 -25 25zM811 592q-23 0 -23 -23t23 -22q25 0 25 22q0 23 -25 23zM811 422q-23 0 -23 -25q0 -23 23 -22q25 0 25 22q0 25 -25 25zM811 244q-23 0 -23 -23q0 -25 23 -24q25 0 25 24q0 23 -25 23zM713 451q-18 -18 0 -35q2 -6 12 -6l-2 47q-8 -4 -10 -6z M616 616q-25 0 -24 -24q0 -23 24 -23q23 0 23 23q0 24 -23 24zM516 766q-23 0 -22 -25q0 -23 22 -22q25 0 25 22q0 25 -25 25zM412 899q-10 0 -17.5 -6t-7.5 -16t7 -16.5t18 -6.5q23 0 22 23q1 22 -22 22zM328 1034q-6 6 -15 6l4 -47q8 4 11 6q6 8 6 18.5t-6 16.5zM215 1272 q-23 0 -22 -23q0 -23 22 -22q23 0 23 22q0 23 -23 23zM213 1100q-10 0 -16.5 -7.5t-6.5 -17.5q0 -23 23 -22q25 0 25 22q0 10 -7.5 17.5t-17.5 7.5zM238 903q0 25 -23 25t-22 -25q0 -23 22 -22q23 -1 23 22zM213 754q-10 0 -16.5 -7.5t-6.5 -17.5q0 -23 23 -22q25 0 25 22 q0 10 -7.5 17.5t-17.5 7.5zM213 580q-23 0 -23 -25q0 -23 23 -23q25 0 25 23q0 25 -25 25zM213 410q-10 0 -16.5 -7.5t-6.5 -17.5q0 -23 23 -23q25 0 25 23q0 10 -7.5 17.5t-17.5 7.5zM213 231q-23 0 -23 -24q0 -23 23 -23q25 0 25 23q0 24 -25 24z" />
<glyph unicode="o" horiz-adv-x="1157" d="M1030 932q0 72 -21.5 138.5t-60.5 119.5q66 -59 104 -142t38 -180v-434q0 -90 -34 -169t-93.5 -138t-139.5 -93t-170 -34h-86q-109 0 -200 48t-150 128q59 -53 133 -83t160 -30h86q90 0 170 34t138.5 93.5t92 138.5t33.5 169v434zM485 94q-90 0 -169.5 34t-139 93.5 t-93.5 138t-34 168.5v437q0 88 34 166.5t93.5 138t139 93.5t169.5 34h86q90 0 169 -34t138.5 -93.5t93.5 -138t34 -166.5v-437q0 -90 -34 -168.5t-93.5 -138t-138 -93.5t-169.5 -34h-86zM403 221q23 0 23 23q0 25 -23 24q-25 0 -24 -24q-1 -23 24 -23zM571 203q23 0 23 24 q0 10 -6 17.5t-17 7.5q-10 0 -17 -7t-7 -18q-1 -24 24 -24zM877 537q25 0 24 22q0 23 -24 23q-23 0 -23 -23q0 -22 23 -22zM848 719q0 -10 7 -17.5t17 -7.5t16.5 7.5t6.5 17.5q0 25 -23 24q-24 1 -24 -24zM897 879q0 10 -7 17t-18 7q-25 0 -24 -24q0 -23 24 -23 q10 0 17.5 6.5t7.5 16.5zM848 1079q-10 0 -16.5 -7t-6.5 -17q0 -25 23 -25q25 0 24 25q0 10 -7 17t-17 7zM836 434q-25 0 -25 -24q0 -23 25 -23q23 0 22 23q1 24 -22 24zM776 1227q-25 0 -24 -23q0 -25 24 -24q10 0 17.5 7t7.5 17t-7.5 16.5t-17.5 6.5zM727 244q25 0 25 24 q0 23 -25 23q-23 0 -22 -23q-1 -24 22 -24zM745 965q0 27 -10 57q-41 20 -82 20h-86q-72 0 -123 -51t-51 -123v-174v-86v-174q0 -29 10 -59q41 -20 82 -21h86q72 0 123 51.5t51 122.5v174v89v174zM621 1286q-10 0 -17.5 -7t-7.5 -17t7 -17.5t18 -7.5q10 0 17 7t7 18 q0 10 -7 17t-17 7zM426 1296q-23 0 -23 -24q0 -23 23 -23q25 0 25 23q0 24 -25 24zM311 528q0 -35 14.5 -67.5t36.5 -54.5q-27 43 -26 92v174v86v174q0 72 51 123t123 51h86q74 0 123 -49q-23 35 -62 57.5t-86 22.5h-86q-37 0 -68.5 -13.5t-55 -37t-37 -55.5t-13.5 -66v-174 v-89v-174zM274 1219q-23 0 -22 -23q0 -25 22 -25q25 0 25 25q0 23 -25 23zM252 365q-25 0 -25 -25q0 -23 25 -23q23 0 22 23q1 25 -22 25zM203 1053q-10 0 -17.5 -7.5t-7.5 -17.5t7.5 -17t17.5 -7t16 7t6 17t-6 17.5t-16 7.5zM190 866q-10 0 -17 -6t-7 -16t7 -17.5t17 -7.5 t17.5 7.5t7.5 17.5t-7.5 16t-17.5 6zM184 700q-23 0 -22 -22q0 -25 22 -25q25 0 25 25q0 22 -25 22zM166 500q0 -10 7 -17.5t17 -7.5t17.5 7t7.5 18q0 10 -7 16t-18 6q-10 0 -17 -6t-7 -16z" />
<glyph unicode="p" horiz-adv-x="1058" d="M432 434v-260q0 -123 43 -160q4 -4 3 -9t-9 -5h-125h-211q-8 0 -10 5t6 9q20 20 29 49h129h125q18 0 6 17q-45 37 -45 158v260h174q88 0 155.5 25.5t133.5 82.5q70 61 104.5 137t40.5 155t-16.5 154.5t-67.5 139.5q66 -59 103.5 -142t39.5 -172.5t-32.5 -177.5 t-114.5 -157q-66 -57 -133.5 -83t-155.5 -26h-172zM45 111q43 33 43 157v957q0 123 -43 157q-4 4 -3 10.5t9 6.5h211h260q100 0 181 -38t138.5 -100.5t87 -143.5t28.5 -166t-36.5 -167t-111.5 -147q-66 -57 -133.5 -82t-153.5 -25h-174v-262q0 -121 43 -157q6 -4 5 -10.5 t-11 -6.5h-123h-211q-8 0 -9 6.5t3 10.5zM399 645q10 0 17.5 6t7.5 17q0 10 -7 16t-18 6q-25 0 -24 -22q-1 -23 24 -23zM602 645q23 0 23 23t-23 22q-25 0 -24 -22q-1 -23 24 -23zM768 782q10 0 16.5 7.5t6.5 17.5q0 23 -23 22q-25 0 -25 -22q0 -10 7.5 -17.5t17.5 -7.5z M805 1022q-25 0 -25 -23q0 -25 25 -24q23 0 22 24q1 23 -22 23zM743 1198q-23 0 -22 -24q0 -10 6 -17.5t16 -7.5t17.5 7t7.5 18q0 24 -25 24zM696 965q0 27 -10 57q-41 20 -82 20h-172v-251h90q72 0 123 51t51 123zM584 1288q-23 0 -23 -24q0 -23 23 -23q25 0 24 23 q1 24 -24 24zM399 1305q-25 0 -24 -23q0 -25 24 -25q10 0 17.5 7.5t7.5 17.5t-7.5 16.5t-17.5 6.5zM348 791h25v315h174q76 0 123 -51q-23 39 -62 60.5t-86 21.5h-174v-346zM223 1305q-10 0 -17 -6.5t-7 -16.5t7 -17.5t17 -7.5t17.5 7.5t7.5 17.5t-7.5 16.5t-17.5 6.5z M221 1128q-10 0 -17 -7t-7 -17t7 -16.5t17 -6.5t17.5 6.5t7.5 16.5t-7.5 17t-17.5 7zM248 928q0 10 -7.5 17t-17.5 7t-17 -7t-7 -17t7 -16.5t17 -6.5t17.5 6.5t7.5 16.5zM221 774q-10 0 -17 -7t-7 -17t7 -16.5t17 -6.5t17.5 6t7.5 17q0 10 -7.5 17t-17.5 7zM221 598 q-10 0 -17 -7t-7 -18q0 -10 7 -16t17 -6t17.5 6t7.5 16t-7.5 17.5t-17.5 7.5zM221 422q-10 0 -17 -6t-7 -17q0 -10 7 -17t17 -7t17.5 7t7.5 17t-7.5 16.5t-17.5 6.5zM221 242q-10 0 -17 -7.5t-7 -17.5t7 -16t17 -6t17.5 6t7.5 16t-7.5 17.5t-17.5 7.5z" />
<glyph unicode="q" horiz-adv-x="1087" d="M915 1165q63 -59 100.5 -139t37.5 -174v-426q0 -88 -34 -168t-97 -139q4 -4 12 -8q6 -4 5 -10.5t-9 -6.5h-297l-6 8l-11 13l-163 235l-80 111v-35v-10q2 -12 4 -24.5t6 -22.5q6 -4 18 -9l189 -264q-10 -2 -21.5 -2h-21.5h-86q-88 0 -165 34t-134.5 91t-91 135t-33.5 166 v424q0 88 33.5 166t91 135.5t134.5 91t165 33.5h86q88 0 166 -33.5t135 -91t91 -135.5t34 -166v-424q0 -90 -36 -172t-101 -141q10 -10 17 -20.5t15 -18.5l-8 8q66 61 101.5 142t35.5 171v426q0 72 -21.5 134.5t-60.5 115.5zM866 858q0 23 -22 23q-25 0 -25 -23 q0 -25 25 -24q22 -1 22 24zM866 700q0 23 -24 23q-23 0 -23 -23q0 -10 6 -17t17 -7q10 0 17 7t7 17zM819 1053q-23 0 -22 -23q0 -25 22 -24q25 0 25 24q0 23 -25 23zM596 1255q-23 0 -23 -24q0 -23 23 -23q10 0 17.5 6.5t7.5 16.5t-7.5 17t-17.5 7zM408 1266 q-10 0 -17.5 -6.5t-7.5 -16.5t7 -17t18 -7q23 0 22 24q1 23 -22 23zM176 461q23 0 23 22q0 25 -23 25q-10 0 -17 -7t-7 -18q0 -10 7 -16t17 -6zM147 659q0 -23 23 -22q23 0 23 22q0 10 -6.5 17.5t-16.5 7.5t-16.5 -7.5t-6.5 -17.5zM176 799q23 0 23 22q0 23 -23 23 q-10 0 -17 -6.5t-7 -16.5t7 -16t17 -6zM188 979q10 0 16.5 7t6.5 18q0 23 -23 22q-23 0 -22 -22q0 -10 6 -17.5t16 -7.5zM236 305q10 0 16 7t6 18q0 23 -22 22q-10 0 -17.5 -6t-7.5 -16t7.5 -17.5t17.5 -7.5zM258 1145q23 0 23 22q0 23 -23 23t-22 -23q-1 -22 22 -22z M383 258q-23 0 -23 -22q0 -23 23 -23q10 0 17.5 6t7.5 17q0 10 -7.5 16t-17.5 6zM317 915q0 70 49.5 120t120.5 50h84q35 0 66 -14t53 -37q-23 37 -59.5 58.5t-83.5 21.5h-86q-70 0 -120 -49t-50 -121v-170v-84v-170q0 -6 2 -10q2 -66 49 -111q-20 33 -25 80v10v170v86v170z M539 399q10 0 17 6.5t7 16.5t-7 16t-17 6q-23 0 -23 -22q0 -23 23 -23zM621 287q25 0 24 22q0 25 -24 25q-23 0 -23 -25q0 -22 23 -22zM666 498q-10 -35 6 -60l12 -18q33 45 33 100v170v84v170q0 27 -10 57q-33 20 -80 21h-84q-72 0 -121 -49t-49 -121v-170v-86v-86h219h65 q9 0 9 -12zM702 166q23 0 23 22q0 25 -23 25t-22 -25q-1 -22 22 -22zM750 1151q23 0 22 25q0 23 -22 22q-10 0 -17.5 -6t-7.5 -16t7.5 -17.5t17.5 -7.5zM807 375q23 0 22 22q0 23 -22 23q-10 0 -17.5 -6t-7.5 -17q0 -10 7.5 -16t17.5 -6zM825 543q0 -23 23 -23q10 0 17 6 t7 17q0 10 -7 17t-17 7q-23 1 -23 -24zM1014 16q8 -4 7 -10t-9 -6h-299l-4 8l-11 15l-30 40h286h4q14 -16 28 -26.5t28 -20.5zM467 274q8 -6 16 -8l187 -264q-10 0 -20.5 -1t-22.5 -1h-84q-106 0 -195.5 48t-146.5 126q55 -51 128.5 -81t157.5 -30h84h21.5t21.5 3z" />
<glyph unicode="r" horiz-adv-x="1036" d="M963 170q0 -119 41 -156q6 -4 5 -9t-10 -5h-329q-6 0 -8.5 5t4.5 9q14 12 28 47h248q8 0 9 5.5t-3 9.5q-43 37 -43 155v86v43q0 98 -27.5 176t-91.5 152q49 -66 72 -137.5t23 -161.5v-41v-86q0 -119 43 -156q6 -4 4 -9t-10 -5h-328q-8 0 -10 5t4 9q43 37 43 156v86v41 q0 63 -29 117q-31 23 -67.5 35t-77.5 12h-43v-129v-170v-84q0 -119 41 -156q6 -4 4 -9t-9 -5h-36h-86h-207q-8 0 -9.5 5t5.5 9q14 12 28 47h127h84h37q8 0 9 5.5t-3 9.5q-43 37 -43 155v86v170v127h43q55 0 103.5 -21.5t83.5 -57.5q-35 51 -90.5 80.5t-120.5 29.5h-43v-127 v-170v-86q0 -119 43 -156q4 -4 3 -9t-9 -5h-37h-84h-207q-8 0 -10 5t4 9q43 37 43 156v936q0 119 -43 156q-6 4 -4 9t10 5h207h274q76 0 141.5 -28.5t114.5 -78t78 -116t29 -141.5q0 -78 -33 -151t-94 -126q6 -8 12 -14t12 -15q61 53 94 125t33 152q0 59 -17.5 111.5 t-49.5 97.5q59 -51 92 -121t33 -152q0 -80 -34 -151.5t-93 -124.5q66 -78 96.5 -157t30.5 -181v-43v-84zM199 172q10 0 17 6t7 17q0 10 -7 16t-17 6q-23 0 -23 -22q0 -23 23 -23zM199 348q10 0 17 7t7 18q0 10 -7 16t-17 6q-23 0 -23 -22q0 -10 6.5 -17.5t16.5 -7.5z M199 520q10 0 17 6t7 17q0 10 -7 17t-17 7q-23 0 -23 -24q0 -23 23 -23zM199 692q10 0 17 7.5t7 17.5t-7 16t-17 6q-23 0 -23 -22q0 -10 6.5 -17.5t16.5 -7.5zM201 868q23 0 22 23q0 10 -6 17t-16 7t-17.5 -7t-7.5 -17q0 -23 25 -23zM176 1063q0 -23 23 -23q10 0 17 6.5 t7 16.5t-7 16t-17 6q-23 1 -23 -22zM201 1212q10 0 16 7.5t6 17.5q0 23 -22 23q-25 0 -25 -23q0 -10 7.5 -17.5t17.5 -7.5zM754 1010q-10 0 -17.5 -7.5t-7.5 -17.5t7 -16t18 -6q23 0 22 22q1 25 -22 25zM711 1165q-10 0 -17.5 -7t-7.5 -17t7 -16.5t18 -6.5q23 0 22 23 q1 24 -22 24zM551 1260q-20 0 -21 -25q0 -23 21 -23q25 0 24 23q1 25 -24 25zM367 1260q-23 0 -23 -25q0 -23 23 -23q25 0 24 23q1 25 -24 25zM328 895h24v174v10v4h191q39 0 69 -26q-14 25 -38.5 41t-55.5 16h-190v-2v-14v-199v-4zM350 758q25 0 25 22q0 23 -25 23 q-23 0 -22 -23q-1 -22 22 -22zM524 752q10 0 16.5 7t6.5 17q0 23 -23 23t-22 -23q0 -10 6 -17t16 -7zM518 895q45 0 77 31.5t32 77.5v14q-8 2 -15.5 2h-13.5h-188v-2v-12v-111h108zM641 633q23 0 23 22q0 25 -23 25q-25 0 -25 -25q0 -22 25 -22zM668 809q0 -23 22 -23 q10 0 17.5 6.5t7.5 16.5t-7.5 16t-17.5 6q-22 1 -22 -22zM707 522q0 -23 24 -22q23 0 23 22q0 23 -23 23q-24 0 -24 -23zM756 385q-10 0 -16.5 -7t-6.5 -18q0 -23 23 -22q10 0 17 6t7 16t-7 17.5t-17 7.5zM762 172q23 0 22 23q0 23 -22 22q-23 0 -23 -22q0 -23 23 -23z" />
<glyph unicode="s" horiz-adv-x="1136" d="M1028 975q0 66 -19.5 123t-54.5 104q59 -53 95 -129t36 -162h-260h-37q-16 0 -8 15q14 25 8 49h240zM1085 389q0 -80 -30.5 -151.5t-83.5 -124t-124 -83t-153 -30.5h-86h-88q-98 0 -181 44t-136 118q53 -47 118.5 -73t141.5 -26h86h88q82 0 152.5 31t124 84t84 124 t30.5 153q0 63 -19.5 121.5t-54.5 105.5q59 -53 95 -129t36 -164zM346 485q12 0 8 -12q-18 -33 -7 -59.5t28 -40.5q-4 12 -4 16h20h37q14 0 8 -12q-4 -6 -6 -11.5t-2 -11.5h10h88h86q53 0 91 39t38 92q0 18 -2 27q-18 8 -45 8h-86h-88q-98 0 -181 44t-136 120 q53 -47 118.5 -73.5t141.5 -26.5h86h88q49 0 88 -33q-16 29 -46 47t-67 18h-86h-88q-82 0 -152.5 31t-123.5 83t-84 124t-31 152q0 82 31 152.5t84 123.5t123.5 84t152.5 31h88h86q80 0 152 -31t125 -84t84 -124t31 -152h-263h-36q-14 0 -7 14q2 4 4.5 10t4.5 12h-13h-86 h-88q-53 0 -91 -38.5t-38 -92.5v-13t2 -13q18 -8 45 -8h88h86q80 0 152 -31t125 -84t84 -125t31 -152t-31 -151.5t-84 -124.5t-125 -84t-152 -31h-86h-88q-82 0 -152.5 31t-123.5 84t-84 125t-31 151h260h39zM233 344q23 0 23 23t-23 22q-25 0 -24 -22q-1 -23 24 -23z M858 1120q-23 0 -22 -22q0 -25 22 -25q23 0 23 25q0 22 -23 22zM733 1266q-10 0 -17 -7.5t-7 -17.5t7 -16t17 -6t17.5 6t7.5 16t-7.5 17.5t-17.5 7.5zM557 1300q-23 0 -22 -24q0 -23 22 -23q25 0 25 23q0 24 -25 24zM375 1300q-23 0 -23 -24q0 -23 23 -23q25 0 24 23 q1 24 -24 24zM231 1194q-10 0 -16 -7t-6 -18q0 -23 22 -22q10 0 17.5 6t7.5 16t-7.5 17.5t-17.5 7.5zM197 981q23 0 22 25q0 23 -22 22q-25 0 -25 -22q0 -25 25 -25zM256 819q23 0 23 23q0 25 -23 24q-25 0 -25 -24q0 -23 25 -23zM350 909q-16 33 -16 66q0 53 38 92t91 39 h86h88q23 0 53 -10q6 -6 10 -9q-16 25 -36 39q-27 10 -52 11h-86h-88q-53 0 -92 -38t-39 -93q0 -58 43 -97zM399 723q10 0 17.5 7t7.5 18q0 10 -7 16t-18 6q-10 0 -17 -6t-7 -16t7 -17.5t17 -7.5zM582 723q23 0 22 25q0 23 -22 22q-25 0 -25 -22q0 -25 25 -25zM858 616 q-10 0 -16 -7t-6 -17t6 -17.5t16 -7.5t16.5 7.5t6.5 17.5t-6.5 17t-16.5 7zM858 436q-23 0 -22 -22q0 -25 22 -25q23 0 23 25q0 22 -23 22zM733 719q0 -23 25 -23q23 0 22 23q0 23 -22 22q-25 1 -25 -22zM745 293q-10 0 -17 -7t-7 -18q0 -10 7 -16t17 -6t17.5 6t7.5 16 t-7.5 17.5t-17.5 7.5zM553 268q-25 0 -25 -22q0 -25 25 -25q23 0 22 25q1 22 -22 22zM371 281q-23 0 -23 -25q0 -23 23 -23t22 23q1 25 -22 25z" />
<glyph unicode="t" horiz-adv-x="1085" d="M963 1194q0 68 14 109h43h39q6 0 8 -5.5t-4 -9.5q-43 -37 -43 -160v-86v-36q0 -10 -5 -11.5t-11 4.5q-35 43 -158 43h-131v-159v-277v-334v-98q0 -123 43 -160q6 -4 4 -9t-10 -5h-336q-8 0 -9 5t5 9q18 16 28 49h254q8 0 10.5 5.5t-4.5 11.5q-45 35 -45 158v98v336v276 v158h133q123 0 158 -43q6 -6 11.5 -4t5.5 10v37v88zM66 1225q0 121 -43 157q-6 4 -4.5 9.5t10.5 5.5h37h260h219h174h219h37q8 0 10 -5.5t-4 -9.5q-43 -37 -43 -157v-88v-37q0 -8 -5 -10.5t-9 4.5q-37 43 -160 43h-131v-158v-277v-333v-101q0 -121 41 -157q16 -16 -4 -17 h-336q-8 0 -10 5t4 12q43 37 43 157v774h-49q-121 0 -158 -43q-6 -6 -11.5 -5t-5.5 12v36v48q39 16 117 16h107v31h-131q-123 0 -160 -43q-4 -6 -9 -4t-5 10v37v88zM838 1307q-10 0 -17.5 -7.5t-7.5 -17.5t7 -16t18 -6q10 0 17 6t7 16t-7 17.5t-17 7.5zM672 1307 q-25 0 -25 -25q0 -23 25 -22q23 0 22 22q1 25 -22 25zM504 1307q-23 0 -23 -25q0 -23 23 -22q25 0 24 22q1 25 -24 25zM502 1130q-23 0 -23 -24q0 -10 6.5 -17.5t16.5 -7.5t17 7.5t7 17.5q1 24 -24 24zM528 930q0 25 -24 24q-23 0 -23 -24q0 -23 23 -23q24 0 24 23zM502 776 q-23 0 -23 -24q0 -23 23 -23q25 0 24 23q1 24 -24 24zM502 600q-10 0 -16.5 -7t-6.5 -18q0 -10 6.5 -17t16.5 -7t17 7t7 17t-7 17.5t-17 7.5zM502 424q-23 0 -23 -23q0 -10 6.5 -17t16.5 -7t17 7t7 17q1 23 -24 23zM502 244q-23 0 -23 -25q0 -23 23 -22q25 0 24 22 q1 25 -24 25zM336 1307q-23 0 -23 -25q0 -23 23 -22q25 0 24 22q1 25 -24 25zM170 1307q-25 0 -25 -25q0 -23 25 -22q23 0 23 22q0 25 -23 25z" />
<glyph unicode="u" d="M1022 434q0 -90 -34 -169t-93 -138t-138 -93t-169 -34q-109 0 -200 48t-150 130q59 -53 132.5 -84t159.5 -31q90 0 169 34t138.5 93.5t93.5 138.5t34 169v696q0 72 14 109h82q6 0 8 -5.5t-4 -9.5q-43 -37 -43 -160v-694zM678 965v260q0 123 -41 157q-14 14 4 15h336 q20 0 6 -15q-43 -37 -43 -157v-695q0 -90 -34 -169.5t-93 -139t-139 -93.5t-170 -34t-168 34t-137.5 93.5t-93 139t-33.5 169.5v695q0 121 -43 157q-14 14 4 15h336q20 0 6 -15q-43 -37 -43 -157v-260v-263v-172q0 -78 51 -124q-27 43 -27 92v174v262v260q0 68 13 109h82 q10 0 11 -5.5t-5 -9.5q-43 -37 -43 -160v-260v-260v-174q0 -27 10 -57q35 -20 80 -21q72 0 123 51.5t51 122.5v172v263zM217 1294q-25 0 -24 -22q0 -25 24 -25q23 0 23 25q0 22 -23 22zM215 1118q-23 0 -22 -24q0 -10 6 -17.5t16 -7.5t17.5 7t7.5 18q0 24 -25 24zM240 918 q0 25 -23 24q-25 0 -24 -24q0 -23 24 -23q23 0 23 23zM215 764q-23 0 -22 -23q0 -25 22 -24q25 0 25 24q0 23 -25 23zM193 563q0 -25 22 -24q25 0 25 24q0 10 -7.5 17.5t-17.5 7.5t-16 -7.5t-6 -17.5zM227 365q10 0 17.5 7t7.5 17t-7 17.5t-18 7.5q-10 0 -17 -7.5t-7 -17.5 t7 -17t17 -7zM348 254q25 0 25 22q0 25 -25 25q-23 0 -22 -25q-1 -22 22 -22zM516 207q10 0 17.5 7t7.5 17t-7.5 17.5t-17.5 7.5t-16 -7t-6 -18q0 -10 6 -17t16 -7zM811 594q23 0 23 24q0 23 -23 23q-25 0 -25 -23q0 -24 25 -24zM811 750q10 0 16.5 7t6.5 17t-6.5 17.5 t-16.5 7.5t-17.5 -7.5t-7.5 -17.5t7.5 -17t17.5 -7zM811 920q23 0 23 24q0 23 -23 23q-25 0 -25 -23q0 -24 25 -24zM811 1090q10 0 16.5 7t6.5 17t-6.5 17.5t-16.5 7.5t-17.5 -7.5t-7.5 -17.5t7.5 -17t17.5 -7zM805 1319q-25 0 -25 -25q0 -23 25 -22q23 0 22 22q1 25 -22 25 zM786 453q-10 0 -17 -6.5t-7 -16.5t7 -17t17 -7t17.5 7t7.5 17t-7.5 16.5t-17.5 6.5zM690 301q-23 0 -22 -25q0 -23 22 -22q25 0 25 22q0 25 -25 25z" />
<glyph unicode="v" horiz-adv-x="1095" d="M1065 1305q8 0 9 -6.5t-3 -10.5q-45 -39 -45 -158v-415q0 -82 -14.5 -157t-46.5 -150l-101 -232q-23 -127 13 -160q6 -6 4 -11t-11 -5h-557q-6 0 -8 5t4 11q14 14 21 50h483q8 0 10 5t-4 9q-37 37 -12 160l100 231q61 150 62 309v414q0 35 4 61.5t10 49.5h82zM76 1225 q0 123 -43 157q-6 6 -4 11.5t10 5.5h334q23 0 6 -17q-43 -35 -43 -157v-260v-154q0 -106 43 -205l131 -307l6 12l-113 264q-41 94 -41 205v154v260q0 68 13 111h82q8 0 9 -6.5t-3 -10.5q-43 -35 -43 -158v-262v-153q0 -109 41 -205l69 -164l111 260q43 98 43 205v154v260 q0 123 -43 157q-6 6 -4 11.5t10 5.5h336q6 0 8 -5t-4 -12q-43 -35 -43 -157v-414q0 -82 -14.5 -157.5t-46.5 -151.5l-101 -232q-25 -123 13 -159q4 -4 3 -9.5t-10 -5.5h-555q-10 0 -11 5t3 10q37 37 13 159l-99 232q-63 147 -63 309v414zM805 1292q-10 0 -17.5 -6t-7.5 -16 t7.5 -16.5t17.5 -6.5q25 0 24 23q1 22 -24 22zM799 1112q-10 0 -17.5 -7t-7.5 -18q0 -10 7 -16t18 -6q25 0 24 22q1 25 -24 25zM799 932q-10 0 -17.5 -7t-7.5 -18q0 -10 7 -16t18 -6q25 0 24 22q1 25 -24 25zM788 754q-25 0 -24 -23q0 -23 24 -22q23 0 23 22q0 23 -23 23z M766 582q-25 0 -25 -23q0 -25 25 -24q10 0 17.5 7t7.5 17t-7.5 16.5t-17.5 6.5zM686 406q-10 0 -17 -6.5t-7 -16.5t7 -16.5t17 -6.5q25 0 25 23t-25 23zM623 242q-10 0 -17.5 -7.5t-7.5 -17.5t7 -17t18 -7q10 0 17 7t7 17t-7 17.5t-17 7.5zM184 721q0 -25 25 -25q23 0 22 25 q0 23 -22 22q-25 1 -25 -22zM387 242q-25 0 -25 -25q0 -23 25 -22q23 0 23 22q0 25 -23 25zM317 401q-23 0 -22 -24q0 -23 22 -23q25 0 25 23q0 24 -25 24zM272 541q0 10 -7 17t-17 7t-17.5 -7t-7.5 -17t7.5 -16.5t17.5 -6.5t17 6.5t7 16.5zM231 901q0 25 -22 25 q-25 0 -25 -25q0 -23 25 -22q22 -1 22 22zM197 1288q-25 0 -25 -24q0 -23 25 -23q23 0 22 23q1 24 -22 24zM197 1100q-25 0 -25 -23q0 -25 25 -24q23 0 22 24q1 23 -22 23z" />
<glyph unicode="w" horiz-adv-x="1673" d="M1632 1278q10 0 11.5 -5t-5.5 -9q-41 -35 -41 -156v-256v-150q0 -156 -63 -301l-96 -229q-25 -121 12 -156q12 -16 -6 -16h-514q-12 0 -8 12q8 23 8 51h459q6 0 8 5.5t-2 9.5q-35 35 -15 158l99 227q31 74 46 147.5t15 155.5v149v256q0 63 12 107h80zM1370 109 q4 -4 2 -9.5t-10 -5.5h-514q-12 0 -8 12q14 39 8 78l-6 -12q-37 -96 -17 -160q4 -12 -8 -12h-514q-18 0 -6 16q18 18 20 47h445q10 0 8 13q-25 61 16 160l25 61l-18 43l-31 -74q-41 -96 -19 -160q6 -12 -6 -12h-514q-8 0 -10 5t4 10q35 35 12 157q-35 82 -60.5 138.5 t-44 102.5t-28.5 86t-16 88t-8 111.5t-2 153.5v254q0 119 -43 156q-10 14 6 14h327q20 0 7 -14q-43 -39 -43 -156v-254v-151q0 -102 43 -201l129 -301l4 14l-109 256q-41 94 -41 203v149v256q0 63 12 107h80q8 0 9.5 -5t-2.5 -9q-43 -37 -43 -156v-256v-150q0 -106 40 -202 l68 -158l111 252q41 100 41 201v151v254q0 119 -43 156q-14 14 6 14h327q20 0 7 -14q-43 -39 -43 -156v-254v-151q0 -100 41 -201l129 -301l6 14l-111 256q-41 100 -41 203v149v256q0 33 4 58.5t10 48.5h80q8 0 9.5 -5t-5.5 -9q-41 -37 -41 -156v-256v-150q0 -106 41 -202 l68 -158l111 252q41 100 41 201v151v254q0 119 -43 156q-14 14 6 14h327q20 0 7 -14q-43 -37 -43 -156v-254v-151q0 -80 -15.5 -154t-46.5 -147l-96 -228q-25 -120 12 -157zM1399 1268q-23 0 -23 -23q0 -25 23 -24q23 0 22 24q1 23 -22 23zM1397 1096q-10 0 -16.5 -7.5 t-6.5 -17.5q0 -23 23 -22q25 0 24 22q0 10 -7 17.5t-17 7.5zM1421 899q0 10 -6 17.5t-16 7.5t-16.5 -7.5t-6.5 -17.5q0 -23 23 -22q22 -1 22 22zM1397 750q-10 0 -16.5 -7.5t-6.5 -17.5q0 -23 23 -23q25 0 24 23q0 10 -7 17.5t-17 7.5zM217 1276q-25 0 -24 -23q0 -23 24 -22 q23 0 23 22q0 23 -23 23zM215 1104q-10 0 -17.5 -7t-7.5 -18q0 -10 7.5 -16t17.5 -6q23 0 23 22q0 25 -23 25zM240 907q0 25 -23 25q-25 0 -24 -25q0 -23 24 -22q23 -1 23 22zM190 733q0 -10 7.5 -16t17.5 -6q23 0 23 22q0 25 -23 25q-10 0 -17.5 -7.5t-7.5 -17.5zM240 532 q23 0 22 23q0 23 -22 23q-23 0 -23 -23t23 -23zM319 371q25 0 25 22q0 25 -25 25q-23 0 -22 -25q-1 -22 22 -22zM391 207q10 0 17.5 6t7.5 16t-7.5 16.5t-17.5 6.5q-23 0 -22 -23q-1 -22 22 -22zM584 195q10 0 16 7t6 17q0 23 -22 23q-25 0 -25 -23q0 -10 7.5 -17t17.5 -7z M672 354q23 0 22 23q0 25 -22 24q-25 0 -25 -24q0 -23 25 -23zM807 1280q-10 0 -17.5 -7t-7.5 -18q0 -10 7.5 -16t17.5 -6q23 0 22 22q1 25 -22 25zM801 508q23 0 22 24q0 23 -22 23q-23 0 -23 -23q0 -24 23 -24zM805 696q25 0 24 23q0 10 -7 17t-17 7t-16.5 -7t-6.5 -17 q0 -23 23 -23zM807 866q23 0 22 23q0 23 -22 22q-10 0 -17.5 -6t-7.5 -16t7.5 -16.5t17.5 -6.5zM817 1049q23 0 23 22q0 10 -6.5 17.5t-16.5 7.5t-16 -7.5t-6 -17.5q-1 -22 22 -22zM922 342q23 0 22 23q0 25 -22 24q-10 0 -17.5 -7t-7.5 -17t7.5 -16.5t17.5 -6.5zM997 178 q23 0 23 23q0 10 -6 17t-17 7q-10 0 -16 -7t-6 -17q-1 -23 22 -23zM1210 184q23 0 23 23q0 10 -6 17t-17 7q-10 0 -17 -7t-7 -17t7 -16.5t17 -6.5zM1280 354q23 0 23 23q0 10 -6.5 17t-16.5 7t-16.5 -7t-6.5 -17q0 -23 23 -23zM1327 532q10 0 17.5 6.5t7.5 16.5t-7.5 16.5 t-17.5 6.5q-23 0 -22 -23q-1 -23 22 -23z" />
<glyph unicode="x" horiz-adv-x="1077" d="M1038 1305q8 0 10.5 -6.5t-4.5 -10.5q-43 -37 -43 -158v-45q0 -111 -45 -212t-129 -177q-4 4 -5 7.5t-5 7.5q49 -68 76 -147t27 -165v-43v-86q0 -123 43 -159q4 -4 3 -9.5t-10 -5.5h-333q-10 0 -11.5 5t4.5 10q43 39 43 159v86v43q0 61 -28 119q-10 8 -22.5 14.5 t-24.5 12.5q-72 -31 -116 -96.5t-44 -143.5v-45v-86q0 -121 43 -158q6 -6 4 -11t-10 -5h-336q-8 0 -9 5t5 11q14 12 29 47h253q8 0 9.5 6.5t-2.5 10.5q-43 37 -43 158v88v43q0 78 43 143.5t114 95.5q51 -20 88 -61q-39 59 -112 92q-72 -29 -116 -95.5t-44 -144.5v-43v-86 q0 -123 43 -159q6 -4 5 -9.5t-9 -5.5h-336q-8 0 -10 5t4 10q43 37 43 159v86v43q0 113 46 215.5t132 176.5q-86 74 -132 176t-46 215v43q0 123 -43 159q-6 4 -4 9.5t10 5.5h336q8 0 9 -5t-5 -10q-43 -37 -43 -159v-43q0 -51 18.5 -97.5t53.5 -80.5q-45 63 -45 147v43 q0 68 12 111h82q8 0 10 -6.5t-4 -10.5q-43 -37 -43 -158v-45q0 -59 27 -116q12 -8 24 -15.5t25 -11.5q72 31 115.5 96.5t43.5 143.5v43q0 121 -43 159q-6 4 -5 9.5t12 5.5h333q8 0 9.5 -5t-2.5 -10q-43 -37 -43 -159v-43q0 -113 -46.5 -215.5t-130.5 -175.5q8 -6 14.5 -12.5 l14.5 -14.5q82 74 127 175t45 212v43q0 70 14 111h80zM195 1276q0 -23 24 -23q25 0 25 23t-25 22q-24 1 -24 -22zM244 1071q25 0 24 25q0 23 -24 22q-25 0 -25 -22q0 -25 25 -25zM201 184q10 0 17 7.5t7 17.5t-7 17t-17 7t-16.5 -7t-6.5 -17t6.5 -17.5t16.5 -7.5zM219 354 q25 0 25 25q0 23 -25 22q-25 0 -24 -22q-1 -25 24 -25zM268 522q10 0 17.5 7.5t7.5 17.5t-7 16t-18 6q-25 0 -24 -22q-1 -25 24 -25zM311 926q0 -25 23 -25q25 0 24 25q0 23 -24 22q-23 1 -23 -22zM356 668q25 0 25 24q0 23 -25 23q-10 0 -17 -6.5t-7 -16.5t7 -17t17 -7z M494 778q25 0 24 23q0 10 -7 17t-17 7t-17.5 -7t-7.5 -17t7.5 -16.5t17.5 -6.5zM797 1311q-10 0 -17.5 -7.5t-7.5 -17.5t7 -16t18 -6q25 0 24 22q1 25 -24 25zM766 1118q-25 0 -25 -22q0 -25 25 -25q10 0 17.5 7t7.5 18q0 10 -7.5 16t-17.5 6zM641 690q25 0 25 23t-25 22 q-25 0 -25 -22q0 -23 25 -23zM676 895q10 0 17 7t7 18q0 10 -7 17t-17 7t-17.5 -7t-7.5 -17t7.5 -17.5t17.5 -7.5zM739 541q25 0 25 24q0 23 -25 23t-24 -23q-1 -24 24 -24zM831 215q0 23 -24 23q-10 0 -17.5 -6.5t-7.5 -16.5t7.5 -17.5t17.5 -7.5q24 0 24 25zM821 391 q0 25 -24 25q-10 0 -17.5 -7.5t-7.5 -17.5t7 -16t18 -6q24 -1 24 22zM981 63q8 0 10 6.5t-4 10.5q-43 37 -43 158v88v43q0 86 -26.5 166.5t-79.5 148.5q78 -74 120.5 -172t42.5 -207v-45v-86q0 -121 43 -158q6 -6 4.5 -11t-10.5 -5h-333q-8 0 -10.5 5t3.5 11q18 16 29 47 h254z" />
<glyph unicode="y" horiz-adv-x="1077" d="M1057 1303q8 0 9 -5.5t-5 -9.5q-43 -39 -43 -160v-86v-88q0 -72 -21.5 -136t-61.5 -119.5t-96.5 -96.5t-123.5 -61v-269v-98q0 -123 43 -160q6 -4 4 -9t-10 -5h-334q-10 0 -11 5t5 9q18 16 28 49h254q8 0 10.5 5.5t-4.5 11.5q-43 33 -43 158v98v268q68 20 123.5 61.5 t95 96.5t62.5 120.5t23 137.5v86v88q0 35 4 60.5t10 48.5h82zM676 111q6 -6 4 -11.5t-10 -5.5h-336q-18 0 -6 17q43 35 43 157v310q-41 23 -75 53.5t-63 66.5q63 -57 138 -84v23q-68 20 -124.5 61t-96 95.5t-61 120t-21.5 137.5v86v88q0 121 -43 157q-14 14 6 15h334 q20 0 6 -15q-43 -37 -43 -157v-88v-86q0 -74 53 -123q-29 41 -29 92v86v88q0 35 4 60.5t11 48.5h82q8 0 9 -5.5t-3 -9.5q-43 -35 -43 -160v-86v-88q0 -33 8 -57q41 -20 82 -20q72 0 123 51t51 123v86v88q0 121 -43 157q-14 14 6 15h336q6 0 8 -4t-4 -11q-43 -37 -43 -157 v-88v-86q0 -72 -22.5 -137.5t-62.5 -120t-95.5 -95.5t-122.5 -61v-268v-101q0 -120 43 -157zM813 1075q23 0 23 25q0 23 -23 22q-23 0 -22 -22q-1 -25 22 -25zM807 1288q-23 0 -23 -24q0 -23 23 -23q25 0 24 23q1 24 -24 24zM774 954q-23 0 -22 -24q0 -23 22 -23q23 0 23 23 q0 24 -23 24zM668 827q-10 0 -16.5 -7t-6.5 -17t6 -17.5t17 -7.5q10 0 16 7.5t6 17.5t-6 17t-16 7zM203 1294q-25 0 -25 -22q0 -25 25 -25q10 0 17 7.5t7 17.5t-7 16t-17 6zM197 1081q10 0 17 7.5t7 17.5t-7 17t-17 7t-17.5 -7t-7.5 -17t7.5 -17.5t17.5 -7.5zM238 913 q10 0 17 6.5t7 16.5t-7 17.5t-17 7.5t-17.5 -7.5t-7.5 -17.5t7.5 -16.5t17.5 -6.5zM346 786q25 0 25 23q0 25 -25 25q-23 0 -22 -25q-1 -23 22 -23zM508 221q10 0 17 7.5t7 17.5t-7 17t-17 7t-16.5 -7t-6.5 -17t6.5 -17.5t16.5 -7.5zM508 379q25 0 24 22q0 25 -24 25 q-23 0 -23 -25q0 -22 23 -22zM508 547q10 0 17 7t7 17t-7 17.5t-17 7.5t-16.5 -7t-6.5 -18q0 -10 6.5 -17t16.5 -7zM508 719q25 0 24 22q0 25 -24 25q-23 0 -23 -25q0 -22 23 -22z" />
<glyph unicode="z" horiz-adv-x="1148" d="M1044 1276h93l-529 -928h193q119 0 155 43q4 4 9.5 3t5.5 -9v-37v-86q0 -121 43 -153q6 -4 4 -10.5t-10 -6.5h-37h-936l530 930h-194q-119 0 -156 -43q-4 -6 -9 -4t-5 10v37v45q39 16 112 16h287l18 31h-327q-123 0 -156 -43q-4 -4 -10 -3t-6 9v37v86q0 121 -41 154 q-6 4 -4 10t10 6h35h938l-584 -1022h43zM240 1239q10 18 -9 33q-20 6 -32 -10q-8 -20 10 -31q8 -4 17.5 -2t13.5 10zM403 1239q10 18 -10 33q-20 8 -31 -10q-4 -8 -2 -17.5t11 -13.5q20 -10 32 8zM559 1245q8 20 -10 31q-8 4 -17.5 2t-13.5 -10t-2 -17.5t10 -13.5 q19 -15 33 8zM850 1262q-8 -20 10 -31q8 -4 17.5 -2t13.5 10q14 18 -8 33q-21 8 -33 -10zM743 1130q-10 -23 11 -32q8 -4 17 -2t13 10q10 20 -8 33q-19 9 -33 -9zM678 1262q-4 -8 -2 -17.5t10 -13.5t18.5 -2t14.5 10q10 18 -8 33q-10 4 -19.5 2t-13.5 -12zM657 981 q-6 -10 -4 -19.5t11 -13.5q20 -10 32 8q10 20 -8 33q-8 4 -17.5 2t-13.5 -10zM571 831q-10 -20 9 -32q18 -10 32 8q10 23 -10 33q-8 4 -17.5 1.5t-13.5 -10.5zM483 680q-10 -18 9 -33q18 -10 32 10q8 20 -10 31q-8 4 -17.5 3t-13.5 -11zM262 205q10 18 -8 33q-20 10 -33 -11 q-4 -8 -2 -17t12 -13q8 -4 17.5 -2t13.5 10zM350 358q14 20 -8 33q-8 4 -17.5 2t-13.5 -10q-10 -20 8 -33q21 -10 31 8zM422 201q10 20 -8 32q-20 10 -33 -8q-4 -8 -2 -17t10 -13q10 -6 19.5 -4t13.5 10zM436 508q4 8 2 17.5t-10 13.5q-18 10 -33 -9q-10 -20 11 -32 q8 -4 17 -2t13 12zM848 225q-4 -8 -2 -17t10 -13q10 -6 19.5 -4t13.5 10q10 20 -8 32q-8 4 -18.5 3t-14.5 -11zM688 231q-10 -20 8 -32q18 -10 33 8q10 23 -10 33q-8 4 -17.5 1.5t-13.5 -10.5zM573 201q10 20 -8 32q-20 10 -33 -8q-4 -8 -2 -17t13 -13q8 -6 17 -4t13 10z M1051 170q0 -119 43 -156q6 -4 4 -9t-11 -5h-36h-934l35 63h843h37q8 0 9 5.5t-3 9.5q-43 37 -43 155v37q14 4 23.5 11.5t17.5 15.5q4 6 9.5 4t5.5 -8v-37v-86z" />
<glyph unicode="&#x2000;" horiz-adv-x="701" />
<glyph unicode="&#x2001;" horiz-adv-x="1403" />
<glyph unicode="&#x2002;" horiz-adv-x="701" />
<glyph unicode="&#x2003;" horiz-adv-x="1403" />
<glyph unicode="&#x2004;" horiz-adv-x="467" />
<glyph unicode="&#x2005;" horiz-adv-x="350" />
<glyph unicode="&#x2006;" horiz-adv-x="233" />
<glyph unicode="&#x2007;" horiz-adv-x="233" />
<glyph unicode="&#x2008;" horiz-adv-x="175" />
<glyph unicode="&#x2009;" horiz-adv-x="280" />
<glyph unicode="&#x200a;" horiz-adv-x="77" />
<glyph unicode="&#x202f;" horiz-adv-x="280" />
<glyph unicode="&#x205f;" horiz-adv-x="350" />
<glyph unicode="&#x25fc;" horiz-adv-x="1402" d="M0 1403h1403v-1403h-1403v1403z" />
</font>
</defs>
</svg>
